#N canvas 0 49 1920 1009 12;
#X obj -30 -30 preset_hub k12 1 %hidden%;
#X obj 200 290 timer;
#X obj 100 200 inlet;
#X obj 100 230 trigger b b;
#X obj 100 350 outlet;
#X text 10 10 Send a bang to the inlet to start the event time of the
voice allocator. Then use [va-timer-get] to get the current time. For
convenience the outlet sends a bang when the timer was initialized.
, f 69;
#X text 10 70 \$1 must be \$0 of the voice allocator.;
#X obj 200 320 value _\$1_va_timer_value;
#X obj 250 240 r \$1-timer-query;
#X connect 1 0 7 0;
#X connect 2 0 3 0;
#X connect 3 0 4 0;
#X connect 3 1 1 0;
#X connect 8 0 1 1;
