#N canvas 0 49 1920 1009 12;
#X obj -30 -30 preset_hub k12 1 %hidden%;
#X obj 100 220 inlet;
#X obj 200 220 inlet;
#X obj 300 220 inlet;
#X obj 100 270 pack f f f;
#X text 100 200 Voice number;
#X text 200 200 Note;
#X text 300 200 Velocity;
#X obj 100 320 s \$1-output;
#X text 10 10 Small abstraction to emit a note on/off event from the
voice allocator. Makes the remaining code a bit less cluttered and
more clear., f 72;
#X text 10 60 \$1 must be \$0 of the voice allocator.;
#X connect 1 0 4 0;
#X connect 2 0 4 1;
#X connect 3 0 4 2;
#X connect 4 0 8 0;
