#N struct vac__voice float x float y float voice float note float velocity
float active float time float sustain float sustenuto float bg_color
float sustain_color float sustenuto_color;
#N struct vac__main float polyphony array voices vac__voice;
#N canvas 0 49 1920 1009 12;
#X obj -30 -30 preset_hub k12 1 %hidden%;
#X text 10 90 - Voices are zero indexed, f 68;
#X text 10 130 - Handles sustenuto pedal, f 68;
#X text 10 110 - Handles sustain pedal, f 68;
#X text 10 150 - Retriggers notes \, if already playing, f 68;
#X text 10 170 - Steals note with the lowest velocity \, when necessary
, f 68;
#X obj 600 700 outlet;
#X text 600 730 Output: List with voice number (0 indexed) \, note
number \, velocity, f 66;
#X obj 600 120 inlet;
#X obj 720 120 inlet;
#X obj 860 120 inlet;
#X obj 1020 120 inlet;
#X obj 600 149 s \$0-in-note;
#X obj 720 149 s \$0-in-velocity;
#X obj 860 150 s \$0-in-sustain;
#X text 600 100 Note number;
#X text 720 100 Velocity number;
#X text 860 100 Sustain pedal;
#X text 1020 100 Sustenuto pedal;
#X text 600 180 The actual numbers don't matter for the inlets \, as
long as 0 means "note off" \, "no velocity" \, "pedal released" and
positive values the opposite., f 79;
#X obj 600 670 r \$0-output;
#X obj 1020 150 s \$0-in-sustenuto;
#X text 10 220 \$1 must be the polyphony (maximum number of voices)
, f 68;
#N canvas 0 49 1920 1009 vac__struct_voice 1;
#X text 10 10 A single voice of the voice allocator;
#X obj 100 200 filledpolygon -x bg_color 0 1 0 0 200 0 200 160 0 160
;
#X obj 100 230 drawnumber voice 10 10 500 Voice:;
#X obj 100 300 drawnumber note 10 30 5 Note:;
#X obj 100 330 drawnumber velocity 10 50 5 Velocity:;
#X obj 100 360 drawnumber active 10 70 5 Active:;
#X obj 100 390 drawnumber time 10 90 5 Time:;
#X obj 100 450 filledpolygon -x sustain_color sustain_color 1 10 110
110 110 110 125 10 125, f 77;
#X obj 100 480 drawnumber sustain 10 110 0 Sustain:;
#X obj 100 540 filledpolygon -x sustenuto_color sustenuto_color 1 10
130 110 130 110 145 10 145, f 81;
#X obj 100 570 drawnumber sustenuto 10 130 0 Sustenuto:;
#X obj 100 100 struct vac__voice float x float y float voice float
note float velocity float active float time float sustain float sustenuto
float bg_color float sustain_color float sustenuto_color, f 184;
#X restore 600 310 pd vac__struct_voice;
#N canvas 0 49 1920 1009 vac__struct_main 0;
#X obj 100 160 drawnumber polyphony 10 10 0 Polyphony:;
#X obj 100 190 plot voices 999 1 10 40;
#X text 10 10 Main structure of the voice allocator;
#X obj 100 100 struct vac__main float polyphony array voices vac__voice
;
#X restore 600 280 pd vac__struct_main;
#N canvas 0 49 1920 1009 vac__data 0;
#X scalar vac__main 0 \; 0 0 0 0 0 0 0 0 0 777 777 777 \; \;;
#X restore 600 370 pd vac__data;
#N canvas 0 49 1920 1009 vac__init 1;
#X obj 100 100 loadbang;
#X msg 130 230 clear;
#X obj 100 130 bng 15 250 50 0 empty empty empty 17 7 0 10 #fcfcfc
#000000 #000000 1;
#X obj 100 429 pointer;
#X obj 100 460 trigger b p, f 26;
#X obj 100 840 until;
#X msg 250 780 0;
#X obj 100 590 trigger b b p;
#X obj 100 750 trigger b b;
#X obj 100 871 f;
#X obj 140 871 + 1;
#X msg 560 230 777;
#X text 110 180 ---- Delete previous data and initialize varaibles
----;
#X obj 100 901 trigger b f;
#X msg 420 230 777;
#X text 110 310 ---- Start event timer ----;
#X obj 100 810 - 1;
#X msg 770 230 955;
#X obj 150 1140 expr ($f1 % 8) * 210;
#X obj 310 1140 expr int($f1 / 8) * 170;
#X obj 100 1110 trigger b f f b;
#X obj 270 260 value _\$0_polyphony;
#X obj 420 260 value _\$0_bg_color;
#X obj 560 260 value _\$0_sustain_color_off;
#X obj 770 260 value _\$0_sustain_color_on;
#X obj 100 490 value _\$0_polyphony;
#X obj 130 650 value _\$0_polyphony;
#X obj 100 780 value _\$0_polyphony;
#X obj 100 931 value _\$0_init_voice_nr;
#X obj 100 1081 value _\$0_init_voice_nr;
#X obj 630 1140 value _\$0_bg_color;
#X obj 780 1140 value _\$0_sustain_color_off;
#X obj 100 1200 s \$0-init-done;
#X text 10 10 Initialization of the main data structure;
#X obj 270 230 f \$1;
#X obj 100 200 trigger b b;
#X text 300 520 Output: main pointer;
#X text 450 980 Output: voice pointer;
#X obj 310 680 r \$0-init-main-pointer;
#X obj 280 980 r \$0-init-main-pointer;
#X obj 130 1040 s \$0-init-note-pointer;
#X obj 1000 1140 r \$0-init-note-pointer;
#X obj 170 620 s \$0-init-main-pointer;
#X text 110 730 ---- Initialize voice instances ----;
#X text 110 570 ---- Create child voice instances ----;
#X text 110 380 ---- Create main instance ----;
#X obj 130 260 send pd-vac__data;
#X msg 100 400 traverse pd-vac__data \, bang;
#X obj 100 330 ./va-timer-init \$0;
#X obj 490 1140 ./va-timer-get \$0;
#X obj 100 520 append vac__main polyphony;
#X obj 130 680 setsize vac__main voices;
#X obj 100 980 element vac__main voices;
#X obj 120 1170 set vac__voice voice x y time bg_color sustain_color
sustenuto_color, f 70;
#X obj 100 1011 trigger b p;
#X connect 0 0 2 0;
#X connect 1 0 46 0;
#X connect 2 0 35 0;
#X connect 3 0 4 0;
#X connect 4 0 25 0;
#X connect 4 1 50 1;
#X connect 5 0 9 0;
#X connect 6 0 9 0;
#X connect 7 0 8 0;
#X connect 7 1 26 0;
#X connect 7 2 42 0;
#X connect 8 0 27 0;
#X connect 8 1 6 0;
#X connect 9 0 10 0;
#X connect 9 0 13 0;
#X connect 10 0 9 1;
#X connect 11 0 23 0;
#X connect 13 0 28 0;
#X connect 13 1 28 0;
#X connect 14 0 22 0;
#X connect 16 0 5 0;
#X connect 17 0 24 0;
#X connect 18 0 53 1;
#X connect 19 0 53 2;
#X connect 20 0 32 0;
#X connect 20 1 53 0;
#X connect 20 2 18 0;
#X connect 20 2 19 0;
#X connect 20 3 30 0;
#X connect 20 3 31 0;
#X connect 20 3 49 0;
#X connect 25 0 50 0;
#X connect 26 0 51 0;
#X connect 27 0 16 0;
#X connect 28 0 52 0;
#X connect 29 0 20 0;
#X connect 30 0 53 4;
#X connect 31 0 53 6;
#X connect 31 0 53 5;
#X connect 34 0 21 0;
#X connect 35 0 48 0;
#X connect 35 1 1 0;
#X connect 35 1 34 0;
#X connect 35 1 14 0;
#X connect 35 1 11 0;
#X connect 35 1 17 0;
#X connect 38 0 51 1;
#X connect 39 0 52 1;
#X connect 41 0 53 7;
#X connect 47 0 3 0;
#X connect 48 0 47 0;
#X connect 49 0 53 3;
#X connect 50 0 7 0;
#X connect 52 0 54 0;
#X connect 54 0 29 0;
#X connect 54 1 40 0;
#X restore 600 400 pd vac__init;
#N canvas 0 49 1920 1009 vac__handle_note_on 0;
#X obj 100 210 spigot;
#X msg 130 310 -1;
#X msg 600 310 -1;
#X msg 810 311 -1;
#X text 110 390 ---- Loop over all voices ---;
#X obj 290 130 trigger b f;
#X obj 100 130 trigger b f;
#X obj 100 280 trigger b b;
#X obj 150 710 select 1;
#X obj 170 740 trigger b b;
#X obj 930 980 select 1;
#X obj 990 830 select 1;
#X obj 100 410 trigger b b;
#X obj 910 770 select 1;
#X msg 370 310 -1;
#X obj 130 1160 select 1;
#X msg 1010 310 -1;
#X obj 150 1190 trigger b b b;
#X msg 570 1220 0;
#X obj 100 1100 trigger b b;
#X text 110 1300 ---- Update allocated voice ----;
#X text 110 1540 ---- Play note-on for allocated voice ----;
#X obj 100 1320 trigger b b;
#X obj 100 1560 trigger b b b;
#X text 110 1080 ---- Play note-off for stolen voice ---;
#X msg 520 1450 1;
#X obj 130 1410 trigger b b p;
#X obj 150 560 trigger b p;
#X text 110 260 ---- Initialize temporary variables ----;
#X text 990 780 ---- Active voice that we can steal? ----;
#X text 910 720 ---- Free voice that we can allocate? ----;
#X text 160 660 ---- Retrigger already playing note? ----;
#X text 940 930 ---- Oldest free note? ----;
#X obj 150 470 trigger p b;
#X msg 1440 310 1;
#X msg 680 770 0;
#X obj 150 530 spigot;
#X text 410 490 Workaround: Sometimes the first iteration cannot be
stopped \, when the voice is retriggered \, leading to double allocation.
, f 63;
#X text 240 470 ----------------------------;
#X text 240 530 ----------------------------;
#X msg 1240 310 0;
#X msg 1330 1390 0;
#X obj 100 100 r \$0-in-note;
#X obj 290 100 r \$0-in-velocity;
#X obj 270 440 r \$0-noteon-break;
#X obj 170 830 s \$0-noteon-break;
#X obj 700 1450 r \$0-in-sustain;
#X obj 1230 1360 r \$0-in-sustain;
#X obj 1360 1360 r \$0-init-done;
#X obj 100 160 value _\$0_noteon_in_note;
#X obj 290 160 value _\$0_noteon_in_velocity;
#X obj 130 340 value _\$0_noteon_allocated_voice;
#X obj 370 340 value _\$0_noteon_allocated_time;
#X obj 600 340 value _\$0_noteon_steal_voice;
#X obj 810 340 value _\$0_noteon_steal_note;
#X obj 1010 339 value _\$0_noteon_steal_velocity;
#X obj 1240 340 value _\$0_noteon_sustenuto;
#X obj 1440 340 value _\$0_noteon_retrigger;
#X obj 210 500 value _\$0_noteon_retrigger;
#X obj 190 620 value _\$0_noteon_voice_voice;
#X obj 400 620 value _\$0_noteon_voice_active;
#X obj 620 620 value _\$0_noteon_voice_time;
#X obj 830 620 value _\$0_noteon_voice_note;
#X obj 1040 620 value _\$0_noteon_voice_velocity;
#X obj 1270 620 value _\$0_noteon_voice_sustenuto;
#X obj 150 680 expr _\$0_noteon_voice_note == _\$0_noteon_in_note;
#X obj 200 770 value _\$0_noteon_voice_voice;
#X obj 200 800 value _\$0_noteon_allocated_voice;
#X obj 440 800 value _\$0_noteon_sustenuto;
#X obj 440 770 value _\$0_noteon_voice_sustenuto;
#X obj 680 800 value _\$0_noteon_retrigger;
#X obj 910 740 expr _\$0_noteon_voice_active == 0;
#X obj 990 800 expr (_\$0_noteon_steal_voice < 0) || (_\$0_noteon_voice_velocity
< _\$0_noteon_steal_velocity), f 96;
#X obj 1440 890 value _\$0_noteon_steal_velocity;
#X obj 1440 860 value _\$0_noteon_voice_velocity;
#X obj 1230 890 value _\$0_noteon_steal_note;
#X obj 1230 860 value _\$0_noteon_voice_note;
#X obj 1010 890 value _\$0_noteon_steal_voice;
#X obj 1010 860 value _\$0_noteon_voice_voice;
#X obj 930 950 expr (_\$0_noteon_allocated_voice < 0) || (_\$0_noteon_voice_time
< _\$0_noteon_allocated_time), f 93;
#X obj 950 1010 value _\$0_noteon_voice_voice;
#X obj 950 1040 value _\$0_noteon_allocated_voice;
#X obj 1190 1010 value _\$0_noteon_voice_time;
#X obj 1190 1040 value _\$0_noteon_allocated_time;
#X obj 130 1130 expr _\$0_noteon_steal_voice >= 0 && _\$0_noteon_allocated_voice
< 0, f 68;
#X obj 150 1220 value _\$0_noteon_steal_voice;
#X obj 360 1220 value _\$0_noteon_steal_note;
#X obj 130 1350 value _\$0_noteon_allocated_voice;
#X obj 1230 1420 expr if($f1 > 0 \, _\$0_sustain_color_on \, _\$0_sustain_color_off)
, f 23;
#X obj 1030 1420 expr if($f1 > 0 \, _\$0_sustain_color_on \, _\$0_sustain_color_off)
, f 23;
#X obj 1030 1390 value _\$0_noteon_sustenuto;
#X obj 830 1450 value _\$0_noteon_sustenuto;
#X obj 310 1450 value _\$0_noteon_in_velocity;
#X obj 130 1450 value _\$0_noteon_in_note;
#X obj 100 1590 value _\$0_noteon_allocated_voice;
#X obj 340 1590 value _\$0_noteon_in_note;
#X obj 530 1590 value _\$0_noteon_in_velocity;
#X text 10 10 Handling of the note-on event;
#X obj 150 1250 ./va-play \$0;
#X obj 560 1450 ./va-timer-get \$0;
#X obj 100 1620 ./va-play \$0;
#X obj 130 440 ./va-foreach-voice;
#X obj 190 590 get vac__voice voice active time note velocity sustenuto
;
#X obj 130 1490 set vac__voice note velocity active time sustain sustain_color
sustenuto sustenuto_color, f 89;
#X obj 130 1380 ./va-get-voice;
#X connect 0 0 7 0;
#X connect 1 0 51 0;
#X connect 2 0 53 0;
#X connect 3 0 54 0;
#X connect 5 0 50 0;
#X connect 5 1 50 0;
#X connect 6 0 49 0;
#X connect 6 1 49 0;
#X connect 7 0 12 0;
#X connect 7 1 1 0;
#X connect 7 1 2 0;
#X connect 7 1 3 0;
#X connect 7 1 14 0;
#X connect 7 1 16 0;
#X connect 7 1 34 0;
#X connect 7 1 40 0;
#X connect 8 0 9 0;
#X connect 8 1 71 0;
#X connect 9 0 45 0;
#X connect 9 1 35 0;
#X connect 9 1 66 0;
#X connect 9 1 69 0;
#X connect 10 0 80 0;
#X connect 10 0 82 0;
#X connect 11 0 74 0;
#X connect 11 0 76 0;
#X connect 11 0 78 0;
#X connect 12 0 19 0;
#X connect 12 1 101 0;
#X connect 13 0 79 0;
#X connect 13 1 72 0;
#X connect 14 0 52 0;
#X connect 15 0 17 0;
#X connect 16 0 55 0;
#X connect 17 0 85 0;
#X connect 17 1 86 0;
#X connect 17 2 18 0;
#X connect 18 0 98 2;
#X connect 19 0 22 0;
#X connect 19 0 84 0;
#X connect 22 0 23 0;
#X connect 22 1 87 0;
#X connect 23 0 94 0;
#X connect 23 1 95 0;
#X connect 23 2 96 0;
#X connect 25 0 103 2;
#X connect 26 0 93 0;
#X connect 26 1 25 0;
#X connect 26 1 90 0;
#X connect 26 1 91 0;
#X connect 26 1 92 0;
#X connect 26 1 99 0;
#X connect 26 2 103 8;
#X connect 27 0 65 0;
#X connect 27 1 102 0;
#X connect 33 0 36 0;
#X connect 33 1 58 0;
#X connect 34 0 57 0;
#X connect 35 0 70 0;
#X connect 36 0 27 0;
#X connect 40 0 56 0;
#X connect 41 0 88 0;
#X connect 42 0 6 0;
#X connect 43 0 5 0;
#X connect 44 0 101 1;
#X connect 46 0 103 4;
#X connect 47 0 88 0;
#X connect 48 0 41 0;
#X connect 49 0 0 0;
#X connect 50 0 0 1;
#X connect 58 0 36 1;
#X connect 65 0 8 0;
#X connect 66 0 67 0;
#X connect 69 0 68 0;
#X connect 71 0 13 0;
#X connect 72 0 11 0;
#X connect 74 0 73 0;
#X connect 76 0 75 0;
#X connect 78 0 77 0;
#X connect 79 0 10 0;
#X connect 80 0 81 0;
#X connect 82 0 83 0;
#X connect 84 0 15 0;
#X connect 85 0 98 0;
#X connect 86 0 98 1;
#X connect 87 0 104 0;
#X connect 88 0 103 5;
#X connect 89 0 103 7;
#X connect 90 0 89 0;
#X connect 91 0 103 6;
#X connect 92 0 103 1;
#X connect 93 0 103 0;
#X connect 94 0 100 0;
#X connect 95 0 100 1;
#X connect 96 0 100 2;
#X connect 99 0 103 3;
#X connect 101 0 33 0;
#X connect 102 0 59 0;
#X connect 102 1 60 0;
#X connect 102 2 61 0;
#X connect 102 3 62 0;
#X connect 102 4 63 0;
#X connect 102 5 64 0;
#X connect 104 0 26 0;
#X restore 600 460 pd vac__handle_note_on;
#N canvas 0 49 1920 1009 vac__handle_note_off 0;
#X obj 100 230 spigot;
#X obj 100 130 trigger b f;
#X obj 300 160 expr \\$f1 == 0;
#X text 110 280 ---- Loop over all voices ---;
#X obj 100 300 trigger b;
#X obj 120 550 select 1;
#X msg 210 610 0;
#X obj 120 370 trigger b p p;
#X obj 140 580 trigger b b b;
#X text 480 520 Is this the released note?;
#X obj 140 720 select 1;
#X obj 160 750 trigger b b b;
#X msg 590 780 0;
#X text 630 780 Play note-off;
#X msg 250 610 0;
#X obj 100 100 r \$0-in-note;
#X obj 300 100 r \$0-in-velocity;
#X obj 100 160 value _\$0_noteoff_in_note;
#X obj 260 440 value _\$0_noteoff_note_voice;
#X obj 480 440 value _\$0_noteoff_note_note;
#X obj 690 440 value _\$0_noteoff_note_sustain;
#X obj 920 440 value _\$0_noteoff_note_sustenuto;
#X obj 120 520 expr _\$0_noteoff_note_note == _\$0_noteoff_in_note
;
#X obj 140 690 expr (_\$0_noteoff_note_sustain == 0) && (_\$0_noteoff_note_sustenuto
== 0), f 74;
#X text 670 690 Are sustain and sustenuto pedal released?;
#X obj 160 780 value _\$0_noteoff_note_voice;
#X obj 380 780 value _\$0_noteoff_note_note;
#X text 10 10 Handling of the note-off event;
#X obj 290 610 ./va-timer-get \$0;
#X obj 160 810 ./va-play \$0;
#X obj 470 610 r \$0-noteoff-voice-pointer;
#X obj 150 470 s \$0-noteoff-voice-pointer;
#X obj 210 640 set vac__voice velocity active time;
#X obj 100 330 ./va-foreach-voice;
#X obj 220 410 get vac__voice voice note sustain sustenuto;
#X connect 0 0 4 0;
#X connect 1 0 17 0;
#X connect 1 1 17 0;
#X connect 2 0 0 1;
#X connect 4 0 33 0;
#X connect 5 0 8 0;
#X connect 6 0 32 0;
#X connect 7 0 22 0;
#X connect 7 1 31 0;
#X connect 7 2 34 0;
#X connect 8 0 23 0;
#X connect 8 1 6 0;
#X connect 8 2 14 0;
#X connect 8 2 28 0;
#X connect 10 0 11 0;
#X connect 11 0 25 0;
#X connect 11 1 26 0;
#X connect 11 2 12 0;
#X connect 12 0 29 2;
#X connect 14 0 32 1;
#X connect 15 0 1 0;
#X connect 16 0 2 0;
#X connect 17 0 0 0;
#X connect 22 0 5 0;
#X connect 23 0 10 0;
#X connect 25 0 29 0;
#X connect 26 0 29 1;
#X connect 28 0 32 2;
#X connect 30 0 32 3;
#X connect 33 0 7 0;
#X connect 34 0 18 0;
#X connect 34 1 19 0;
#X connect 34 2 20 0;
#X connect 34 3 21 0;
#X restore 600 490 pd vac__handle_note_off;
#N canvas 0 49 1920 1009 vac__handle_sustain_on 0;
#X obj 100 158 spigot;
#X obj 100 129 trigger b f;
#X obj 120 299 select 1;
#X obj 120 240 trigger p p, f 40;
#X msg 150 370 1;
#X obj 150 330 trigger b b;
#X obj 100 100 r \$0-in-sustain;
#X obj 200 370 value _\$0_sustain_color_on;
#X text 10 10 Handling of the sustain-on event;
#X obj 100 210 ./va-foreach-voice;
#X obj 120 270 get vac__voice active;
#X obj 150 400 set vac__voice sustain sustain_color;
#X connect 0 0 9 0;
#X connect 1 0 0 0;
#X connect 1 1 0 1;
#X connect 2 0 5 0;
#X connect 3 0 10 0;
#X connect 3 1 11 2;
#X connect 4 0 11 0;
#X connect 5 0 4 0;
#X connect 5 1 7 0;
#X connect 6 0 1 0;
#X connect 7 0 11 1;
#X connect 9 0 3 0;
#X connect 10 0 2 0;
#X restore 600 520 pd vac__handle_sustain_on;
#N canvas 0 49 1920 1009 vac__handle_sustain_off 0;
#X obj 100 189 spigot;
#X obj 100 160 trigger b f;
#X obj 100 130 expr \\$f1 == 0;
#X obj 120 270 trigger b p p;
#X obj 120 419 select 1;
#X text 390 390 Is note held by the sustain pedal?;
#X msg 190 480 0;
#X text 410 540 Is the note already released?;
#X obj 140 569 select 1;
#X obj 160 600 trigger b b b;
#X msg 650 630 0;
#X obj 140 450 trigger b b b;
#X obj 100 100 r \$0-in-sustain;
#X obj 1000 330 value _\$0_sustainoff_voice_sustain;
#X obj 750 330 value _\$0_sustainoff_voice_active;
#X obj 510 330 value _\$0_sustainoff_voice_note;
#X obj 260 330 value _\$0_sustainoff_voice_voice;
#X obj 120 390 expr _\$0_sustainoff_voice_sustain > 0;
#X obj 230 480 value _\$0_sustain_color_off;
#X obj 140 540 expr _\$0_sustainoff_voice_active <= 0;
#X obj 160 630 value _\$0_sustainoff_voice_voice;
#X obj 410 630 value _\$0_sustainoff_voice_note;
#X text 10 10 Handling of the sustain-off event;
#X obj 160 660 ./va-play \$0;
#X obj 100 240 ./va-foreach-voice;
#X obj 230 300 get vac__voice voice note active sustain;
#X obj 190 510 set vac__voice sustain sustain_color;
#X obj 460 480 r \$0-sustainoff-voice-pointer;
#X obj 160 360 s \$0-sustainoff-voice-pointer;
#X connect 0 0 24 0;
#X connect 1 0 0 0;
#X connect 1 1 0 1;
#X connect 2 0 1 0;
#X connect 3 0 17 0;
#X connect 3 1 28 0;
#X connect 3 2 25 0;
#X connect 4 0 11 0;
#X connect 6 0 26 0;
#X connect 8 0 9 0;
#X connect 9 0 20 0;
#X connect 9 1 21 0;
#X connect 9 2 10 0;
#X connect 10 0 23 2;
#X connect 11 0 19 0;
#X connect 11 1 6 0;
#X connect 11 2 18 0;
#X connect 12 0 2 0;
#X connect 17 0 4 0;
#X connect 18 0 26 1;
#X connect 19 0 8 0;
#X connect 20 0 23 0;
#X connect 21 0 23 1;
#X connect 24 0 3 0;
#X connect 25 0 16 0;
#X connect 25 1 15 0;
#X connect 25 2 14 0;
#X connect 25 3 13 0;
#X connect 27 0 26 2;
#X restore 600 550 pd vac__handle_sustain_off;
#N canvas 0 49 1920 1009 vac__handle_sustenuto_on 0;
#X obj 100 158 spigot;
#X obj 100 129 trigger b f;
#X obj 120 299 select 1;
#X obj 120 240 trigger p p, f 44;
#X msg 150 370 1;
#X obj 150 330 trigger b b;
#X obj 100 100 r \$0-in-sustenuto;
#X obj 200 370 value _\$0_sustain_color_on;
#X text 10 10 Handling of the sustenuto-on event;
#X obj 100 210 ./va-foreach-voice;
#X obj 120 270 get vac__voice active;
#X obj 150 400 set vac__voice sustenuto sustenuto_color;
#X connect 0 0 9 0;
#X connect 1 0 0 0;
#X connect 1 1 0 1;
#X connect 2 0 5 0;
#X connect 3 0 10 0;
#X connect 3 1 11 2;
#X connect 4 0 11 0;
#X connect 5 0 4 0;
#X connect 5 1 7 0;
#X connect 6 0 1 0;
#X connect 7 0 11 1;
#X connect 9 0 3 0;
#X connect 10 0 2 0;
#X restore 600 580 pd vac__handle_sustenuto_on;
#N canvas 0 49 1920 1009 vac__handle_sustenuto_off 0;
#X obj 100 189 spigot;
#X obj 100 160 trigger b f;
#X obj 100 130 expr \\$f1 == 0;
#X obj 120 270 trigger b p p;
#X obj 120 419 select 1;
#X msg 190 480 0;
#X text 430 540 Is the note already released?;
#X obj 140 569 select 1;
#X obj 160 600 trigger b b b;
#X msg 670 630 0;
#X obj 140 450 trigger b b b;
#X text 420 390 Is note held by the sustenuto pedal?;
#X obj 100 100 r \$0-in-sustenuto;
#X obj 1040 330 value _\$0_sustenutooff_voice_sustenuto;
#X obj 770 330 value _\$0_sustenutooff_voice_active;
#X obj 520 330 value _\$0_sustenutooff_voice_note;
#X obj 260 330 value _\$0_sustenutooff_voice_voice;
#X obj 120 390 expr _\$0_sustenutooff_voice_sustenuto > 0;
#X obj 230 480 value _\$0_sustain_color_off;
#X obj 140 540 expr _\$0_sustenutooff_voice_active <= 0;
#X obj 420 630 value _\$0_sustenutooff_voice_note;
#X obj 160 630 value _\$0_sustenutooff_voice_voice;
#X text 10 10 Handling of the sustenuto-off event;
#X obj 160 660 ./va-play \$0;
#X obj 100 240 ./va-foreach-voice;
#X obj 230 300 get vac__voice voice note active sustenuto;
#X obj 190 510 set vac__voice sustenuto sustenuto_color;
#X obj 490 480 r \$0-sustenutooff-voice-pointer;
#X obj 160 360 s \$0-sustenutooff-voice-pointer;
#X connect 0 0 24 0;
#X connect 1 0 0 0;
#X connect 1 1 0 1;
#X connect 2 0 1 0;
#X connect 3 0 17 0;
#X connect 3 1 28 0;
#X connect 3 2 25 0;
#X connect 4 0 10 0;
#X connect 5 0 26 0;
#X connect 7 0 8 0;
#X connect 8 0 21 0;
#X connect 8 1 20 0;
#X connect 8 2 9 0;
#X connect 9 0 23 2;
#X connect 10 0 19 0;
#X connect 10 1 5 0;
#X connect 10 2 18 0;
#X connect 12 0 2 0;
#X connect 17 0 4 0;
#X connect 18 0 26 1;
#X connect 19 0 7 0;
#X connect 20 0 23 1;
#X connect 21 0 23 0;
#X connect 24 0 3 0;
#X connect 25 0 16 0;
#X connect 25 1 15 0;
#X connect 25 2 14 0;
#X connect 25 3 13 0;
#X connect 27 0 26 2;
#X restore 600 610 pd vac__handle_sustenuto_off;
#X obj 0 0 cnv 15 500 30 empty empty Improved\ Voice\ Allocator 10
12 0 14 #e0e0e0 #404040 0;
#X text 10 40 This is a drop-in replacement for PD's [poly] object.
Compared to the original it has many advantages:, f 68;
#X obj 0 200 cnv 15 500 15 empty empty Arguments 10 5 0 12 #e0e0e0
#404040 0;
#X obj 0 260 cnv 15 500 15 empty empty Isolation\ from\ other\ patches
10 5 0 12 #e0e0e0 #404040 0;
#X text 10 280 This abstraction should be fairly well isolated from
the pure data environment. However \, PD Vanilla doesn't support dollar
variables for naming sub-patches (tested with 0.54-1). Therefor we
use a vac__ prefix for the sub-patches. And while we are at it we use
the same prefix for struct templates \, even though \$0 would work
here kind of. Because this makes the code more readable and avoids
a timing dependency between the structs., f 68;
#X text 10 410 To be sure don't use the vac__ prefix in your own patch
to not accidently mess-up the voice allocator., f 68;
#X connect 8 0 12 0;
#X connect 9 0 13 0;
#X connect 10 0 14 0;
#X connect 11 0 21 0;
#X connect 20 0 6 0;
