#N struct vac__voice float x float y float voice float note float velocity
float active float time float sustain float sustenuto float bg_color
float sustain_color float sustenuto_color;
#N struct vac__main float polyphony array voices vac__voice;
#N struct egui__main float x2 float y2 float dx float dy float view
array attack egui__breakpoint array release egui__breakpoint;
#N struct egui__breakpoint float x float y float prev_x float prev_y
float enabled float selected float value float duration float starttime
;
#N canvas 0 49 1920 1009 12;
#X obj -30 -30 preset_hub k12 1 %hidden%;
#N canvas 0 49 1920 1009 global_parameters 0;
#X obj 430 270 vsl 20 128 0 1 0 0 p-glb-volume empty empty 0 -11 0
12 #f0aa64 #a54141 #000000 12700 1 0 1;
#X msg 410 180 set \$1;
#X obj 840 270 vsl 20 128 0 1 0 0 in-expression empty empty 0 -11 0
12 #4078b4 #a5cdf8 #000000 12700 1 0 1;
#X msg 1030 180 set \$1;
#X obj 430 470 hsl 128 19 -1 1 0 0 p-glb-balance empty empty -2 -8
0 10 #f0aa64 #a54141 #000000 6350 1 0 1;
#X msg 450 570 set \$1;
#X floatatom 520 410 5 0 48 3 Pitchbend_Range - p-glb-pbrange 0 0 1
, f 5;
#X msg 560 180 set \$1;
#X floatatom 430 410 5 0 1 3 Volume - p-glb-volume 0 0 1, f 5;
#X floatatom 840 410 5 0 1 3 Expression - in-expression 0 0 1, f 5
;
#X floatatom 570 470 5 -1 1 3 Balance - p-glb-balance 0 0 1, f 5;
#X obj 660 270 vsl 20 128 -1 1 0 0 in-pitchbend empty empty 0 -9 0
10 #4078b4 #a5cdf8 #000000 6350 1 0 1;
#X msg 740 180 set \$1;
#X floatatom 659 410 5 -1 1 3 Pitchbend - in-pitchbend 0 0 1, f 5
;
#X obj 740 500 tgl 20 0 in-sustain empty Sustain 24 7 0 12 #fcfcfc
#be0000 #000000 0 0.598425 1;
#X obj 830 500 tgl 20 0 in-sustenuto empty Sustenuto 24 7 0 12 #fcfcfc
#be0000 #000000 0 1 1;
#X msg 680 570 set \$1;
#X msg 800 570 set \$1;
#X obj 750 270 vsl 20 128 0 1 0 0 in-modulation empty empty 0 -9 0
10 #4078b4 #a5cdf8 #000000 0 1 0 1;
#X floatatom 750 410 5 0 1 3 Modulation - in-modulation 0 0 1, f 5
;
#X msg 880 180 set \$1;
#X obj 420 240 cnv 15 220 15 empty empty Global\ Parameters 4 6 0 12
#e0e0e0 #404040 0;
#X obj 1100 270 loadbang;
#X obj 520 270 vsl 20 128 0 48 0 0 p-glb-pbrange empty empty 0 -9 0
10 #2f6036 #a6c5a6 #000000 529 1 0 1;
#X obj 650 240 cnv 15 270 15 empty empty Input\ Monitor 4 6 0 12 #e0e0e0
#404040 0;
#X obj 410 150 r p-glb-volume;
#X obj 560 150 r p-glb-pbrange;
#X obj 740 150 r in-pitchbend;
#X obj 880 150 r in-modulation;
#X obj 1030 150 r in-expression;
#X obj 680 540 r in-sustain;
#X obj 800 540 r in-sustenuto;
#X msg 1100 300 \; in-expression 1 \; in-pitchbend 0 \; in-modulation
0 \; in-sustain 0 \; in-sustenuto 0 \;;
#X obj 300 270 vu 15 200 empty empty -1 -8 0 10 #404040 #000000 1 0
;
#X obj 180 150 r out-vu-rms1;
#X obj 180 180 r out-vu-rms2;
#X obj 360 270 vu 15 200 empty empty -1 -8 0 10 #404040 #000000 1 0
;
#X obj 290 150 r out-vu-peak1;
#X obj 290 180 r out-vu-peak2;
#X obj 290 240 cnv 15 120 15 empty empty Audio\ Output 4 6 0 12 #e0e0e0
#404040 0;
#X floatatom 300 480 5 -100 36 3 Master_Volume - p-out-mastervolume
0 0 1, f 5;
#X text 340 480 dB;
#X obj 110 420 r p-out-mastervolume;
#X msg 110 449 set \$1;
#X obj 450 540 r p-glb-balance;
#X connect 1 0 8 0;
#X connect 1 0 0 0;
#X connect 3 0 9 0;
#X connect 3 0 2 0;
#X connect 5 0 10 0;
#X connect 5 0 4 0;
#X connect 7 0 23 0;
#X connect 7 0 6 0;
#X connect 12 0 11 0;
#X connect 12 0 13 0;
#X connect 16 0 14 0;
#X connect 17 0 15 0;
#X connect 18 0 19 0;
#X connect 20 0 18 0;
#X connect 20 0 19 0;
#X connect 22 0 32 0;
#X connect 25 0 1 0;
#X connect 26 0 7 0;
#X connect 27 0 12 0;
#X connect 28 0 20 0;
#X connect 29 0 3 0;
#X connect 30 0 16 0;
#X connect 31 0 17 0;
#X connect 34 0 33 0;
#X connect 35 0 36 0;
#X connect 37 0 33 1;
#X connect 38 0 36 1;
#X connect 42 0 43 0;
#X connect 43 0 40 0;
#X connect 44 0 5 0;
#X coords 0 -1 1 1 650 300 2 280 230;
#X restore 10 80 pd global_parameters;
#N canvas 0 49 1920 1009 fx_parameters 0;
#X obj 880 280 vsl 20 128 0 100 0 0 p-rev-length empty empty 0 -11
0 12 #f4f4d7 #dd9e55 #000000 4191 1 0 1;
#X msg 970 200 set \$1;
#X floatatom 880 420 5 0 100 3 Length - p-rev-length 0 0 1, f 5;
#X obj 1590 379 loadbang;
#X obj 860 250 cnv 15 270 15 empty empty Reverb 4 6 0 12 #e0e0e0 #404040
0;
#X text 920 420 %;
#X obj 960 280 vsl 20 128 0 9999 0 0 p-rev-crossover empty empty 0
-11 0 12 #f4f4d7 #dd9e55 #000000 3810 1 0 1;
#X msg 1110 200 set \$1;
#X floatatom 960 420 5 0 9999 3 Crossover - p-rev-crossover 0 0 1,
f 5;
#X text 1000 420 Hz;
#X obj 1040 280 vsl 20 128 0 100 0 0 p-rev-hfdamping empty empty 0
-11 0 12 #f4f4d7 #dd9e55 #000000 0 1 0 1;
#X msg 1270 200 set \$1;
#X floatatom 1040 420 5 0 20000 3 HF_Damping - p-rev-hfdamping 0 0
1, f 5;
#X text 1080 420 %;
#X obj 880 480 hsl 128 19 -1 1 0 0 p-rev-drywet empty empty -2 -8 0
10 #fbf6b1 #bda76b #000000 11112 1 0 1;
#X msg 1160 510 set \$1;
#X floatatom 1020 480 5 -1 1 3 Dry/Wet - p-rev-drywet 0 0 1, f 5;
#X obj 690 280 vsl 20 128 0 20 0 0 p-cho-width empty empty 0 -11 0
12 #d7def4 #5555dc #000000 1143 1 0 1;
#X msg 730 200 set \$1;
#X floatatom 690 420 5 0 20 3 Width - p-cho-width 0 0 1, f 5;
#X obj 490 250 cnv 15 360 15 empty empty Chorus 4 6 0 12 #e0e0e0 #404040
0;
#X obj 510 280 vsl 20 128 0 20 0 0 p-cho-frequency empty empty 0 -11
0 12 #d7def4 #5555dc #000000 952 1 0 1;
#X msg 470 200 set \$1;
#X floatatom 510 420 5 0 20 3 Frequency - p-cho-frequency 0 0 1, f
5;
#X text 550 420 Hz;
#X obj 510 480 hsl 128 19 -1 1 0 0 p-cho-drywet empty empty -2 -8 0
10 #98acdd #516594 #000000 11112 1 0 1;
#X msg 350 490 set \$1;
#X floatatom 650 480 5 -1 1 3 Dry/Wet - p-cho-drywet 0 0 1, f 5;
#X obj 780 280 vsl 20 128 0 100 0 0 p-cho-feedback empty empty 0 -11
0 12 #d7def4 #5555dc #000000 0 1 0 1;
#X msg 840 200 set \$1;
#X floatatom 780 420 5 0 100 3 Feedback - p-cho-feedback 0 0 1, f
5;
#X text 820 420 %;
#X obj 880 510 tgl 20 0 p-rev-enabled empty Reverb\ enabled 24 7 0
12 #fcfcfc #000000 #000000 1 1 1;
#X msg 920 580 set \$1;
#X obj 510 510 tgl 20 0 p-cho-enabled empty Chorus\ enabled 24 7 0
12 #fcfcfc #000000 #000000 1 1 1;
#X msg 540 579 set \$1;
#X obj 1590 180 loadbang;
#X obj 470 170 r p-cho-frequency;
#X obj 730 170 r p-cho-width;
#X obj 840 170 r p-cho-feedback;
#X obj 970 170 r p-rev-length;
#X obj 1110 170 r p-rev-crossover;
#X obj 1270 170 r p-rev-hfdamping;
#X obj 350 460 r p-cho-drywet;
#X obj 540 550 r p-cho-enabled;
#X obj 1160 480 r p-rev-drywet;
#X obj 920 550 r p-rev-enabled;
#X msg 1590 409 \; p-rev-length 33 \; p-rev-crossover 3000 \; p-rev-hfdamping
20 \; p-rev-drywet 0 \; p-rev-enabled 1 \;;
#X text 730 420 ms;
#X obj 600 280 vsl 20 128 0 30 0 0 p-cho-delay empty empty 0 -11 0
12 #d7def4 #5555dc #000000 12700 1 0 1;
#X msg 620 200 set \$1;
#X floatatom 600 420 5 0 30 3 Delay - p-cho-delay 0 0 1, f 5;
#X text 640 420 ms;
#X obj 620 170 r p-cho-delay;
#X msg 1590 209 \; p-cho-frequency 1.5 \; p-cho-delay 30 \; p-cho-width
1.8 \; p-cho-feedback 0 \; p-cho-drywet 0.75 \; p-cho-enabled 1 \;
;
#X connect 1 0 0 0;
#X connect 1 0 2 0;
#X connect 3 0 47 0;
#X connect 7 0 8 0;
#X connect 7 0 6 0;
#X connect 11 0 10 0;
#X connect 11 0 12 0;
#X connect 15 0 16 0;
#X connect 15 0 14 0;
#X connect 18 0 17 0;
#X connect 18 0 19 0;
#X connect 22 0 21 0;
#X connect 22 0 23 0;
#X connect 26 0 27 0;
#X connect 26 0 25 0;
#X connect 29 0 28 0;
#X connect 29 0 30 0;
#X connect 33 0 32 0;
#X connect 35 0 34 0;
#X connect 36 0 54 0;
#X connect 37 0 22 0;
#X connect 38 0 18 0;
#X connect 39 0 29 0;
#X connect 40 0 1 0;
#X connect 41 0 7 0;
#X connect 42 0 11 0;
#X connect 43 0 26 0;
#X connect 44 0 35 0;
#X connect 45 0 15 0;
#X connect 46 0 33 0;
#X connect 50 0 49 0;
#X connect 50 0 51 0;
#X connect 53 0 50 0;
#X coords 0 -1 1 1 660 300 2 480 240;
#X restore 670 80 pd fx_parameters;
#N canvas 0 49 1920 1009 dsp 0;
#X obj 0 0 cnv 15 1320 60 empty empty MiniClavier\ (PD) 20 23 0 30
#144678 #f5f5f5 0;
#X obj 970 18 bng 25 250 50 0 cmd-load-preset empty Load\ Preset 30
10 0 15 #144678 #79d9ec #f5f5f5 1;
#X obj 810 18 bng 25 250 50 0 cmd-save-preset empty Save\ Preset 30
10 0 15 #144678 #79d9ec #f5f5f5 1;
#X obj 10 80 ./main1;
#X text 100 80 <-- Synth enginge + preset handling;
#X obj 1130 18 bng 25 250 50 0 cmd-reset-parameters empty Reset\ Parameters
30 10 0 15 #144678 #79d9ec #f5f5f5 1;
#X coords 0 -1 1 1 1320 60 2 0 0;
#X restore 10 10 pd dsp;
#N canvas 0 49 1920 1009 partial_parameters 0;
#X obj 700 400 cnv 15 1320 30 empty empty Partial 80 12 0 14 #144678
#f5f5f5 0;
#X obj 710 407 hradio 16 0 0 4 ui-partial empty empty 0 -8 0 10 #5783b2
#000000 #000000 0 1;
#X obj 710 330 r ui-partial;
#X msg 710 359 set \$1;
#X obj 710 470 tgl 20 0 p-px-enabled empty Enabled 24 7 0 12 #fcfcfc
#000000 #000000 1 1 1;
#X msg 580 330 set \$1;
#X obj 580 300 r p-px-enabled;
#X obj 10 399 bng 20 250 50 0 empty empty empty 17 7 0 10 #fcfcfc #000000
#000000 1;
#X obj 10 460 s ui-partial;
#X msg 10 430 0;
#X obj 10 370 r reinit;
#X obj 10 510 r ui-partial;
#X msg 70 870 restore-values;
#X obj 10 580 trigger f b;
#X obj 70 900 send;
#X text 20 560 ---- Save current values in preset manager memory ----
;
#X text 20 690 ---- Restore values from selected partial's preset manager
----, f 64;
#X obj 100 810 s ui-selected-partial;
#X obj 10 810 trigger f f;
#X msg 40 610 store-values;
#X obj 40 640 s ui-partial-0;
#X obj 400 640 s ui-partial-3;
#X obj 280 640 s ui-partial-2;
#X obj 160 640 s ui-partial-1;
#X obj 10 60 ./ui-partial 0;
#X obj 10 90 ./ui-partial 1;
#X obj 10 120 ./ui-partial 2;
#X obj 10 150 ./ui-partial 3;
#X msg 580 420 set \$1;
#X obj 710 560 hsl 128 19 -1 1 0 0 p-px-panorama empty empty -2 -8
0 10 #f0aa64 #a54141 #000000 6350 1 0 1;
#X msg 580 490 set \$1;
#X floatatom 850 510 5 0 10 3 Volume - p-px-volume 0 0 1, f 5;
#X floatatom 850 560 5 -1 1 3 Panorama - p-px-panorama 0 0 1, f 5
;
#X obj 710 440 cnv 15 250 15 empty empty Partial\ Parameters 4 6 0
12 #e0e0e0 #404040 0;
#X obj 580 390 r p-px-volume;
#X obj 710 510 hsl 128 19 0 10 0 0 p-px-volume empty empty -2 -8 0
10 #f0aa64 #a54141 #000000 1270 1 0 1;
#X obj 970 440 cnv 15 620 15 empty empty Carrier 4 6 0 12 #e0e0e0 #404040
0;
#X obj 1060 530 vsl 20 128 0 1 0 0 p-px-car1-volume empty empty 0 -9
0 10 #cdafaf #825050 #000000 12700 1 0 1;
#X msg 1060 270 set \$1;
#X obj 1060 240 r p-px-car1-volume;
#X floatatom 1060 670 5 0 1 3 - - p-px-car1-volume 0 0 1, f 5;
#X obj 1060 500 tgl 20 0 p-px-car1-enabled empty empty 0 27 0 12 #ffffff
#000000 #000000 1 1 1;
#X text 980 530 Volume;
#X text 980 500 Enabled;
#X msg 1060 200 set \$1;
#X obj 1060 170 r p-px-car1-enabled;
#X obj 1120 530 vsl 20 128 0 1 0 0 p-px-car2-volume empty empty 0 -9
0 10 #cdafaf #825050 #000000 0 1 0 1;
#X msg 1240 270 set \$1;
#X floatatom 1120 670 5 0 1 3 - - p-px-car2-volume 0 0 1, f 5;
#X obj 1120 500 tgl 20 0 p-px-car2-enabled empty empty 0 27 0 12 #ffffff
#000000 #000000 0 1 1;
#X msg 1240 200 set \$1;
#X obj 1180 530 vsl 20 128 0 1 0 0 p-px-car3-volume empty empty 0 -9
0 10 #cdafaf #825050 #000000 0 1 0 1;
#X msg 1410 270 set \$1;
#X floatatom 1180 670 5 0 1 3 - - p-px-car3-volume 0 0 1, f 5;
#X obj 1180 500 tgl 20 0 p-px-car3-enabled empty empty 0 27 0 12 #ffffff
#000000 #000000 0 1 1;
#X msg 1410 200 set \$1;
#X obj 1240 530 vsl 21 128 0 1 0 0 p-px-car4-volume empty empty 0 -9
0 10 #cdafaf #825050 #000000 0 1 0 1;
#X msg 1580 270 set \$1;
#X floatatom 1240 670 5 0 1 3 - - p-px-car4-volume 0 0 1, f 5;
#X obj 1240 500 tgl 20 0 p-px-car4-enabled empty empty 0 27 0 12 #ffffff
#000000 #000000 0 1 1;
#X msg 1580 200 set \$1;
#X obj 1300 530 vsl 20 128 0 1 0 0 p-px-car5-volume empty empty 0 -9
0 10 #cdafaf #825050 #000000 0 1 0 1;
#X msg 1750 270 set \$1;
#X floatatom 1300 670 5 0 1 3 - - p-px-car5-volume 0 0 1, f 5;
#X obj 1300 500 tgl 20 0 p-px-car5-enabled empty empty 0 27 0 12 #ffffff
#000000 #000000 0 1 1;
#X msg 1750 200 set \$1;
#X obj 1360 530 vsl 20 128 0 1 0 0 p-px-car6-volume empty empty 0 -9
0 10 #cdafaf #825050 #000000 0 1 0 1;
#X msg 1930 270 set \$1;
#X floatatom 1360 670 5 0 1 3 - - p-px-car6-volume 0 0 1, f 5;
#X obj 1360 500 tgl 20 0 p-px-car6-enabled empty empty 0 27 0 12 #ffffff
#000000 #000000 0 1 1;
#X msg 1930 200 set \$1;
#X obj 1420 530 vsl 20 128 0 1 0 0 p-px-car7-volume empty empty 0 -9
0 10 #cdafaf #825050 #000000 0 1 0 1;
#X msg 2100 270 set \$1;
#X floatatom 1420 670 5 0 1 3 - - p-px-car7-volume 0 0 1, f 5;
#X obj 1420 500 tgl 20 0 p-px-car7-enabled empty empty 0 27 0 12 #ffffff
#000000 #000000 0 1 1;
#X msg 2100 200 set \$1;
#X obj 1480 530 vsl 20 128 0 1 0 0 p-px-car8-volume empty empty 0 -9
0 10 #cdafaf #825050 #000000 0 1 0 1;
#X msg 2270 270 set \$1;
#X floatatom 1480 670 5 0 1 3 - - p-px-car8-volume 0 0 1, f 5;
#X obj 1480 500 tgl 20 0 p-px-car8-enabled empty empty 0 27 0 12 #ffffff
#000000 #000000 0 1 1;
#X msg 2270 200 set \$1;
#X obj 1240 240 r p-px-car2-volume;
#X obj 1240 170 r p-px-car2-enabled;
#X obj 1410 240 r p-px-car3-volume;
#X obj 1410 170 r p-px-car3-enabled;
#X obj 1580 240 r p-px-car4-volume;
#X obj 1580 170 r p-px-car4-enabled;
#X obj 1750 240 r p-px-car5-volume;
#X obj 1750 170 r p-px-car5-enabled;
#X obj 1930 240 r p-px-car6-volume;
#X obj 1930 170 r p-px-car6-enabled;
#X obj 2100 240 r p-px-car7-volume;
#X obj 2100 170 r p-px-car7-enabled;
#X obj 2270 240 r p-px-car8-volume;
#X obj 2270 170 r p-px-car8-enabled;
#X obj 1060 700 vradio 20 0 0 4 p-px-car1-waveform empty empty 0 -8
0 10 #ffffff #000000 #000000 0 1;
#X text 980 700 Sine;
#X text 980 740 Square;
#X obj 1120 700 vradio 20 0 0 4 p-px-car2-waveform empty empty 0 -8
0 10 #ffffff #000000 #000000 0 1;
#X obj 1180 700 vradio 20 0 0 4 p-px-car3-waveform empty empty 0 -8
0 10 #ffffff #000000 #000000 0 1;
#X obj 1240 700 vradio 20 0 0 4 p-px-car4-waveform empty empty 0 -8
0 10 #ffffff #000000 #000000 0 1;
#X obj 1300 700 vradio 20 0 0 4 p-px-car5-waveform empty empty 0 -8
0 10 #ffffff #000000 #000000 0 1;
#X obj 1360 700 vradio 20 0 0 4 p-px-car6-waveform empty empty 0 -8
0 10 #ffffff #000000 #000000 0 1;
#X obj 1420 700 vradio 20 0 0 4 p-px-car7-waveform empty empty 0 -8
0 10 #ffffff #000000 #000000 0 1;
#X obj 1480 700 vradio 20 0 0 4 p-px-car8-waveform empty empty 0 -8
0 10 #ffffff #000000 #000000 0 1;
#X msg 1060 340 set \$1;
#X obj 1060 310 r p-px-car1-waveform;
#X msg 1240 340 set \$1;
#X msg 1410 340 set \$1;
#X msg 1580 340 set \$1;
#X msg 1750 340 set \$1;
#X msg 1930 340 set \$1;
#X msg 2100 340 set \$1;
#X msg 2270 340 set \$1;
#X obj 1240 310 r p-px-car2-waveform;
#X obj 1410 310 r p-px-car3-waveform;
#X obj 1580 310 r p-px-car4-waveform;
#X obj 1750 310 r p-px-car5-waveform;
#X obj 1930 310 r p-px-car6-waveform;
#X obj 2100 310 r p-px-car7-waveform;
#X obj 2270 310 r p-px-car8-waveform;
#X text 980 670 Volume;
#X obj 1600 440 cnv 15 410 15 empty empty Modulator 4 6 0 12 #e0e0e0
#404040 0;
#X obj 1610 530 vsl 20 128 0 1 0 0 p-px-mod1-volume empty empty 0 -9
0 10 #f5f5be #969600 #000000 12700 1 0 1;
#X msg 2670 270 set \$1;
#X floatatom 1610 670 5 0 1 3 - - p-px-mod1-volume 0 0 1, f 5;
#X obj 1610 500 tgl 20 0 p-px-mod1-enabled empty empty 0 27 0 12 #ffffff
#000000 #000000 1 1 1;
#X msg 2670 200 set \$1;
#X obj 1671 530 vsl 20 128 0 1 0 0 p-px-mod2-volume empty empty 0 -9
0 10 #f5f5be #969600 #000000 0 1 0 1;
#X msg 2850 270 set \$1;
#X floatatom 1671 670 5 0 1 3 - - p-px-mod2-volume 0 0 1, f 5;
#X obj 1670 500 tgl 20 0 p-px-mod2-enabled empty empty 0 27 0 12 #ffffff
#000000 #000000 0 1 1;
#X msg 2850 200 set \$1;
#X obj 1730 530 vsl 20 128 0 1 0 0 p-px-mod3-volume empty empty 0 -9
0 10 #f5f5be #969600 #000000 0 1 0 1;
#X msg 3020 270 set \$1;
#X floatatom 1730 670 5 0 1 3 - - p-px-mod3-volume 0 0 1, f 5;
#X obj 1730 500 tgl 20 0 p-px-mod3-enabled empty empty 0 27 0 12 #ffffff
#000000 #000000 0 1 1;
#X msg 3020 200 set \$1;
#X obj 1790 530 vsl 20 128 0 1 0 0 p-px-mod4-volume empty empty 0 -9
0 10 #f5f5be #969600 #000000 0 1 0 1;
#X msg 3190 270 set \$1;
#X floatatom 1790 670 5 0 1 3 - - p-px-mod4-volume 0 0 1, f 5;
#X obj 1790 500 tgl 20 0 p-px-mod4-enabled empty empty 0 27 0 12 #ffffff
#000000 #000000 0 1 1;
#X msg 3190 200 set \$1;
#X obj 1610 700 vradio 20 0 0 4 p-px-mod1-waveform empty empty 0 -8
0 10 #ffffff #000000 #000000 0 1;
#X obj 1670 700 vradio 20 0 0 4 p-px-mod2-waveform empty empty 0 -8
0 10 #ffffff #000000 #000000 0 1;
#X obj 1730 700 vradio 20 0 0 4 p-px-mod3-waveform empty empty 0 -8
0 10 #ffffff #000000 #000000 0 1;
#X obj 1790 700 vradio 20 0 0 4 p-px-mod4-waveform empty empty 0 -8
0 10 #ffffff #000000 #000000 0 1;
#X msg 2670 340 set \$1;
#X msg 2850 340 set \$1;
#X msg 3020 340 set \$1;
#X msg 3190 340 set \$1;
#X obj 2670 170 r p-px-mod1-enabled;
#X obj 2850 170 r p-px-mod2-enabled;
#X obj 3020 170 r p-px-mod3-enabled;
#X obj 3190 170 r p-px-mod4-enabled;
#X obj 3192 239 r p-px-mod4-volume;
#X obj 3022 239 r p-px-mod3-volume;
#X obj 2850 240 r p-px-mod2-volume;
#X obj 2672 239 r p-px-mod1-volume;
#X obj 2670 310 r p-px-mod1-waveform;
#X obj 2850 310 r p-px-mod2-waveform;
#X obj 3022 309 r p-px-mod3-waveform;
#X obj 3190 310 r p-px-mod4-waveform;
#X msg 190 870 symbol ui-partial-\$1;
#X text 980 470 Harmonic;
#X text 1060 470 1;
#X text 1120 470 2;
#X text 1180 470 3;
#X text 1240 470 4;
#X text 1300 470 5;
#X text 1360 470 6;
#X text 1420 470 7;
#X text 1480 470 8;
#X text 1610 470 1;
#X text 1670 470 2;
#X text 1730 470 3;
#X text 1790 470 4;
#X obj 710 610 hsl 128 19 -24 24 0 0 p-px-transpose empty empty -2
-8 0 10 #aae1eb #4155a5 #000000 6350 1 0 1;
#X msg 580 560 set \$1;
#X floatatom 850 610 5 -24 24 3 Transpose - p-px-transpose 0 0 1,
f 5;
#X obj 580 530 r p-px-transpose;
#X obj 1540 530 vsl 20 128 0 1 0 0 p-px-car-noise-volume empty empty
0 -9 0 10 #faebeb #bf7d7d #000000 0 1 0 1;
#X msg 2440 270 set \$1;
#X floatatom 1540 670 5 0 1 3 - - p-px-car-noise-volume 0 0 1, f 5
;
#X obj 1540 500 tgl 20 0 p-px-car-noise-enabled empty empty 0 27 0
12 #ffffff #000000 #000000 0 1 1;
#X msg 2440 200 set \$1;
#X obj 2440 170 r p-px-car-noise-enabled;
#X obj 2440 240 r p-px-car-noise-volume;
#X text 1540 470 Noise;
#X obj 1850 530 vsl 20 128 0 1 0 0 p-px-mod-noise-volume empty empty
0 -9 0 10 #f9f9d7 #a6a64e #000000 0 1 0 1;
#X msg 3360 270 set \$1;
#X floatatom 1850 670 5 0 1 3 - - p-px-mod-noise-volume 0 0 1, f 5
;
#X obj 1850 500 tgl 20 0 p-px-mod-noise-enabled empty empty 0 27 0
12 #ffffff #000000 #000000 0 1 1;
#X msg 3360 200 set \$1;
#X text 1850 470 Noise;
#X obj 3360 170 r p-px-mod-noise-enabled;
#X obj 3362 239 r p-px-mod-noise-volume;
#X text 980 760 Triangle;
#X msg 740 230 set \$1;
#X floatatom 1060 800 5 0 10 3 Frequency - p-px-car-frequency 0 0 1
, f 5;
#X obj 740 200 r p-px-car-frequency;
#X msg 900 230 set \$1;
#X floatatom 1150 800 5 0 0 3 Detune - p-px-car-detune 0 0 1, f 5
;
#X obj 900 200 r p-px-car-detune;
#X msg 2040 690 set \$1;
#X floatatom 1610 800 5 0 1 3 Volume - p-px-mod-volume 0 0 1, f 5
;
#X msg 2040 770 set \$1;
#X floatatom 1680 800 5 0 10 3 Frequency - p-px-mod-frequency 0 0 1
, f 5;
#X msg 2210 770 set \$1;
#X floatatom 1770 800 5 0 0 3 Detune - p-px-mod-detune 0 0 1, f 5
;
#X obj 2040 660 r p-px-mod-volume;
#X obj 2040 740 r p-px-mod-frequency;
#X obj 2210 740 r p-px-mod-detune;
#X obj 710 660 hsl 128 19 -100 100 0 0 p-px-detune empty empty -2 -8
0 10 #aae1eb #4155a5 #000000 6350 1 0 1;
#X msg 580 630 set \$1;
#X floatatom 850 660 5 -100 100 3 Detune - p-px-detune 0 0 1, f 5
;
#X obj 580 600 r p-px-detune;
#X text 890 660 Cents;
#X text 980 720 Sawtooth;
#X obj 580 460 r p-px-panorama;
#X text 1190 800 Hz;
#X text 1810 800 Hz;
#X obj 710 720 cnv 15 250 15 empty empty Filters 4 7 0 12 #e0e0e0 #404040
0;
#X msg 490 700 set \$1;
#X floatatom 850 760 5 0 20 3 Cutoff - p-px-car-flt-cutoff 0 0 1,
f 5;
#X msg 490 770 set \$1;
#X floatatom 850 810 5 0 1 3 Q - p-px-car-flt-qfactor 0 0 1, f 5;
#X obj 490 670 r p-px-car-flt-cutoff;
#X obj 490 740 r p-px-car-flt-qfactor;
#X msg 490 840 set \$1;
#X obj 490 810 r p-px-car-flt-type;
#X msg 490 920 set \$1;
#X floatatom 850 870 5 0 20 3 Cutoff - p-px-mod-flt-cutoff 0 0 1,
f 5;
#X msg 490 990 set \$1;
#X floatatom 850 920 5 0 1 3 Q - p-px-mod-flt-qfactor 0 0 1, f 5;
#X msg 490 1060 set \$1;
#X obj 490 1030 r p-px-mod-flt-type;
#X obj 490 890 r p-px-mod-flt-cutoff;
#X obj 490 960 r p-px-mod-flt-qfactor;
#X obj 910 760 vradio 20 0 0 4 p-px-car-flt-type empty empty 0 -8 0
10 #fcfcfc #000000 #000000 0 1;
#X text 940 760 NO;
#X text 940 780 LP;
#X text 940 800 HP;
#X text 940 820 BP;
#X text 710 740 Carrier;
#X obj 910 870 vradio 20 0 0 4 p-px-mod-flt-type empty empty 0 -8 0
10 #fcfcfc #000000 #000000 0 1;
#X text 940 870 NO;
#X text 940 890 LP;
#X text 940 910 HP;
#X text 940 930 BP;
#X obj 710 760 hsl 128 20 0.1 10 1 0 p-px-car-flt-cutoff empty empty
-2 -8 0 10 #d7e6be #286024 #000000 12700 1 0 1;
#X obj 710 810 hsl 128 20 0 1 0 0 p-px-car-flt-qfactor empty empty
-2 -8 0 10 #d7e6be #286024 #000000 12700 1 0 1;
#X obj 710 870 hsl 128 20 0.1 10 1 0 p-px-mod-flt-cutoff empty empty
-2 -8 0 10 #d7e6be #286024 #000000 0 1 0 1;
#X text 710 850 Modulator;
#X obj 710 920 hsl 128 20 0 1 0 0 p-px-mod-flt-qfactor empty empty
-2 -8 0 10 #d7e6be #286024 #000000 0 1 0 1;
#X obj 40 770 s ui-change-visible-partial;
#X msg 40 740 1;
#X obj 40 970 s ui-change-visible-partial;
#X msg 40 940 0;
#X obj 10 710 trigger f b;
#X obj 10 200 r pre-init;
#X obj 10 320 s ui-change-visible-partial;
#X msg 10 290 0;
#X obj 10 230 bng 20 250 50 0 empty empty empty 17 7 0 10 #fcfcfc #000000
#000000 1;
#X obj 1060 860 ./envgen/envgen-gui Volume p-px-car-aenv1 p-px-car-aenv2
;
#X obj 1060 1130 ./envgen/envgen-gui Filter_CutOff p-px-car-fenv1 p-px-car-fenv2
;
#X obj 1610 860 ./envgen/envgen-gui Volume p-px-mod-aenv1 p-px-mod-aenv2
;
#X obj 10 10 ./envgen/envgen-gui-structs;
#X obj 220 320 s egui-initialize;
#X obj 10 840 trigger b b b f;
#X obj 1610 1130 ./envgen/envgen-gui Filter_CutOff p-px-mod-fenv1 p-px-mod-fenv2
;
#X obj 10 259 trigger b b;
#X connect 2 0 3 0;
#X connect 3 0 1 0;
#X connect 5 0 4 0;
#X connect 6 0 5 0;
#X connect 7 0 9 0;
#X connect 9 0 8 0;
#X connect 10 0 7 0;
#X connect 11 0 13 0;
#X connect 12 0 14 0;
#X connect 13 0 259 0;
#X connect 13 1 19 0;
#X connect 18 0 269 0;
#X connect 18 1 17 0;
#X connect 19 0 20 0;
#X connect 19 0 23 0;
#X connect 19 0 22 0;
#X connect 19 0 21 0;
#X connect 28 0 35 0;
#X connect 28 0 31 0;
#X connect 30 0 32 0;
#X connect 30 0 29 0;
#X connect 34 0 28 0;
#X connect 38 0 37 0;
#X connect 38 0 40 0;
#X connect 39 0 38 0;
#X connect 44 0 41 0;
#X connect 45 0 44 0;
#X connect 47 0 46 0;
#X connect 47 0 48 0;
#X connect 50 0 49 0;
#X connect 52 0 51 0;
#X connect 52 0 53 0;
#X connect 55 0 54 0;
#X connect 57 0 56 0;
#X connect 57 0 58 0;
#X connect 60 0 59 0;
#X connect 62 0 61 0;
#X connect 62 0 63 0;
#X connect 65 0 64 0;
#X connect 67 0 68 0;
#X connect 67 0 66 0;
#X connect 70 0 69 0;
#X connect 72 0 71 0;
#X connect 72 0 73 0;
#X connect 75 0 74 0;
#X connect 77 0 78 0;
#X connect 77 0 76 0;
#X connect 80 0 79 0;
#X connect 81 0 47 0;
#X connect 82 0 50 0;
#X connect 83 0 52 0;
#X connect 84 0 55 0;
#X connect 85 0 57 0;
#X connect 86 0 60 0;
#X connect 87 0 62 0;
#X connect 88 0 65 0;
#X connect 89 0 67 0;
#X connect 90 0 70 0;
#X connect 91 0 72 0;
#X connect 92 0 75 0;
#X connect 93 0 77 0;
#X connect 94 0 80 0;
#X connect 105 0 95 0;
#X connect 106 0 105 0;
#X connect 107 0 98 0;
#X connect 108 0 99 0;
#X connect 109 0 100 0;
#X connect 110 0 101 0;
#X connect 111 0 102 0;
#X connect 112 0 103 0;
#X connect 113 0 104 0;
#X connect 114 0 107 0;
#X connect 115 0 108 0;
#X connect 116 0 109 0;
#X connect 117 0 110 0;
#X connect 118 0 111 0;
#X connect 119 0 112 0;
#X connect 120 0 113 0;
#X connect 124 0 123 0;
#X connect 124 0 125 0;
#X connect 127 0 126 0;
#X connect 129 0 128 0;
#X connect 129 0 130 0;
#X connect 132 0 131 0;
#X connect 134 0 133 0;
#X connect 134 0 135 0;
#X connect 137 0 136 0;
#X connect 139 0 138 0;
#X connect 139 0 140 0;
#X connect 142 0 141 0;
#X connect 147 0 143 0;
#X connect 148 0 144 0;
#X connect 149 0 145 0;
#X connect 150 0 146 0;
#X connect 151 0 127 0;
#X connect 152 0 132 0;
#X connect 153 0 137 0;
#X connect 154 0 142 0;
#X connect 155 0 139 0;
#X connect 156 0 134 0;
#X connect 157 0 129 0;
#X connect 158 0 124 0;
#X connect 159 0 147 0;
#X connect 160 0 148 0;
#X connect 161 0 149 0;
#X connect 162 0 150 0;
#X connect 163 0 14 1;
#X connect 178 0 179 0;
#X connect 178 0 177 0;
#X connect 180 0 178 0;
#X connect 182 0 183 0;
#X connect 182 0 181 0;
#X connect 185 0 184 0;
#X connect 186 0 185 0;
#X connect 187 0 182 0;
#X connect 190 0 189 0;
#X connect 190 0 191 0;
#X connect 193 0 192 0;
#X connect 195 0 193 0;
#X connect 196 0 190 0;
#X connect 198 0 199 0;
#X connect 200 0 198 0;
#X connect 201 0 202 0;
#X connect 203 0 201 0;
#X connect 204 0 205 0;
#X connect 206 0 207 0;
#X connect 208 0 209 0;
#X connect 210 0 204 0;
#X connect 211 0 206 0;
#X connect 212 0 208 0;
#X connect 214 0 215 0;
#X connect 214 0 213 0;
#X connect 216 0 214 0;
#X connect 219 0 30 0;
#X connect 223 0 224 0;
#X connect 223 0 250 0;
#X connect 225 0 226 0;
#X connect 225 0 251 0;
#X connect 227 0 223 0;
#X connect 228 0 225 0;
#X connect 229 0 239 0;
#X connect 230 0 229 0;
#X connect 231 0 232 0;
#X connect 233 0 234 0;
#X connect 235 0 245 0;
#X connect 236 0 235 0;
#X connect 237 0 231 0;
#X connect 238 0 233 0;
#X connect 256 0 255 0;
#X connect 258 0 257 0;
#X connect 259 0 18 0;
#X connect 259 1 256 0;
#X connect 260 0 263 0;
#X connect 262 0 261 0;
#X connect 263 0 271 0;
#X connect 269 1 258 0;
#X connect 269 2 12 0;
#X connect 269 3 163 0;
#X connect 271 0 262 0;
#X connect 271 1 268 0;
#X coords 0 -1 1 1 1320 990 2 700 400;
#X restore 10 390 pd partial_parameters;
#X text 1370 430 TODO: Carrier A.Env/F.Env \, modulator A.Env/F.Env
;
#X text 1370 460 TODO: LFOs;
#X text 1370 490 TODO: Debug aliasing issues!;
#X text 1370 400 TODO: Debug env.gens. (100% CPU + not working yet)
;
