#N canvas 0 49 1920 1009 12;
#X obj -30 -30 preset_hub k12 1 %hidden%;
#X text 10 30 \$1 must be the partial number starting at zero., f
69;
#X text 10 10 Pre-calculation of the carrier/modulator wavetables of
a partial., f 69;
#X obj 100 229 delay 100;
#X obj 100 200 r p\$1-carrier-recalc;
#N canvas 0 49 1920 1009 (subpatch) 0;
#X array p\$1-carrier-1 515 float 0 black black;
#X coords 0 1 514 -1 200 100 1;
#X scroll 1;
#X restore 600 200 graph;
#N canvas 0 49 1920 1009 (subpatch) 0;
#X array p\$1-carrier-2 515 float 0 black black;
#X coords 0 1 514 -1 200 100 1;
#X scroll 1;
#X restore 830 200 graph;
#N canvas 0 49 1920 1009 (subpatch) 0;
#X array p\$1-carrier-4 515 float 0 black black;
#X coords 0 1 514 -1 200 100 1;
#X scroll 1;
#X restore 1290 200 graph;
#N canvas 0 49 1920 1009 (subpatch) 0;
#X array p\$1-carrier-5 515 float 0 black black;
#X coords 0 1 514 -1 200 100 1;
#X scroll 1;
#X restore 600 320 graph;
#N canvas 0 49 1920 1009 (subpatch) 0;
#X array p\$1-carrier-3 515 float 0 black black;
#X coords 0 1 514 -1 200 100 1;
#X scroll 1;
#X restore 1060 200 graph;
#N canvas 0 49 1920 1009 (subpatch) 0;
#X array p\$1-carrier-6 515 float 0 black black;
#X coords 0 1 514 -1 200 100 1;
#X scroll 1;
#X restore 830 320 graph;
#N canvas 0 49 1920 1009 (subpatch) 0;
#X array p\$1-carrier-7 515 float 0 black black;
#X coords 0 1 514 -1 200 100 1;
#X scroll 1;
#X restore 1060 320 graph;
#N canvas 0 49 1920 1009 (subpatch) 0;
#X array p\$1-carrier-8 515 float 0 black black;
#X coords 0 1 514 -1 200 100 1;
#X scroll 1;
#X restore 1290 320 graph;
#N canvas 0 49 1920 1009 (subpatch) 0;
#X array p\$1-carrier-10 515 float 0 black black;
#X coords 0 1 514 -1 200 100 1;
#X scroll 1;
#X restore 830 450 graph;
#N canvas 0 49 1920 1009 (subpatch) 0;
#X array p\$1-carrier-11 515 float 0 black black;
#X coords 0 1 514 -1 200 100 1;
#X scroll 1;
#X restore 1060 450 graph;
#N canvas 0 49 1920 1009 (subpatch) 0;
#X array p\$1-carrier-9 515 float 0 black black;
#X coords 0 1 514 -1 200 100 1;
#X scroll 1;
#X restore 600 450 graph;
#X obj 100 330 ./partial-add-harmonic p-p\$1-car1 p\$1-carrier 11 1
8;
#X obj 100 360 ./partial-add-harmonic p-p\$1-car2 p\$1-carrier 11 2
8;
#X obj 100 390 ./partial-add-harmonic p-p\$1-car3 p\$1-carrier 11 3
8;
#X obj 100 420 ./partial-add-harmonic p-p\$1-car4 p\$1-carrier 11 4
8;
#X obj 100 450 ./partial-add-harmonic p-p\$1-car5 p\$1-carrier 11 5
8;
#X obj 100 480 ./partial-add-harmonic p-p\$1-car6 p\$1-carrier 11 6
8;
#X obj 100 510 ./partial-add-harmonic p-p\$1-car7 p\$1-carrier 11 7
8;
#X obj 100 540 ./partial-add-harmonic p-p\$1-car8 p\$1-carrier 11 8
8;
#X obj 100 280 ./partial-clear-wavetables p\$1-carrier 11;
#X obj 100 769 delay 100;
#N canvas 0 49 1920 1009 (subpatch) 0;
#X array p\$1-modulator-1 515 float 0 black black;
#X coords 0 1 514 -1 200 100 1;
#X scroll 1;
#X restore 600 740 graph;
#X obj 100 740 r p\$1-modulator-recalc;
#N canvas 0 49 1920 1009 (subpatch) 0;
#X array p\$1-modulator-2 515 float 0 black black;
#X coords 0 1 514 -1 200 100 1;
#X scroll 1;
#X restore 830 740 graph;
#N canvas 0 49 1920 1009 (subpatch) 0;
#X array p\$1-modulator-4 515 float 0 black black;
#X coords 0 1 514 -1 200 100 1;
#X scroll 1;
#X restore 1290 740 graph;
#N canvas 0 49 1920 1009 (subpatch) 0;
#X array p\$1-modulator-5 515 float 0 black black;
#X coords 0 1 514 -1 200 100 1;
#X scroll 1;
#X restore 600 870 graph;
#N canvas 0 49 1920 1009 (subpatch) 0;
#X array p\$1-modulator-3 515 float 0 black black;
#X coords 0 1 514 -1 200 100 1;
#X scroll 1;
#X restore 1060 740 graph;
#N canvas 0 49 1920 1009 (subpatch) 0;
#X array p\$1-modulator-6 515 float 0 black black;
#X coords 0 1 514 -1 200 100 1;
#X scroll 1;
#X restore 830 870 graph;
#N canvas 0 49 1920 1009 (subpatch) 0;
#X array p\$1-modulator-7 515 float 0 black black;
#X coords 0 1 514 -1 200 100 1;
#X scroll 1;
#X restore 1060 870 graph;
#N canvas 0 49 1920 1009 (subpatch) 0;
#X array p\$1-modulator-8 515 float 0 black black;
#X coords 0 1 514 -1 200 100 1;
#X scroll 1;
#X restore 1290 870 graph;
#N canvas 0 49 1920 1009 (subpatch) 0;
#X array p\$1-modulator-10 515 float 0 black black;
#X coords 0 1 514 -1 200 100 1;
#X scroll 1;
#X restore 830 1000 graph;
#N canvas 0 49 1920 1009 (subpatch) 0;
#X array p\$1-modulator-11 515 float 0 black black;
#X coords 0 1 514 -1 200 100 1;
#X scroll 1;
#X restore 1060 1000 graph;
#N canvas 0 49 1920 1009 (subpatch) 0;
#X array p\$1-modulator-9 515 float 0 black black;
#X coords 0 1 514 -1 200 100 1;
#X scroll 1;
#X restore 600 1000 graph;
#X obj 100 870 ./partial-add-harmonic p-p\$1-mod1 p\$1-modulator 11
1 4;
#X obj 100 900 ./partial-add-harmonic p-p\$1-mod2 p\$1-modulator 11
2 4;
#X obj 100 930 ./partial-add-harmonic p-p\$1-mod3 p\$1-modulator 11
3 4;
#X obj 100 960 ./partial-add-harmonic p-p\$1-mod4 p\$1-modulator 11
4 4;
#X obj 100 820 ./partial-clear-wavetables p\$1-modulator 11;
#X obj 100 100 inlet;
#X obj 100 129 outlet;
#X connect 3 0 24 0;
#X connect 4 0 3 0;
#X connect 16 0 17 0;
#X connect 17 0 18 0;
#X connect 18 0 19 0;
#X connect 19 0 20 0;
#X connect 20 0 21 0;
#X connect 21 0 22 0;
#X connect 22 0 23 0;
#X connect 24 0 16 0;
#X connect 25 0 42 0;
#X connect 27 0 25 0;
#X connect 38 0 39 0;
#X connect 39 0 40 0;
#X connect 40 0 41 0;
#X connect 42 0 38 0;
#X connect 43 0 44 0;
