#N canvas 0 49 1920 1009 12;
#X obj -30 -30 preset_hub k12 1 %hidden%;
#X obj 100 100 inlet;
#X obj 400 160 ./init-oscillator \$1 car 1 1;
#X obj 400 190 ./init-oscillator \$1 car 2 0;
#X text 10 10 Initialize partial with default parameters.;
#X text 10 30 \$1 must be the partial number starting from zero.;
#X text 10 50 \$2 must be the value for the "enabled" parameter.;
#X obj 100 780 outlet;
#X obj 400 220 ./init-oscillator \$1 car 3 0;
#X obj 400 250 ./init-oscillator \$1 car 4 0;
#X obj 400 280 ./init-oscillator \$1 car 5 0;
#X obj 400 310 ./init-oscillator \$1 car 6 0;
#X obj 400 340 ./init-oscillator \$1 car 7 0;
#X obj 400 370 ./init-oscillator \$1 car 8 0;
#X obj 100 130 trigger b b b;
#X obj 700 160 ./init-oscillator \$1 mod 1 1;
#X obj 700 190 ./init-oscillator \$1 mod 2 0;
#X obj 700 220 ./init-oscillator \$1 mod 3 0;
#X obj 700 250 ./init-oscillator \$1 mod 4 0;
#X obj 130 160 list append \$1 \$2;
#X msg 130 190 \; p-p\$1-enabled \$2 \; p-p\$1-volume 1 \; p-p\$1-panorama
0 \; p-p\$1-transpose 0 \; p-p\$1-detune 0 \; \; p-p\$1-car-noise-enabled
0 \; p-p\$1-car-noise-volume 0 \; p-p\$1-car-frequency 1 \; p-p\$1-car-detune
0 \; p-p\$1-car-flt-type 0 \; p-p\$1-car-flt-cutoff 10 \; p-p\$1-car-flt-qfactor
1 \; \; p-p\$1-mod-noise-enabled 0 \; p-p\$1-mod-noise-volume 0 \;
p-p\$1-mod-volume 1 \; p-p\$1-mod-frequency 1 \; p-p\$1-mod-detune
0 \; p-p\$1-mod-flt-type 0 \; p-p\$1-mod-flt-cutoff 10 \; p-p\$1-mod-flt-qfactor
1 \; \; p-p\$1-car-aenv1 set attack 1 0.1 \; p-p\$1-car-aenv1 set release
0 0.3 \; p-p\$1-car-fenv1 set attack 1 0 \; p-p\$1-car-fenv1 set release
0 0.3 \; p-p\$1-mod-aenv1 set attack 1 0.1 \; p-p\$1-mod-aenv1 set
release 0 0.3 \; p-p\$1-mod-fenv1 set attack 1 0 \; p-p\$1-mod-fenv1
set release 0 0.3;
#X connect 1 0 14 0;
#X connect 2 0 3 0;
#X connect 3 0 8 0;
#X connect 8 0 9 0;
#X connect 9 0 10 0;
#X connect 10 0 11 0;
#X connect 11 0 12 0;
#X connect 12 0 13 0;
#X connect 14 0 7 0;
#X connect 14 1 19 0;
#X connect 14 2 2 0;
#X connect 14 2 15 0;
#X connect 15 0 16 0;
#X connect 16 0 17 0;
#X connect 17 0 18 0;
#X connect 19 0 20 0;
