#N struct vac__voice float x float y float voice float note float velocity
float active float time float sustain float sustenuto float bg_color
float sustain_color float sustenuto_color;
#N struct vac__main float polyphony array voices vac__voice;
#N canvas 0 49 1920 1009 12;
#X obj -30 -30 preset_hub k12 1 %hidden%;
#N canvas 0 49 1920 1009 chorus 0;
#X obj 100 100 inlet~;
#X obj 230 100 inlet~;
#X obj 100 920 outlet~;
#X obj 600 920 outlet~;
#X floatatom 1120 160 5 0 0 1 Dry/Wet - - 0 0 1, f 5;
#X floatatom 940 160 5 0 0 1 Feedback_% - - 0 0 1, f 5;
#X floatatom 560 160 5 0 0 1 LFO_Frequency_Hz - - 0 0 1, f 5;
#X floatatom 760 160 5 0 0 1 LFO_Width_ms - - 0 0 1, f 5;
#X floatatom 1270 160 5 0 0 1 Enabled - - 0 0 1, f 5;
#X obj 560 100 r p-cho-frequency;
#X obj 760 100 r p-cho-width;
#X obj 940 100 r p-cho-feedback;
#X obj 1120 100 r p-cho-drywet;
#X obj 1270 100 r p-cho-enabled;
#X obj 100 130 s~ cho-s-dry1;
#X obj 230 130 s~ cho-s-dry2;
#X obj 270 840 r~ cho-s-dry1;
#X obj 100 300 r~ cho-s-dry1;
#X obj 100 600 s~ cho-s-wet1;
#X obj 100 700 r~ cho-s-dry1;
#X obj 210 700 r~ cho-s-wet1;
#X obj 600 700 r~ cho-s-dry2;
#X obj 750 700 r~ cho-s-wet2;
#X floatatom 400 160 5 0 0 1 Delay_ms - - 0 0 1, f 5;
#X obj 400 100 r p-cho-delay;
#X obj 1270 187 s cho-enabled;
#X obj 380 840 r cho-enabled;
#X obj 560 187 s cho-frequency;
#X obj 400 187 s cho-delay;
#X obj 760 187 s cho-width;
#X obj 940 187 s cho-feedback;
#X obj 170 390 r cho-frequency;
#X obj 150 360 r cho-delay;
#X obj 190 420 r cho-width;
#X obj 210 450 r cho-feedback;
#X obj 270 870 expr~ \\$v1 * ($f2 - 1) * -1;
#X obj 120 840 r cho-enabled;
#X obj 100 870 *~;
#X obj 100 800 +~;
#X obj 840 840 r cho-enabled;
#X obj 730 870 expr~ \\$v1 * ($f2 - 1) * -1;
#X obj 620 840 r cho-enabled;
#X obj 600 870 *~;
#X obj 600 800 +~;
#X obj 730 840 r~ cho-s-dry2;
#X text 10 10 Simple chorus/flanger effect;
#X obj 560 130 ./utils/declick;
#X obj 400 130 ./utils/declick;
#X obj 760 128 ./utils/declick;
#X obj 940 128 ./utils/declick;
#X obj 1120 130 ./utils/declick;
#X obj 1270 128 ./utils/declick;
#X obj 100 520 ./chorus/chorus;
#X obj 120 330 r~ cho-s-dry2;
#X obj 220 600 s~ cho-s-wet2;
#X obj 100 750 ./utils/balance-stereo;
#X obj 270 750 r cho-drywet;
#X obj 600 750 ./utils/balance-stereo;
#X obj 770 750 r cho-drywet;
#X obj 1120 189 s cho-drywet;
#X connect 0 0 14 0;
#X connect 1 0 15 0;
#X connect 4 0 59 0;
#X connect 5 0 30 0;
#X connect 6 0 27 0;
#X connect 7 0 29 0;
#X connect 8 0 25 0;
#X connect 9 0 46 0;
#X connect 10 0 48 0;
#X connect 11 0 49 0;
#X connect 12 0 50 0;
#X connect 13 0 51 0;
#X connect 16 0 35 0;
#X connect 17 0 52 0;
#X connect 19 0 55 0;
#X connect 20 0 55 1;
#X connect 21 0 57 0;
#X connect 22 0 57 1;
#X connect 23 0 28 0;
#X connect 24 0 47 0;
#X connect 26 0 35 1;
#X connect 31 0 52 3;
#X connect 32 0 52 2;
#X connect 33 0 52 4;
#X connect 34 0 52 5;
#X connect 35 0 2 0;
#X connect 36 0 37 1;
#X connect 37 0 2 0;
#X connect 38 0 37 0;
#X connect 39 0 40 1;
#X connect 40 0 3 0;
#X connect 41 0 42 1;
#X connect 42 0 3 0;
#X connect 43 0 42 0;
#X connect 44 0 40 0;
#X connect 46 0 6 0;
#X connect 47 0 23 0;
#X connect 48 0 7 0;
#X connect 49 0 5 0;
#X connect 50 0 4 0;
#X connect 51 0 8 0;
#X connect 52 0 18 0;
#X connect 52 1 54 0;
#X connect 53 0 52 1;
#X connect 55 0 38 0;
#X connect 55 1 38 1;
#X connect 56 0 55 2;
#X connect 57 0 43 0;
#X connect 57 1 43 1;
#X connect 58 0 57 2;
#X restore 700 280 pd chorus;
#N canvas 0 49 1920 1009 reverb 0;
#X obj 100 100 inlet~;
#X obj 220 100 inlet~;
#X obj 100 1020 outlet~;
#X obj 800 1020 outlet~;
#X obj 100 580 rev3~ 100;
#X floatatom 400 160 5 0 0 1 Dry/Wet - - 0 0 1, f 5;
#X floatatom 350 420 5 0 100 1 % - - 0 0 1, f 5;
#X floatatom 570 480 5 0 0 1 Hz - - 0 0 1, f 5;
#X floatatom 730 420 5 0 100 1 % - - 0 0 1, f 5;
#X obj 350 480 expr cbrt($f1 / 100) * 100;
#X floatatom 350 510 5 0 0 1 % - - 0 0 1, f 5;
#X floatatom 730 510 5 0 0 1 % - - 0 0 1, f 5;
#X obj 730 480 expr sqrt($f1 / 100) * 100;
#X floatatom 550 160 5 0 0 1 Enabled - - 0 0 1, f 5;
#X obj 100 130 s~ rev-s-dry1;
#X obj 220 130 s~ rev-s-dry2;
#X obj 400 100 r p-rev-drywet;
#X obj 550 100 r p-rev-enabled;
#X obj 100 390 r~ rev-s-dry1;
#X obj 220 390 r~ rev-s-dry2;
#X obj 350 390 r p-rev-length;
#X obj 570 450 r p-rev-crossover;
#X obj 730 390 r p-rev-hfdamping;
#X obj 100 680 s~ rev-s-wet1;
#X obj 230 680 s~ rev-s-wet2;
#X obj 100 800 r~ rev-s-dry1;
#X obj 210 800 r~ rev-s-wet1;
#X obj 800 800 r~ rev-s-dry2;
#X obj 950 800 r~ rev-s-wet2;
#X obj 550 189 s rev-enabled;
#X obj 230 970 expr~ \\$v1 * ($f2 - 1) * -1;
#X obj 100 970 *~;
#X obj 100 900 +~;
#X obj 120 940 r rev-enabled;
#X obj 230 940 r~ rev-s-dry1;
#X obj 340 940 r rev-enabled;
#X obj 930 970 expr~ \\$v1 * ($f2 - 1) * -1;
#X obj 800 970 *~;
#X obj 800 900 +~;
#X obj 820 940 r rev-enabled;
#X obj 1040 940 r rev-enabled;
#X obj 930 940 r~ rev-s-dry2;
#X text 10 10 Even simpler reverb effect using PD's [rev3~];
#X obj 400 130 ./utils/declick;
#X obj 550 132 ./utils/declick;
#X obj 350 450 ./utils/declick;
#X obj 730 450 ./utils/declick;
#X obj 570 508 ./utils/declick;
#X obj 400 187 s rev-drywet;
#X obj 100 850 ./utils/balance-stereo;
#X obj 270 850 r rev-drywet;
#X obj 800 850 ./utils/balance-stereo;
#X obj 970 850 r rev-drywet;
#X connect 0 0 14 0;
#X connect 1 0 15 0;
#X connect 4 0 23 0;
#X connect 4 1 24 0;
#X connect 5 0 48 0;
#X connect 6 0 45 0;
#X connect 7 0 47 0;
#X connect 8 0 46 0;
#X connect 9 0 10 0;
#X connect 10 0 4 3;
#X connect 11 0 4 5;
#X connect 12 0 11 0;
#X connect 13 0 29 0;
#X connect 16 0 43 0;
#X connect 17 0 44 0;
#X connect 18 0 4 0;
#X connect 19 0 4 1;
#X connect 20 0 6 0;
#X connect 21 0 7 0;
#X connect 22 0 8 0;
#X connect 25 0 49 0;
#X connect 26 0 49 1;
#X connect 27 0 51 0;
#X connect 28 0 51 1;
#X connect 30 0 2 0;
#X connect 31 0 2 0;
#X connect 32 0 31 0;
#X connect 33 0 31 1;
#X connect 34 0 30 0;
#X connect 35 0 30 1;
#X connect 36 0 3 0;
#X connect 37 0 3 0;
#X connect 38 0 37 0;
#X connect 39 0 37 1;
#X connect 40 0 36 1;
#X connect 41 0 36 0;
#X connect 43 0 5 0;
#X connect 44 0 13 0;
#X connect 45 0 9 0;
#X connect 46 0 12 0;
#X connect 47 0 4 4;
#X connect 49 0 32 0;
#X connect 49 1 32 1;
#X connect 50 0 49 2;
#X connect 51 0 38 0;
#X connect 51 1 38 1;
#X connect 52 0 51 2;
#X restore 700 310 pd reverb;
#N canvas 0 49 1920 1009 midi_input 0;
#X obj 100 200 notein 1;
#X floatatom 100 230 5 0 0 1 Note - - 0 0 1, f 5;
#X floatatom 200 230 5 0 0 1 Velocity - - 0 0 1, f 5;
#X obj 700 200 ctlin 64 1;
#X floatatom 700 230 5 0 0 1 Sustain - - 0 0 1, f 5;
#X obj 100 420 ctlin 7 1;
#X floatatom 100 450 5 0 0 1 Volume_MSB - - 0 0 0, f 5;
#X obj 1200 420 ctlin 11 1;
#X floatatom 1200 450 5 0 0 1 Expression_MSB - - 0 0 1, f 5;
#X obj 400 200 bendin 1 1;
#X obj 400 260 expr (($i1 / 16383) * 2) - 1;
#X floatatom 400 230 5 0 0 1 Pitchbend - - 0 0 0, f 5;
#X floatatom 900 230 5 0 0 1 Sustenuto - - 0 0 1, f 5;
#X obj 900 200 ctlin 66 1;
#X obj 200 260 / 127;
#X obj 700 260 / 127;
#X obj 900 260 / 127;
#X obj 100 480 / 127;
#X obj 1200 480 / 127;
#X text 10 10 MIDI Input Handling;
#X text 10 90 All objects below are listening in MIDI channel 1;
#X floatatom 430 450 5 0 0 1 Panorama_MSB - - 0 0 1, f 5;
#X obj 430 480 / 127;
#X obj 430 420 ctlin 10 1;
#X floatatom 240 450 5 0 0 1 Volume_LSB - - 0 0 0, f 5;
#X obj 240 420 ctlin 39 1;
#X obj 100 550 +;
#X obj 240 480 / 16384;
#X obj 240 510 trigger b f;
#X floatatom 1380 450 5 0 0 1 Expression_LSB - - 0 0 0, f 5;
#X obj 1380 480 / 16384;
#X obj 1380 510 trigger b f;
#X obj 1380 420 ctlin 43 1;
#X obj 1200 560 +;
#X floatatom 600 450 5 0 0 1 Panorama_LSB - - 0 0 0, f 5;
#X obj 600 480 / 16384;
#X obj 600 510 trigger b f;
#X obj 600 420 ctlin 42 1;
#X obj 430 560 +;
#X floatatom 200 290 5 0 0 0 - - - 0 0 1, f 5;
#X floatatom 400 290 5 0 0 0 - - - 0 0 1, f 5;
#X floatatom 700 290 5 0 0 0 - - - 0 0 1, f 5;
#X floatatom 900 290 5 0 0 0 - - - 0 0 1, f 5;
#X floatatom 100 580 5 0 0 0 - - - 0 0 1, f 5;
#X floatatom 1200 590 5 0 0 0 - - - 0 0 1, f 5;
#X floatatom 430 590 5 0 0 0 - - - 0 0 1, f 5;
#X floatatom 800 450 5 0 0 1 Modulation_MSB - - 0 0 1, f 5;
#X obj 800 480 / 127;
#X floatatom 970 450 5 0 0 1 Modulation_LSB - - 0 0 0, f 5;
#X obj 970 480 / 16384;
#X obj 970 510 trigger b f;
#X obj 800 550 +;
#X floatatom 800 580 5 0 0 0 - - - 0 0 1, f 5;
#X obj 800 420 ctlin 1 1;
#X obj 970 420 ctlin 33 1;
#X obj 100 320 s in-note;
#X obj 200 320 s in-velocity;
#X obj 400 320 s in-pitchbend;
#X obj 700 320 s in-sustain;
#X obj 900 320 s in-sustenuto;
#X obj 100 610 s p-glb-volume;
#X obj 430 620 s p-glb-panorama;
#X obj 800 610 s in-modulation;
#X obj 1200 620 s in-expression;
#X text 10 40 This subpatch receives the MIDI input \, normalizes it
and sends the resulting values to everybody who wants to receive them.
, f 63;
#X connect 0 0 1 0;
#X connect 0 1 2 0;
#X connect 1 0 55 0;
#X connect 2 0 14 0;
#X connect 3 0 4 0;
#X connect 4 0 15 0;
#X connect 5 0 6 0;
#X connect 6 0 17 0;
#X connect 7 0 8 0;
#X connect 8 0 18 0;
#X connect 9 0 11 0;
#X connect 10 0 40 0;
#X connect 11 0 10 0;
#X connect 12 0 16 0;
#X connect 13 0 12 0;
#X connect 14 0 39 0;
#X connect 15 0 41 0;
#X connect 16 0 42 0;
#X connect 17 0 26 0;
#X connect 18 0 33 0;
#X connect 21 0 22 0;
#X connect 22 0 38 0;
#X connect 23 0 21 0;
#X connect 24 0 27 0;
#X connect 25 0 24 0;
#X connect 26 0 43 0;
#X connect 27 0 28 0;
#X connect 28 0 26 0;
#X connect 28 1 26 1;
#X connect 29 0 30 0;
#X connect 30 0 31 0;
#X connect 31 0 33 0;
#X connect 31 1 33 1;
#X connect 32 0 29 0;
#X connect 33 0 44 0;
#X connect 34 0 35 0;
#X connect 35 0 36 0;
#X connect 36 0 38 0;
#X connect 36 1 38 1;
#X connect 37 0 34 0;
#X connect 38 0 45 0;
#X connect 39 0 56 0;
#X connect 40 0 57 0;
#X connect 41 0 58 0;
#X connect 42 0 59 0;
#X connect 43 0 60 0;
#X connect 44 0 63 0;
#X connect 45 0 61 0;
#X connect 46 0 47 0;
#X connect 47 0 51 0;
#X connect 48 0 49 0;
#X connect 49 0 50 0;
#X connect 50 0 51 0;
#X connect 50 1 51 1;
#X connect 51 0 52 0;
#X connect 52 0 62 0;
#X connect 53 0 46 0;
#X connect 54 0 48 0;
#X coords 0 0 1 1 95 60 0;
#X restore 700 130 pd midi_input;
#N canvas 0 49 1920 1009 audio_output 0;
#X obj 100 100 inlet~;
#X obj 100 200 hip~ 1;
#X obj 100 229 clip~ -1 1;
#X obj 230 290 dac~;
#X obj 400 100 inlet~;
#X obj 400 200 hip~ 1;
#X obj 400 229 clip~ -1 1;
#X text 600 200 Remove DC Bias;
#X text 600 230 Clip output to [-1 \, 1];
#X text 10 10 Final output stage to remove DC bias and clip values
;
#X obj 100 400 s out-vu-rms1;
#X obj 130 370 s out-vu-peak1;
#X obj 430 368 s out-vu-peak2;
#X obj 400 398 s out-vu-rms2;
#X obj 100 340 ./utils/rms-peak;
#X obj 400 338 ./utils/rms-peak;
#X obj 100 150 *~;
#X obj 400 150 *~;
#X obj 900 100 r p-out-mastervolume;
#X obj 900 130 expr pow(10 \, \\$f1 / 20);
#X text 1070 130 Conversion from dB;
#X obj 900 260 s \$0-aout-matervolume;
#X obj 440 150 r \$0-aout-matervolume;
#X obj 140 150 r \$0-aout-matervolume;
#X text 600 150 Apply master volume;
#X text 600 340 VU Meters;
#X floatatom 900 180 5 0 0 1 Beta - - 0 0 1, f 5;
#X obj 900 230 ./utils/declick;
#X connect 0 0 16 0;
#X connect 1 0 2 0;
#X connect 2 0 3 0;
#X connect 2 0 14 0;
#X connect 4 0 17 0;
#X connect 5 0 6 0;
#X connect 6 0 3 1;
#X connect 6 0 15 0;
#X connect 14 0 10 0;
#X connect 14 1 11 0;
#X connect 15 0 13 0;
#X connect 15 1 12 0;
#X connect 16 0 1 0;
#X connect 17 0 5 0;
#X connect 18 0 19 0;
#X connect 19 0 26 0;
#X connect 22 0 17 1;
#X connect 23 0 16 1;
#X connect 26 0 27 0;
#X connect 27 0 21 0;
#X restore 700 340 pd audio_output;
#X obj 100 130 loadbang;
#X text 700 100 ---- Signal flow ----;
#X text 10 10 MiniClavier Synthesizer (backend without the GUI);
#X obj 700 160 r in-note;
#X obj 790 160 r in-velocity;
#X obj 910 160 r in-sustain;
#X obj 1020 160 r in-sustenuto;
#X obj 100 160 delay 100;
#X obj 210 160 r cmd-reset-parameters;
#X obj 100 190 bng 20 250 50 0 empty empty empty 17 7 0 10 #fcfcfc
#000000 #000000 1;
#X obj 100 680 ./init-global;
#X obj 100 870 s reinit;
#X obj 100 710 ./init-partial 0 1;
#X obj 100 740 ./init-partial 1 0;
#X obj 100 770 ./init-partial 2 0;
#X obj 100 800 ./init-partial 3 0;
#N canvas 0 49 1920 1009 volume_and_balance 0;
#X obj 100 400 inlet~;
#X obj 100 550 outlet~;
#X obj 400 550 outlet~;
#X floatatom 100 160 5 0 0 1 Volume - - 0 0 1, f 5;
#X floatatom 300 160 5 0 0 1 Expression - - 0 0 1, f 5;
#X floatatom 500 160 5 0 0 1 Balance - - 0 0 1, f 5;
#X obj 300 190 trigger b f;
#X obj 100 450 *~;
#X obj 100 100 r p-glb-volume;
#X obj 300 100 r in-expression;
#X obj 100 130 ./utils/declick;
#X obj 300 130 ./utils/declick;
#X obj 500 130 ./utils/declick;
#X obj 500 100 r p-glb-balance;
#X obj 100 500 ./utils/balance-stereo;
#X obj 500 190 s \$0-vab-balance;
#X obj 400 400 inlet~;
#X obj 400 450 *~;
#X text 10 10 Total volume and balance handling;
#X obj 270 500 r \$0-vab-balance;
#X obj 100 240 *;
#X floatatom 100 298 5 0 0 0 - - - 0 0 1, f 5;
#X obj 100 326 s \$0-vab-volume;
#X obj 440 450 r \$0-vab-volume;
#X obj 140 450 r \$0-vab-volume;
#X obj 100 269 expr sqrt($f1);
#X connect 0 0 7 0;
#X connect 3 0 20 0;
#X connect 4 0 6 0;
#X connect 5 0 15 0;
#X connect 6 0 20 0;
#X connect 6 1 20 1;
#X connect 7 0 14 0;
#X connect 8 0 10 0;
#X connect 9 0 11 0;
#X connect 10 0 3 0;
#X connect 11 0 4 0;
#X connect 12 0 5 0;
#X connect 13 0 12 0;
#X connect 14 0 1 0;
#X connect 14 1 2 0;
#X connect 16 0 17 0;
#X connect 17 0 14 1;
#X connect 19 0 14 2;
#X connect 20 0 25 0;
#X connect 21 0 22 0;
#X connect 23 0 17 1;
#X connect 24 0 7 1;
#X connect 25 0 21 0;
#X restore 700 250 pd volume_and_balance;
#X obj 100 390 ./wavetables/saw/wavetable-saw;
#X obj 100 420 ./wavetables/square/wavetable-square;
#X obj 100 450 ./wavetables/triangle/wavetable-triangle;
#X obj 100 360 ./wavetables/sin/wavetable-sin;
#X text 100 100 ---- Initialization ----;
#X text 110 660 ---- Parameters ----;
#X text 110 340 ---- Basic Wavetables ----;
#X text 110 500 ---- Partial carrier/modulator wavetables ----;
#X obj 100 520 ./partial-wavetables 0;
#X obj 100 550 ./partial-wavetables 1;
#X obj 100 580 ./partial-wavetables 2;
#X obj 100 610 ./partial-wavetables 3;
#X text 110 850 ---- Everything else ----;
#X obj 100 260 trigger b b;
#X text 110 240 ---- Pre-Initialization ----;
#X obj 130 290 s pre-init;
#X text 990 190 <<<< 16;
#X text 990 210 <<<< 16;
#X obj 700 190 ./voice_allocator/voice_allocator 16;
#X obj 700 220 clone voice 16;
#X connect 1 0 2 0;
#X connect 1 1 2 1;
#X connect 2 0 4 0;
#X connect 2 1 4 1;
#X connect 5 0 12 0;
#X connect 8 0 40 0;
#X connect 9 0 40 1;
#X connect 10 0 40 2;
#X connect 11 0 40 3;
#X connect 12 0 14 0;
#X connect 13 0 14 0;
#X connect 14 0 35 0;
#X connect 15 0 17 0;
#X connect 17 0 18 0;
#X connect 18 0 19 0;
#X connect 19 0 20 0;
#X connect 20 0 16 0;
#X connect 21 0 1 0;
#X connect 21 1 1 1;
#X connect 22 0 23 0;
#X connect 23 0 24 0;
#X connect 24 0 30 0;
#X connect 25 0 22 0;
#X connect 30 0 31 0;
#X connect 31 0 32 0;
#X connect 32 0 33 0;
#X connect 33 0 15 0;
#X connect 35 0 25 0;
#X connect 35 1 37 0;
#X connect 40 0 41 0;
#X connect 41 0 21 0;
#X connect 41 1 21 1;
