#N canvas 0 49 1920 1009 12;
#X obj -30 -30 preset_hub k12 1 %hidden%;
#X text 10 10 Preset manager and preset value objects needed to switch
the visible partial in the UI, f 88;
#X obj 100 100 r ui-partial-\$1;
#X obj 100 130 ./preset/preset-manager partial\$1;
#X obj 100 230 ./ui-partial-value \$1 float enabled;
#X obj 100 260 ./ui-partial-value \$1 float volume;
#X text 100 200 ---- General Parameters ----;
#X text 1000 200 ---- Modulator Parameters ----;
#X text 600 200 ---- Carrier Parameters ----;
#X obj 600 230 ./ui-partial-oscillator \$1 car1;
#X obj 600 260 ./ui-partial-oscillator \$1 car2;
#X obj 600 290 ./ui-partial-oscillator \$1 car3;
#X obj 600 320 ./ui-partial-oscillator \$1 car4;
#X obj 600 350 ./ui-partial-oscillator \$1 car5;
#X obj 600 380 ./ui-partial-oscillator \$1 car6;
#X obj 600 410 ./ui-partial-oscillator \$1 car7;
#X obj 600 440 ./ui-partial-oscillator \$1 car8;
#X obj 1000 230 ./ui-partial-oscillator \$1 mod1;
#X obj 1000 260 ./ui-partial-oscillator \$1 mod2;
#X obj 1000 290 ./ui-partial-oscillator \$1 mod3;
#X obj 1000 320 ./ui-partial-oscillator \$1 mod4;
#X text 10 30 \$1 must be the partial number starting at zero.;
#X obj 100 320 ./ui-partial-value \$1 float transpose;
#X obj 100 350 ./ui-partial-value \$1 float detune;
#X obj 600 580 ./ui-partial-value \$1 float car-frequency;
#X obj 600 610 ./ui-partial-value \$1 float car-detune;
#X obj 1000 610 ./ui-partial-value \$1 float mod-frequency;
#X obj 1000 640 ./ui-partial-value \$1 float mod-detune;
#X obj 1000 580 ./ui-partial-value \$1 float mod-volume;
#X obj 600 500 ./ui-partial-value \$1 float car-noise-enabled;
#X obj 600 530 ./ui-partial-value \$1 float car-noise-volume;
#X obj 1000 500 ./ui-partial-value \$1 float mod-noise-enabled;
#X obj 1000 530 ./ui-partial-value \$1 float mod-noise-volume;
#X obj 100 290 ./ui-partial-value \$1 float panorama;
#X text 100 410 ---- Filters ----;
#X obj 100 440 ./ui-partial-value \$1 float car-flt-type;
#X obj 100 470 ./ui-partial-value \$1 float car-flt-cutoff;
#X obj 100 500 ./ui-partial-value \$1 float car-flt-qfactor;
#X obj 100 550 ./ui-partial-value \$1 float mod-flt-type;
#X obj 100 580 ./ui-partial-value \$1 float mod-flt-cutoff;
#X obj 100 610 ./ui-partial-value \$1 float mod-flt-qfactor;
#X obj 600 700 ./ui-partial-value \$1 list car-aenv1;
#X obj 600 730 ./ui-partial-value \$1 list car-fenv1;
#X obj 1000 700 ./ui-partial-value \$1 list mod-aenv1;
#X obj 1000 730 ./ui-partial-value \$1 list mod-fenv1;
#X connect 2 0 3 0;
