#N canvas 0 49 1920 1009 12;
#X obj -30 -30 preset_hub k12 1 %hidden%;
#X text 10 30 \$1 must be the partial number starting from zero.;
#X text 10 10 Initialize oscillator with default parameters.;
#X text 10 50 \$2 must be the oscillator type (car or mod).;
#X text 10 70 \$3 must be the oscillator number starting from one.
;
#X text 10 90 \$4 must be the value for the "enabled" parameter.;
#X obj 100 200 inlet;
#X obj 100 230 trigger b b;
#X obj 100 370 outlet;
#X obj 130 260 list append \$1 \$2 \$3 \$4;
#X msg 130 290 \; p-p\$1-\$2\$3-enabled \$4 \; p-p\$1-\$2\$3-waveform
0 \; p-p\$1-\$2\$3-volume \$4;
#X connect 6 0 7 0;
#X connect 7 0 8 0;
#X connect 7 1 9 0;
#X connect 9 0 10 0;
