#N canvas 0 49 1920 1009 12;
#X obj -30 -30 preset_hub k12 1 %hidden%;
#X text 10 10 Refresh UI widgets for the selected breakpoint, f 69
;
#X obj 100 150 inlet;
#X text 10 70 Send a bang to the inlet to trigger the sending., f
69;
#X obj 100 2350 outlet;
#X obj 100 2320 trigger b;
#X text 110 2300 ---- Confirm execution ----;
#X text 10 90 Sends a bang on its outlet when finished processing.
, f 69;
#X obj 130 310 getsize egui__main attack;
#X obj 330 310 getsize egui__main release;
#X obj 130 400 +, f 29;
#X text 110 200 ---- Set number of HRadios for breakpoint selection
----;
#X obj 100 220 trigger b b;
#X obj 130 280 trigger p p;
#X text 10 40 Argument \$1 must be \$0 of the calling [envgen-gui]
instance., f 69;
#X obj 100 1140 trigger b b;
#X obj 100 1420 trigger b b;
#X obj 100 1040 trigger b b;
#X obj 140 1099 value _\$0_selected_index;
#X obj 200 1230 get egui__breakpoint selected;
#X obj 170 1260 spigot;
#X obj 170 1380 s \$0-selected-breakpoint;
#X obj 200 1349 value _\$0_selected_index;
#X text 110 1020 ---- Highlight selected breakpoint ----;
#X obj 190 1510 get egui__breakpoint selected;
#X obj 160 1540 spigot;
#X obj 160 1662 s \$0-selected-breakpoint;
#X obj 190 1631 value _\$0_selected_index;
#X obj 130 370 value _\$0_len_attack;
#X obj 130 340 trigger b f;
#X obj 100 1701 trigger b b;
#X obj 190 2131 get egui__breakpoint value duration;
#X obj 250 2100 r \$0-selected-breakpoint;
#X text 110 1840 ---- Update value and duration fields ----;
#X obj 190 2100 pointer;
#X obj 100 560 trigger b b;
#X obj 330 340 trigger b f;
#X obj 330 370 value _\$0_len_release;
#X msg 130 458 number \$1;
#X obj 130 487 s \$1-ui-radios-in;
#X msg 140 619 interactive \$1;
#X obj 170 1200 trigger p p;
#X obj 160 1480 trigger p p;
#X obj 160 2070 trigger b b;
#X obj 160 2190 trigger b b;
#X obj 160 1980 trigger b b;
#X msg 190 2010 1;
#X obj 190 2040 s \$1-update-ui-lock;
#X msg 190 2220 0;
#X obj 190 2250 s \$1-update-ui-lock;
#X obj 140 648 s \$1-ui-remove-button-in;
#X msg 140 1070 -1;
#X obj 100 1860 trigger b b;
#X obj 130 1890 expr _\$0_selected_index >= 0;
#X obj 130 1919 select 1;
#X obj 130 429 - 2;
#X text 170 430 Each array contains a fixed dummy breakpoint that cannot
be selected, f 71;
#X text 110 540 ---- Enable/disable delete button ----;
#X obj 300 460 value _\$0_total_breakpoints;
#X obj 140 590 expr _\$0_total_breakpoints > 0;
#X obj 130 750 value _\$0_total_breakpoints;
#X obj 130 779 moses 1;
#X obj 190 840 value _\$1_max_breakpoints;
#X obj 190 899 s \$1-ui-radios-in;
#X obj 720 870 s \$1-ui-radios-in;
#X msg 720 841 interactive 1;
#X obj 680 810 trigger b b;
#X obj 100 720 trigger b;
#X obj 160 809 trigger b b;
#X obj 160 930 s \$0-break-early;
#X obj 680 941 trigger b;
#X obj 100 970 trigger b;
#X obj 200 2320 r \$0-break-early;
#X msg 190 870 number \$1 \, interactive 0;
#X text 110 700 ---- No breakpoints: Disable controls and skip rest
----;
#X msg 400 840 interactive 0;
#X obj 400 900 s \$1-ui--value;
#X obj 520 900 s \$1-ui--duration;
#X obj 860 870 s \$1-ui--value;
#X obj 980 870 s \$1-ui--duration;
#X text 340 1890 Prevent null-pointer warning when no breakpoints are
set;
#X obj 300 1200 value _\$0_current_index;
#X obj 300 1480 value _\$0_current_index;
#X obj 160 1569 trigger p b;
#X obj 170 1290 trigger p b;
#X obj 200 1320 expr _\$0_current_index - 1;
#X text 400 1320 Account for dummy breakpoint;
#X obj 190 1600 expr _\$0_current_index + _\$0_len_attack - 2;
#X text 510 1601 Account for dummy breakpoints;
#X obj 130 1730 value _\$0_selected_index;
#X obj 190 2160 s \$1-ui-value;
#X obj 320 2160 s \$1-ui-duration;
#X obj 130 1790 s \$1-ui-radios-in;
#X msg 130 1760 set \$1;
#X text 250 1940 To prevent the UI field overwriting us by recieving
its own message \, that triggered the calculation \, before our message.
;
#X obj 160 1950 delay 100;
#X obj 130 250 ./egui-get-main \$1;
#X obj 140 1170 ./egui-foreach-breakpoint \$1 attack;
#X obj 130 1450 ./egui-foreach-breakpoint \$1 release;
#X connect 2 0 12 0;
#X connect 5 0 4 0;
#X connect 8 0 29 0;
#X connect 9 0 36 0;
#X connect 10 0 55 0;
#X connect 12 0 35 0;
#X connect 12 1 96 0;
#X connect 13 0 8 0;
#X connect 13 1 9 0;
#X connect 15 0 16 0;
#X connect 15 1 97 0;
#X connect 16 0 30 0;
#X connect 16 1 98 0;
#X connect 17 0 15 0;
#X connect 17 1 51 0;
#X connect 19 0 20 1;
#X connect 20 0 84 0;
#X connect 24 0 25 1;
#X connect 25 0 83 0;
#X connect 28 0 10 0;
#X connect 29 0 28 0;
#X connect 29 1 28 0;
#X connect 30 0 52 0;
#X connect 30 1 89 0;
#X connect 31 0 90 0;
#X connect 31 1 91 0;
#X connect 32 0 34 1;
#X connect 34 0 31 0;
#X connect 35 0 67 0;
#X connect 35 1 59 0;
#X connect 36 0 37 0;
#X connect 36 1 37 0;
#X connect 37 0 10 1;
#X connect 38 0 39 0;
#X connect 40 0 50 0;
#X connect 41 0 20 0;
#X connect 41 1 19 0;
#X connect 42 0 25 0;
#X connect 42 1 24 0;
#X connect 43 0 44 0;
#X connect 43 1 34 0;
#X connect 44 1 48 0;
#X connect 45 0 43 0;
#X connect 45 1 46 0;
#X connect 46 0 47 0;
#X connect 48 0 49 0;
#X connect 51 0 18 0;
#X connect 52 0 5 0;
#X connect 52 1 53 0;
#X connect 53 0 54 0;
#X connect 54 0 95 0;
#X connect 55 0 38 0;
#X connect 55 0 58 0;
#X connect 59 0 40 0;
#X connect 60 0 61 0;
#X connect 61 0 68 0;
#X connect 61 1 66 0;
#X connect 62 0 73 0;
#X connect 65 0 64 0;
#X connect 65 0 78 0;
#X connect 65 0 79 0;
#X connect 66 0 70 0;
#X connect 66 1 65 0;
#X connect 67 0 60 0;
#X connect 68 0 69 0;
#X connect 68 1 62 0;
#X connect 68 1 75 0;
#X connect 70 0 71 0;
#X connect 71 0 17 0;
#X connect 72 0 4 0;
#X connect 73 0 63 0;
#X connect 75 0 76 0;
#X connect 75 0 77 0;
#X connect 83 0 26 0;
#X connect 83 1 87 0;
#X connect 84 0 21 0;
#X connect 84 1 85 0;
#X connect 85 0 22 0;
#X connect 87 0 27 0;
#X connect 89 0 93 0;
#X connect 93 0 92 0;
#X connect 95 0 45 0;
#X connect 96 0 13 0;
#X connect 97 0 41 0;
#X connect 97 1 81 0;
#X connect 98 0 42 0;
#X connect 98 1 82 0;
