#N canvas 0 49 1920 1009 12;
#X obj -30 -30 preset_hub k12 1 %hidden%;
#X obj 100 330 inlet;
#X obj 100 1180 outlet;
#X obj 100 400 trigger a b, f 12;
#X obj 100 530 route bang float;
#X obj 230 530 print invalid value;
#X obj 130 460 s \$0-main-pointer;
#X obj 270 1150 r \$0-main-pointer;
#X text 10 10 Get a single breakpoint from the envelope generator UI.
, f 84;
#X text 10 170 Negative indexes will be counted from the end of the
array., f 84;
#X obj 130 800 moses 0;
#X text 110 380 ---- Get main pointer ----;
#X text 110 510 ---- Get index from arguments or inlet ----;
#X text 110 1100 ---- Return requested breakpoint ----;
#X obj 100 1120 value _\$0_index;
#X obj 400 860 value _\$0_index;
#X obj 150 890 +, f 19;
#X obj 150 830 trigger b f, f 19;
#X obj 150 950 value _\$0_index;
#X text 10 110 Send a bang to the inlet to get the breakpoint pointer
at the left outlet. Alternatively send a float with the requested number
\, in which case \$2 can be omitted., f 84;
#X obj 450 1180 outlet;
#X obj 450 1150 r \$0-out-of-bounds;
#X obj 150 920 trigger b f;
#X text 160 1000 ---- Check out of bounds ----;
#X obj 150 1050 s \$0-out-of-bounds;
#X obj 160 690 pointer;
#X obj 220 690 r \$0-main-pointer;
#X obj 160 749 value _\$0_length;
#X obj 150 860 value _\$0_length;
#X obj 130 660 trigger f b;
#X obj 100 630 trigger b f;
#X obj 400 830 trigger b f;
#X obj 400 1050 s \$0-out-of-bounds;
#X text 410 1000 ---- Check out of bounds ----;
#X text 110 610 ---- Calculate actual index ----;
#X text 10 200 The right outlet sends the number 1 \, when the element
exists and 0 otherwise. This allows to connect both outlets to a [spigot]
to only continue \, if the right element was returned. Because according
to the documentation \, PD always has at least one entry in the array
and returns the "nearest endpoint" \, which might be not what you want
as it could be the last breakpoint (positive index) or the first breakpoint
(negative index) repsectively., f 84;
#X obj 150 1020 expr \\$f1 >= 0;
#X obj 400 1020 expr \\$f1 < _\$0_length;
#X text 10 60 \$2 must be "attack" or "release" to choose the envelope
part., f 84;
#X text 10 80 \$3 can be the breakpoint number (zero-based)., f 84
;
#X obj 130 430 ./egui-get-main \$1;
#X obj 100 560 f \$3;
#X obj 160 720 getsize egui__main \$2;
#X obj 100 1150 element egui__main \$2, f 22;
#X text 10 40 Argument \$1 must be \$0 of the calling [envgen-gui]
instance., f 84;
#X connect 1 0 3 0;
#X connect 3 0 4 0;
#X connect 3 1 40 0;
#X connect 4 0 41 0;
#X connect 4 1 41 0;
#X connect 4 2 5 0;
#X connect 7 0 43 1;
#X connect 10 0 17 0;
#X connect 10 1 31 0;
#X connect 14 0 43 0;
#X connect 15 0 37 0;
#X connect 16 0 22 0;
#X connect 17 0 28 0;
#X connect 17 1 16 1;
#X connect 18 0 36 0;
#X connect 21 0 20 0;
#X connect 22 0 18 0;
#X connect 22 1 18 0;
#X connect 25 0 42 0;
#X connect 26 0 25 1;
#X connect 28 0 16 0;
#X connect 29 0 10 0;
#X connect 29 1 25 0;
#X connect 30 0 14 0;
#X connect 30 1 29 0;
#X connect 31 0 15 0;
#X connect 31 1 15 0;
#X connect 36 0 24 0;
#X connect 37 0 32 0;
#X connect 40 0 6 0;
#X connect 41 0 30 0;
#X connect 42 0 27 0;
#X connect 43 0 2 0;
