#N canvas 0 49 1920 1009 12;
#X obj -30 -30 preset_hub k12 1 %hidden%;
#X text 10 40 \$1 must be \$0 of the envelope generator ui., f 69
;
#X text 10 70 A bang on the inlet starts the processing., f 69;
#X obj 100 200 inlet;
#X text 10 10 Get the currently selected breakpoint from the envelope
generator ui., f 69;
#X obj 100 400 trigger b b;
#X obj 100 680 trigger b b;
#X obj 270 490 get egui__breakpoint selected;
#X obj 160 550 trigger p b;
#X obj 100 1609 outlet;
#X obj 340 1609 outlet;
#X obj 100 1559 pointer;
#X text 110 380 ---- Check attack breakpoints ----;
#X text 110 660 ---- Check release breakpoints ----;
#X text 110 1509 ---- Return result ----;
#X obj 160 1559 r \$0-pointer;
#X obj 160 580 s \$0-pointer;
#X text 110 250 ---- Initialization ----;
#X obj 100 270 trigger b b;
#X obj 160 520 spigot;
#X obj 160 460 trigger p p;
#X obj 270 770 get egui__breakpoint selected;
#X obj 160 830 trigger p b;
#X obj 160 860 s \$0-pointer;
#X obj 160 800 spigot;
#X obj 160 740 trigger p p;
#X obj 340 1559 symbol;
#X obj 390 1559 r \$0-type;
#X obj 270 610 s \$0-type;
#X obj 270 890 s \$0-type;
#X obj 270 580 symbol attack;
#X obj 270 860 symbol release;
#X obj 400 610 value _\$0_success;
#X msg 400 580 1;
#X obj 400 890 value _\$0_success;
#X msg 400 860 1;
#X text 10 110 The second outlet sends "attack" \, "release" or "none".
, f 69;
#X obj 100 1529 trigger b b b;
#X msg 130 300 0;
#X obj 130 330 value _\$0_success;
#X msg 280 300 -1;
#X obj 600 1609 outlet;
#X text 100 1629 Pointer;
#X text 340 1629 Breakpoint type;
#X text 600 1629 Index;
#X obj 280 330 value _\$0_selected_index;
#X obj 600 1559 value _\$0_selected_index;
#X obj 280 740 value _\$0_current_index;
#X obj 280 460 value _\$0_current_index;
#X obj 550 580 value _\$0_current_index;
#X obj 550 610 value _\$0_selected_index;
#X obj 550 860 value _\$0_current_index;
#X obj 550 890 value _\$0_selected_index;
#X text 10 90 The pointer will appear on the left outlet \, but could
be empty., f 69;
#X text 10 130 The third outlet sends the index (zero-based) or -1
, f 69;
#X obj 130 1020 select release;
#X obj 130 1100 select 0, f 9;
#X obj 130 1150 trigger b b;
#X text 110 940 ---- Sepcial case: Dummy release breakpoint ----;
#X obj 160 1210 getsize egui__main attack;
#X obj 160 1240 - 1;
#X obj 100 960 trigger b b;
#X obj 130 990 symbol;
#X obj 180 990 r \$0-type;
#X obj 130 1070 value _\$0_selected_index;
#X obj 160 1270 value _\$0_selected_index;
#X obj 130 1459 s \$0-type;
#X obj 130 1319 trigger b b;
#X obj 160 1379 s \$0-pointer;
#X obj 480 330 s \$0-type;
#X obj 480 300 symbol none;
#X obj 130 1430 symbol attack;
#X obj 130 430 ./egui-foreach-breakpoint \$1 attack;
#X obj 130 710 ./egui-foreach-breakpoint \$1 release;
#X obj 160 1180 ./egui-get-main \$1;
#X obj 160 1349 ./egui-get-breakpoint \$1 attack -1;
#X connect 3 0 18 0;
#X connect 5 0 6 0;
#X connect 5 1 72 0;
#X connect 6 0 61 0;
#X connect 6 1 73 0;
#X connect 7 0 19 1;
#X connect 8 0 16 0;
#X connect 8 1 30 0;
#X connect 8 1 33 0;
#X connect 8 1 49 0;
#X connect 11 0 9 0;
#X connect 15 0 11 1;
#X connect 18 0 5 0;
#X connect 18 1 38 0;
#X connect 18 1 40 0;
#X connect 18 1 70 0;
#X connect 19 0 8 0;
#X connect 20 0 19 0;
#X connect 20 1 7 0;
#X connect 21 0 24 1;
#X connect 22 0 23 0;
#X connect 22 1 31 0;
#X connect 22 1 35 0;
#X connect 22 1 51 0;
#X connect 24 0 22 0;
#X connect 25 0 24 0;
#X connect 25 1 21 0;
#X connect 26 0 10 0;
#X connect 27 0 26 1;
#X connect 30 0 28 0;
#X connect 31 0 29 0;
#X connect 33 0 32 0;
#X connect 35 0 34 0;
#X connect 37 0 11 0;
#X connect 37 1 26 0;
#X connect 37 2 46 0;
#X connect 38 0 39 0;
#X connect 40 0 45 0;
#X connect 46 0 41 0;
#X connect 49 0 50 0;
#X connect 51 0 52 0;
#X connect 55 0 64 0;
#X connect 56 0 57 0;
#X connect 57 0 67 0;
#X connect 57 1 74 0;
#X connect 59 0 60 0;
#X connect 60 0 65 0;
#X connect 61 0 37 0;
#X connect 61 1 62 0;
#X connect 62 0 55 0;
#X connect 63 0 62 1;
#X connect 64 0 56 0;
#X connect 67 0 71 0;
#X connect 67 1 75 0;
#X connect 70 0 69 0;
#X connect 71 0 66 0;
#X connect 72 0 20 0;
#X connect 72 1 48 0;
#X connect 73 0 25 0;
#X connect 73 1 47 0;
#X connect 74 0 59 0;
#X connect 75 0 68 0;
