#N struct egui__main float x2 float y2 float dx float dy float view
array attack egui__breakpoint array release egui__breakpoint;
#N struct egui__breakpoint float x float y float prev_x float prev_y
float enabled float selected float value float duration float starttime
;
#N canvas 0 49 1920 1009 12;
#X obj -30 -30 preset_hub k12 1 %hidden%;
#X text 10 10 Test for multiple instances of the envelope generator
UI.;
#X obj 100 130 ./envgen-gui-structs;
#X obj 100 180 loadbang;
#X obj 130 240 s egui-initialize;
#X text 100 100 ---- GUI Initialization ----;
#X text 500 100 ---- Simple audio synthesis using two [envgen~] ----
;
#X obj 500 400 osc~;
#X obj 550 500 ./envgen~;
#X obj 500 500 *~;
#X obj 500 570 output~;
#X obj 500 180 ./envgen~;
#X obj 630 470 r vca-in;
#X obj 630 500 s vca-out;
#X obj 577 146 r vco-in;
#X obj 580 180 s vco-out;
#X obj 500 240 snapshot~;
#X obj 500 270 * 440;
#X obj 530 210 bang~;
#X floatatom 500 300 5 0 0 1 Frequency - - 0 0 1, f 5;
#X obj 1000 140 ./envgen-gui Frequency vco-in vco-out;
#X obj 1400 140 ./envgen-gui Amplitude vca-in vca-out;
#X obj 100 210 trigger b b;
#X text 1000 100 ---- User interfaces under test ----;
#X msg 100 270 \; vco-in set attack 0.25 0 1 1000 0.5 2000 \; vco-in
set release 0 500 \; \; vca-in set attack 1 250 0.7 500 \; vca-in set
release 0.3 300 0 200 \;;
#X text 1000 480 ---- Click here to trigger the envelopes ----;
#X msg 1000 520 \; vco-in attack \; vca-in attack \;;
#X msg 1130 520 \; vco-in release \; vca-in release \;;
#X connect 3 0 22 0;
#X connect 7 0 9 0;
#X connect 8 0 9 1;
#X connect 8 2 13 0;
#X connect 9 0 10 0;
#X connect 9 0 10 1;
#X connect 11 0 16 0;
#X connect 11 2 15 0;
#X connect 12 0 8 0;
#X connect 14 0 11 0;
#X connect 16 0 17 0;
#X connect 17 0 19 0;
#X connect 18 0 16 0;
#X connect 19 0 7 0;
#X connect 22 0 24 0;
#X connect 22 1 4 0;
