#N canvas 0 49 1920 1009 12;
#X obj 100 300 inlet~;
#X obj 230 300 inlet~;
#X obj 100 830 outlet~;
#X obj 600 830 outlet~;
#X floatatom 890 330 5 0 0 1 Feedback_% - - 0 0 1, f 5;
#X floatatom 560 330 5 0 0 1 Frequency_Hz - - 0 0 1, f 5;
#X floatatom 740 330 5 0 0 1 Width_ms - - 0 0 1, f 5;
#X obj 200 680 loadbang;
#X msg 200 709 0;
#X obj 420 680 loadbang;
#X obj 700 680 loadbang;
#X obj 920 680 loadbang;
#X msg 420 710 25;
#X msg 700 710 1;
#X msg 920 710 35;
#X obj 100 770 /~ 2;
#X obj 320 769 /~ 2;
#X obj 600 769 /~ 2;
#X obj 820 769 /~ 2;
#X floatatom 400 330 5 0 0 1 Delay_ms - - 0 0 1, f 5;
#X text 10 10 Simple chorus/flanger effect;
#X obj 560 360 s \$0-frequency;
#X obj 400 360 s \$0-delay;
#X obj 740 360 s \$0-width;
#X obj 890 360 s \$0-feedback;
#X obj 100 330 s~ \$0-s-in1;
#X obj 230 330 s~ \$0-s-in2;
#X obj 100 520 r~ \$0-s-in1;
#X obj 320 520 r~ \$0-s-in1;
#X obj 600 520 r~ \$0-s-in2;
#X obj 820 520 r~ \$0-s-in2;
#X obj 140 580 r \$0-frequency;
#X obj 120 550 r \$0-delay;
#X obj 160 610 r \$0-width;
#X obj 180 640 r \$0-feedback;
#X obj 360 580 r \$0-frequency;
#X obj 340 550 r \$0-delay;
#X obj 380 610 r \$0-width;
#X obj 400 640 r \$0-feedback;
#X obj 640 580 r \$0-frequency;
#X obj 620 550 r \$0-delay;
#X obj 660 610 r \$0-width;
#X obj 680 640 r \$0-feedback;
#X obj 860 580 r \$0-frequency;
#X obj 840 550 r \$0-delay;
#X obj 880 610 r \$0-width;
#X obj 900 640 r \$0-feedback;
#X obj 560 300 inlet;
#X obj 400 300 inlet;
#X obj 740 300 inlet;
#X obj 890 300 inlet;
#X text 10 50 Inlets:;
#X text 10 90 2 - Audio: Input signal 2;
#X text 10 70 1 - Audio: Input signal 1;
#X text 10 170 6 - Float: Feedback in % [0...100];
#X text 300 50 Outlets:;
#X text 300 70 1 - Audio: Effect signal 1;
#X text 300 90 2 - Audio: Effect signal 2;
#X text 550 50 Typical values for chorus:;
#X text 830 50 Typical values for flanger:;
#X text 960 710 Phase offset in % [0...100];
#X text 830 70 - Delay < 10ms;
#X text 550 70 - Delay 20...30ms;
#X text 550 130 - No feedback;
#X text 830 130 - Feedback;
#X text 10 150 5 - Float: LFO sweep width in ms;
#X text 10 110 3 - Float: Signal delay in ms;
#X text 550 110 - LFO Sweep Width ~ 5ms;
#X text 550 90 - LFO Frequency < 30Hz;
#X text 830 90 - LFO Frequency ~ 10Hz;
#X text 830 110 - LFO Sweep Width ~ 1ms;
#X text 10 130 4 - Float: LFO frequency in Hz;
#X obj 100 740 ./chorus_voice;
#X obj 320 740 ./chorus_voice;
#X obj 600 740 ./chorus_voice;
#X obj 820 740 ./chorus_voice;
#X text 1100 50 ATTENTION: Delay + Sweep Width must be <= 60ms due
to the length of the internal delay line.;
#X connect 0 0 25 0;
#X connect 1 0 26 0;
#X connect 4 0 24 0;
#X connect 5 0 21 0;
#X connect 6 0 23 0;
#X connect 7 0 8 0;
#X connect 8 0 72 5;
#X connect 9 0 12 0;
#X connect 10 0 13 0;
#X connect 11 0 14 0;
#X connect 12 0 73 5;
#X connect 13 0 74 5;
#X connect 14 0 75 5;
#X connect 15 0 2 0;
#X connect 16 0 2 0;
#X connect 17 0 3 0;
#X connect 18 0 3 0;
#X connect 19 0 22 0;
#X connect 27 0 72 0;
#X connect 28 0 73 0;
#X connect 29 0 74 0;
#X connect 30 0 75 0;
#X connect 31 0 72 2;
#X connect 32 0 72 1;
#X connect 33 0 72 3;
#X connect 34 0 72 4;
#X connect 35 0 73 2;
#X connect 36 0 73 1;
#X connect 37 0 73 3;
#X connect 38 0 73 4;
#X connect 39 0 74 2;
#X connect 40 0 74 1;
#X connect 41 0 74 3;
#X connect 42 0 74 4;
#X connect 43 0 75 2;
#X connect 44 0 75 1;
#X connect 45 0 75 3;
#X connect 46 0 75 4;
#X connect 47 0 5 0;
#X connect 48 0 19 0;
#X connect 49 0 6 0;
#X connect 50 0 4 0;
#X connect 72 0 15 0;
#X connect 73 0 16 0;
#X connect 74 0 17 0;
#X connect 75 0 18 0;
