#N canvas 0 49 1920 1009 12;
#X obj -30 -30 preset_hub k12 1 %hidden%;
#X obj 100 80 inlet~;
#X obj 600 80 inlet;
#X obj 800 80 inlet;
#X obj 1000 80 inlet;
#X floatatom 600 110 5 0 0 1 LFO_Frequency_Hz - - 0 0 1, f 5;
#X floatatom 800 110 5 0 0 1 LFO_Width_ms - - 0 0 1, f 5;
#X obj 1200 80 inlet;
#X floatatom 1200 109 5 0 0 1 Phase_Offset_% - - 0 0 1, f 5;
#X obj 1200 137 / 100;
#X floatatom 1000 110 5 0 0 1 Feedback_% - - 0 0 1, f 5;
#X obj 1000 138 / 100;
#X obj 100 810 outlet~;
#X obj 100 530 osc~;
#X obj 140 710 *~;
#X obj 140 750 s~ \$0-s-feedback;
#X obj 600 138 s \$0-frequency;
#X obj 800 140 s \$0-width;
#X obj 1000 167 s \$0-feedback;
#X obj 1200 166 s \$0-offset;
#X obj 170 80 r~ \$0-s-feedback;
#X obj 180 680 r \$0-feedback;
#X obj 100 350 r \$0-frequency;
#X obj 150 500 r \$0-offset;
#X obj 370 500 r \$0-width;
#X obj 100 620 delread4~ \$0-chorus;
#X obj 400 80 inlet;
#X floatatom 400 110 5 0 0 1 Delay_ms - - 0 0 1, f 5;
#X obj 400 140 s \$0-delay;
#X obj 100 560 expr~ \\$f2 + ((($v1 + 1) / 2) * \\$f3);
#X obj 270 500 r \$0-delay;
#X obj 100 130 delwrite~ \$0-chorus 60000;
#X obj 190 410 random 10;
#X obj 100 380 trigger f b;
#X obj 100 440 expr \\$f1 + \\$f1 * (($f2 - 5) / 100);
#X connect 1 0 31 0;
#X connect 2 0 5 0;
#X connect 3 0 6 0;
#X connect 4 0 10 0;
#X connect 5 0 16 0;
#X connect 6 0 17 0;
#X connect 7 0 8 0;
#X connect 8 0 9 0;
#X connect 9 0 19 0;
#X connect 10 0 11 0;
#X connect 11 0 18 0;
#X connect 13 0 29 0;
#X connect 14 0 15 0;
#X connect 20 0 31 0;
#X connect 21 0 14 1;
#X connect 22 0 33 0;
#X connect 23 0 13 1;
#X connect 24 0 29 2;
#X connect 25 0 14 0;
#X connect 25 0 12 0;
#X connect 26 0 27 0;
#X connect 27 0 28 0;
#X connect 29 0 25 0;
#X connect 30 0 29 1;
#X connect 32 0 34 1;
#X connect 33 0 34 0;
#X connect 33 1 32 0;
#X connect 34 0 13 0;
