#N canvas 0 49 1920 1009 12;
#X obj -30 -30 preset_hub k12 1 %hidden%;
#N canvas 0 49 1920 1009 (subpatch) 0;
#X array wavetable-triangle1 515 float 0 black black;
#X coords 0 1 514 -1 200 200 1;
#X scroll 1;
#X restore 500 100 graph;
#N canvas 0 0 450 300 (subpatch) 0;
#X array wavetable-triangle2 515 float 0 black black;
#X coords 0 1 514 -1 200 200 1;
#X restore 710 100 graph;
#N canvas 0 0 450 300 (subpatch) 0;
#X array wavetable-triangle3 515 float 0 black black;
#X coords 0 1 514 -1 200 200 1;
#X restore 920 100 graph;
#N canvas 0 0 450 300 (subpatch) 0;
#X array wavetable-triangle4 515 float 0 black black;
#X coords 0 1 514 -1 200 200 1;
#X restore 1130 100 graph;
#N canvas 0 0 450 300 (subpatch) 0;
#X array wavetable-triangle5 515 float 0 black black;
#X coords 0 1 514 -1 200 200 1;
#X restore 1340 100 graph;
#N canvas 0 0 450 300 (subpatch) 0;
#X array wavetable-triangle6 515 float 0 black black;
#X coords 0 1 514 -1 200 200 1;
#X restore 1550 100 graph;
#N canvas 0 0 450 300 (subpatch) 0;
#X array wavetable-triangle7 515 float 0 black black;
#X coords 0 1 514 -1 200 200 1;
#X restore 500 310 graph;
#N canvas 0 0 450 300 (subpatch) 0;
#X array wavetable-triangle8 515 float 0 black black;
#X coords 0 1 514 -1 200 200 1;
#X restore 710 310 graph;
#N canvas 0 0 450 300 (subpatch) 0;
#X array wavetable-triangle9 515 float 0 black black;
#X coords 0 1 514 -1 200 200 1;
#X restore 920 310 graph;
#N canvas 0 0 450 300 (subpatch) 0;
#X array wavetable-triangle10 515 float 0 black black;
#X coords 0 1 514 -1 200 200 1;
#X restore 1130 310 graph;
#N canvas 0 0 450 300 (subpatch) 0;
#X array wavetable-triangle11 515 float 0 black black;
#X coords 0 1 514 -1 200 200 1;
#X restore 1340 310 graph;
#X text 10 10 Triangle wavetables;
#X msg 130 190 read -resize triangle1.wav wavetable-triangle1 \, read
-resize triangle2.wav wavetable-triangle2 \, read -resize triangle3.wav
wavetable-triangle3 \, read -resize triangle4.wav wavetable-triangle4
\, read -resize triangle5.wav wavetable-triangle5 \, read -resize triangle6.wav
wavetable-triangle6 \, read -resize triangle7.wav wavetable-triangle7
\, read -resize triangle8.wav wavetable-triangle8 \, read -resize triangle9.wav
wavetable-triangle9 \, read -resize triangle10.wav wavetable-triangle10
\, read -resize triangle11.wav wavetable-triangle11 \,, f 50;
#X obj 130 380 soundfiler;
#X obj 100 131 bng 20 250 50 0 empty empty empty 17 7 0 10 #fcfcfc
#000000 #000000 1;
#X obj 100 100 inlet;
#X obj 100 410 outlet;
#X obj 100 160 trigger b b;
#X connect 13 0 14 0;
#X connect 15 0 18 0;
#X connect 16 0 15 0;
#X connect 18 0 17 0;
#X connect 18 1 13 0;
