#N canvas 0 49 1920 1009 12;
#X obj -30 -30 preset_hub k12 1 %hidden%;
#X obj 500 200 inlet;
#X obj 500 280 line 0 1;
#X msg 500 250 list \$1 15;
#X obj 500 330 outlet;
#X connect 1 0 3 0;
#X connect 2 0 4 0;
#X connect 3 0 2 0;
