#N canvas 0 49 1920 1009 12;
#X obj -30 -30 preset_hub k12 1 %hidden%;
#X text 10 10 Utility to iterate over all breakpoints of attack or
release, f 69;
#X obj 130 330 pointer;
#X obj 120 610 - 1;
#X obj 120 640 until;
#X obj 140 680 f;
#X obj 180 680 + 1;
#X obj 100 200 inlet;
#X obj 140 930 outlet;
#X obj 120 580 trigger f b;
#X msg 180 640 0;
#X obj 130 360 s \$0-main-pointer;
#X obj 330 770 r \$0-main-pointer;
#X text 190 330 Output: main pointer;
#X text 110 250 ---- Get main instance ----;
#X msg 130 300 traverse pd-egui__ui \, next;
#X text 400 300 This gets the euig__main instance \, because it is
the only scalar in the egui__ui canvas., f 35;
#X obj 900 510 print Unknown breakpoint array;
#X obj 120 530 getsize egui__main attack;
#X obj 120 500 pointer;
#X obj 180 500 r \$0-main-pointer;
#X text 110 410 ---- Loop over wanted breakpoints ---;
#X obj 100 460 select attack release;
#X obj 500 500 pointer;
#X obj 560 500 r \$0-main-pointer;
#X obj 500 530 getsize egui__main release;
#X obj 140 770 element egui__main attack;
#X obj 500 610 - 1;
#X obj 500 640 until;
#X obj 520 680 f;
#X obj 560 680 + 1;
#X obj 500 580 trigger f b;
#X msg 560 640 0;
#X obj 720 770 r \$0-main-pointer;
#X text 850 770 Output: breakpoint pointer;
#X obj 520 770 element egui__main release;
#X text 10 40 \$1 must be the name of the array (attack or release).
, f 69;
#X text 10 60 A bang on the inlet starts the iteration., f 69;
#X obj 100 270 trigger b b;
#X obj 100 430 symbol \$1;
#X text 10 80 The breakpoint pointers will appear at the left outlet.
, f 69;
#X text 10 100 The right outlet will output the index \, zero-based.
, f 69;
#X obj 300 930 outlet;
#X obj 170 740 s \$0-counter;
#X obj 550 740 s \$0-counter;
#X obj 300 900 r \$0-counter;
#X obj 140 710 trigger f f f;
#X obj 520 710 trigger f f f;
#X obj 140 810 trigger a;
#X connect 2 0 11 0;
#X connect 3 0 4 0;
#X connect 4 0 5 0;
#X connect 5 0 46 0;
#X connect 6 0 5 1;
#X connect 7 0 38 0;
#X connect 9 0 3 0;
#X connect 9 1 10 0;
#X connect 10 0 5 0;
#X connect 12 0 26 1;
#X connect 15 0 2 0;
#X connect 18 0 9 0;
#X connect 19 0 18 0;
#X connect 20 0 19 0;
#X connect 22 0 19 0;
#X connect 22 1 23 0;
#X connect 22 2 17 0;
#X connect 23 0 25 0;
#X connect 24 0 23 0;
#X connect 25 0 31 0;
#X connect 26 0 48 0;
#X connect 27 0 28 0;
#X connect 28 0 29 0;
#X connect 29 0 47 0;
#X connect 30 0 29 1;
#X connect 31 0 27 0;
#X connect 31 1 32 0;
#X connect 32 0 29 0;
#X connect 33 0 35 1;
#X connect 35 0 48 0;
#X connect 38 0 39 0;
#X connect 38 1 15 0;
#X connect 39 0 22 0;
#X connect 45 0 42 0;
#X connect 46 0 26 0;
#X connect 46 1 43 0;
#X connect 46 2 6 0;
#X connect 47 0 35 0;
#X connect 47 1 44 0;
#X connect 47 2 30 0;
#X connect 48 0 8 0;
