#N canvas 0 49 1920 1009 12;
#X obj -30 -30 preset_hub k12 1 %hidden%;
#X text 10 10 Refresh UI widgets for the selected breakpoint, f 69
;
#X obj 100 150 inlet;
#X text 10 70 Send a bang to the inlet to trigger the sending., f
69;
#X obj 100 2010 outlet;
#X obj 100 1980 trigger b;
#X text 110 1950 ---- Confirm execution ----;
#X text 10 90 Sends a bang on its outlet when finished processing.
, f 69;
#X obj 130 250 ./egui-get-main;
#X obj 130 310 getsize egui__main attack;
#X obj 330 310 getsize egui__main release;
#X obj 130 400 +, f 29;
#X obj 130 429 - 1;
#X text 110 200 ---- Set number of HRadios for breakpoint selection
----;
#X obj 100 220 trigger b b;
#X obj 130 280 trigger p p;
#X text 10 40 Argument \$1 must be \$0 of the calling [envgen-gui]
instance., f 69;
#X obj 100 820 trigger b b;
#X obj 100 1100 trigger b b;
#X obj 140 850 ./egui-foreach-breakpoint attack, f 42;
#X obj 130 1130 ./egui-foreach-breakpoint release, f 42;
#X obj 100 720 trigger b b;
#X obj 140 779 value _\$0_selected_index;
#X obj 200 910 get egui__breakpoint selected;
#X obj 170 940 spigot;
#X obj 170 969 trigger p b;
#X obj 170 1060 s \$0-selected-breakpoint;
#X obj 200 1000 f, f 33;
#X obj 200 1029 value _\$0_selected_index;
#X text 110 700 ---- Highlight selected breakpoint ----;
#X obj 190 1190 get egui__breakpoint selected;
#X obj 160 1220 spigot;
#X obj 160 1249 trigger p b;
#X obj 160 1371 s \$0-selected-breakpoint;
#X obj 190 1280 f, f 33;
#X obj 190 1340 value _\$0_selected_index;
#X obj 130 370 value _\$0_len_attack;
#X obj 130 340 trigger b f;
#X obj 190 1309 expr \\$f1 + _\$0_len_attack;
#X obj 100 1410 trigger b b;
#X obj 130 1440 expr _\$0_selected_index - 1;
#X obj 190 1779 get egui__breakpoint value duration;
#X obj 250 1749 r \$0-selected-breakpoint;
#X text 110 1520 ---- Update value and duration fields ----;
#X obj 190 1749 pointer;
#X text 170 430 First dummy breakpoint cannot be selected;
#X obj 100 560 trigger b b;
#X obj 330 340 trigger b f;
#X obj 330 370 value _\$0_len_release;
#X text 110 540 --- Enable/disable delete button ---;
#X obj 140 590 expr _\$0_len_attack > 1 || _\$0_len_release > 1;
#X msg 130 1470 s \$1-ui-radios-in;
#X msg 130 458 number \$1;
#X obj 130 487 s \$1-ui-radios-in;
#X msg 140 619 interactive \$1;
#X obj 170 880 trigger p p;
#X obj 160 1160 trigger p p;
#X obj 160 1719 trigger b b;
#X obj 160 1839 trigger b b;
#X obj 160 1629 trigger b b;
#X msg 190 1659 1;
#X obj 190 1689 s \$1-update-ui-lock;
#X msg 190 1869 0;
#X obj 190 1899 s \$1-update-ui-lock;
#X obj 190 1809 s \$1-ui-value;
#X obj 320 1809 s \$1-ui-duration;
#X obj 140 648 s \$1-ui-remove-button-in;
#X msg 140 750 -1;
#X obj 100 1540 trigger b b;
#X obj 130 1570 expr _\$0_selected_index >= 0;
#X obj 130 1599 select 1;
#X text 340 1570 Prevent null-pointer when no breakpoints are set;
#X connect 2 0 14 0;
#X connect 5 0 4 0;
#X connect 8 0 15 0;
#X connect 9 0 37 0;
#X connect 10 0 47 0;
#X connect 11 0 12 0;
#X connect 12 0 52 0;
#X connect 14 0 46 0;
#X connect 14 1 8 0;
#X connect 15 0 9 0;
#X connect 15 1 10 0;
#X connect 17 0 18 0;
#X connect 17 1 19 0;
#X connect 18 0 39 0;
#X connect 18 1 20 0;
#X connect 19 0 55 0;
#X connect 19 1 27 1;
#X connect 20 0 56 0;
#X connect 20 1 34 1;
#X connect 21 0 17 0;
#X connect 21 1 67 0;
#X connect 23 0 24 1;
#X connect 24 0 25 0;
#X connect 25 0 26 0;
#X connect 25 1 27 0;
#X connect 27 0 28 0;
#X connect 30 0 31 1;
#X connect 31 0 32 0;
#X connect 32 0 33 0;
#X connect 32 1 34 0;
#X connect 34 0 38 0;
#X connect 36 0 11 0;
#X connect 37 0 36 0;
#X connect 37 1 36 0;
#X connect 38 0 35 0;
#X connect 39 0 68 0;
#X connect 39 1 40 0;
#X connect 40 0 51 0;
#X connect 41 0 64 0;
#X connect 41 1 65 0;
#X connect 42 0 44 1;
#X connect 44 0 41 0;
#X connect 46 0 21 0;
#X connect 46 1 50 0;
#X connect 47 0 48 0;
#X connect 47 1 48 0;
#X connect 48 0 11 1;
#X connect 50 0 54 0;
#X connect 52 0 53 0;
#X connect 54 0 66 0;
#X connect 55 0 24 0;
#X connect 55 1 23 0;
#X connect 56 0 31 0;
#X connect 56 1 30 0;
#X connect 57 0 58 0;
#X connect 57 1 44 0;
#X connect 58 1 62 0;
#X connect 59 0 57 0;
#X connect 59 1 60 0;
#X connect 60 0 61 0;
#X connect 62 0 63 0;
#X connect 67 0 22 0;
#X connect 68 0 5 0;
#X connect 68 1 69 0;
#X connect 69 0 70 0;
#X connect 70 0 59 0;
