#N canvas 0 49 1920 1009 12;
#X obj -30 -30 preset_hub k12 1 %hidden%;
#X text 10 10 Utility to iterate over all breakpoints of attack or
release, f 69;
#X obj 130 330 pointer;
#X obj 120 610 - 1;
#X obj 120 640 until;
#X obj 140 680 f;
#X obj 180 680 + 1;
#X obj 100 200 inlet;
#X obj 140 980 outlet;
#X msg 180 640 0;
#X obj 130 360 s \$0-main-pointer;
#X obj 330 850 r \$0-main-pointer;
#X text 190 330 Output: main pointer;
#X text 110 250 ---- Get main instance ----;
#X msg 130 300 traverse pd-egui__ui \, next;
#X text 400 300 This gets the euig__main instance \, because it is
the only scalar in the egui__ui canvas., f 35;
#X obj 120 530 getsize egui__main attack;
#X obj 120 500 pointer;
#X obj 180 500 r \$0-main-pointer;
#X text 110 410 ---- Loop over wanted breakpoints ---;
#X obj 100 460 select attack release;
#X obj 500 500 pointer;
#X obj 560 500 r \$0-main-pointer;
#X obj 500 530 getsize egui__main release;
#X obj 140 850 element egui__main attack;
#X obj 500 610 - 1;
#X obj 500 640 until;
#X obj 520 680 f;
#X obj 560 680 + 1;
#X msg 560 640 0;
#X obj 720 850 r \$0-main-pointer;
#X text 850 850 Output: breakpoint pointer;
#X obj 520 850 element egui__main release;
#X text 10 40 \$1 must be the name of the array (attack or release).
, f 69;
#X text 10 60 A bang on the inlet starts the iteration., f 69;
#X obj 100 270 trigger b b;
#X obj 100 430 symbol \$1;
#X text 10 90 The breakpoint pointers will appear at the left outlet.
, f 69;
#X obj 300 980 outlet;
#X obj 170 750 s \$0-counter;
#X obj 550 750 s \$0-counter;
#X obj 300 950 r \$0-counter;
#X obj 140 890 trigger a;
#X text 10 110 The second outlet will output the index \, zero-based.
, f 69;
#X text 10 130 The third outlet will send a bang on the last iteration.
, f 69;
#X obj 500 980 outlet;
#X obj 500 950 r \$0-last-iteration;
#X obj 890 500 print Unknown breakpoint type;
#X obj 140 710 trigger f f f f, f 22;
#X obj 290 779 select 1;
#X obj 290 808 s \$0-last-iteration;
#X obj 520 710 trigger f f f f, f 22;
#X obj 670 781 select 1;
#X obj 670 810 s \$0-last-iteration;
#X obj 500 580 trigger f b f, f 43;
#X obj 120 580 trigger f b f, f 43;
#X obj 290 750 expr \\$f1 == \\$f2 - 1;
#X obj 670 752 expr \\$f1 == \\$f2 - 1;
#X connect 2 0 10 0;
#X connect 3 0 4 0;
#X connect 4 0 5 0;
#X connect 5 0 48 0;
#X connect 6 0 5 1;
#X connect 7 0 35 0;
#X connect 9 0 5 0;
#X connect 11 0 24 1;
#X connect 14 0 2 0;
#X connect 16 0 55 0;
#X connect 17 0 16 0;
#X connect 18 0 17 0;
#X connect 20 0 17 0;
#X connect 20 1 21 0;
#X connect 20 2 47 0;
#X connect 21 0 23 0;
#X connect 22 0 21 0;
#X connect 23 0 54 0;
#X connect 24 0 42 0;
#X connect 25 0 26 0;
#X connect 26 0 27 0;
#X connect 27 0 51 0;
#X connect 28 0 27 1;
#X connect 29 0 27 0;
#X connect 30 0 32 1;
#X connect 32 0 42 0;
#X connect 35 0 36 0;
#X connect 35 1 14 0;
#X connect 36 0 20 0;
#X connect 41 0 38 0;
#X connect 42 0 8 0;
#X connect 46 0 45 0;
#X connect 48 0 24 0;
#X connect 48 1 6 0;
#X connect 48 2 39 0;
#X connect 48 3 56 0;
#X connect 49 0 50 0;
#X connect 51 0 32 0;
#X connect 51 1 28 0;
#X connect 51 2 40 0;
#X connect 51 3 57 0;
#X connect 52 0 53 0;
#X connect 54 0 25 0;
#X connect 54 1 29 0;
#X connect 54 2 57 1;
#X connect 55 0 3 0;
#X connect 55 1 9 0;
#X connect 55 2 56 1;
#X connect 56 0 49 0;
#X connect 57 0 52 0;
