#N canvas 0 49 1920 1009 12;
#X obj -30 -30 preset_hub k12 1 %hidden%;
#X text 10 10 Utility to iterate over all breakpoints of attack or
release, f 69;
#X text 10 40 Send the name of the array (attack or release) on the
inlet., f 69;
#X text 10 60 The breakpoint pointers will appear at the outlet.,
f 69;
#X obj 130 330 pointer;
#X obj 120 580 - 1;
#X obj 120 610 until;
#X obj 140 650 f;
#X obj 180 650 + 1;
#X obj 100 200 inlet;
#X obj 140 740 outlet;
#X obj 120 550 trigger f b;
#X msg 180 610 0;
#X obj 130 360 s \$0-main-pointer;
#X obj 290 650 r \$0-main-pointer;
#X text 190 330 Output: main pointer;
#X text 110 250 ---- Get main instance ----;
#X msg 130 300 traverse pd-egui__ui \, next;
#X text 430 300 This gets the euig__main instance \, because it is
the only scalar in the egui__ui canvas., f 35;
#X obj 100 270 trigger a b;
#X obj 900 480 print Unknown breakpoint array;
#X obj 120 500 getsize egui__main attack;
#X obj 120 470 pointer;
#X obj 180 470 r \$0-main-pointer;
#X text 110 410 ---- Loop over wanted breakpoints ---;
#X obj 100 430 select attack release;
#X obj 500 470 pointer;
#X obj 560 470 r \$0-main-pointer;
#X obj 500 500 getsize egui__main release;
#X obj 140 680 element egui__main attack;
#X obj 500 580 - 1;
#X obj 500 610 until;
#X obj 520 650 f;
#X obj 560 650 + 1;
#X obj 500 550 trigger f b;
#X msg 560 610 0;
#X obj 670 650 r \$0-main-pointer;
#X text 720 680 Output: breakpoint pointer;
#X obj 520 680 element egui__main release;
#X connect 4 0 13 0;
#X connect 5 0 6 0;
#X connect 6 0 7 0;
#X connect 7 0 8 0;
#X connect 7 0 29 0;
#X connect 8 0 7 1;
#X connect 9 0 19 0;
#X connect 11 0 5 0;
#X connect 11 1 12 0;
#X connect 12 0 7 0;
#X connect 14 0 29 1;
#X connect 17 0 4 0;
#X connect 19 0 25 0;
#X connect 19 1 17 0;
#X connect 21 0 11 0;
#X connect 22 0 21 0;
#X connect 23 0 22 0;
#X connect 25 0 22 0;
#X connect 25 1 26 0;
#X connect 25 2 20 0;
#X connect 26 0 28 0;
#X connect 27 0 26 0;
#X connect 28 0 34 0;
#X connect 29 0 10 0;
#X connect 30 0 31 0;
#X connect 31 0 32 0;
#X connect 32 0 33 0;
#X connect 32 0 38 0;
#X connect 33 0 32 1;
#X connect 34 0 30 0;
#X connect 34 1 35 0;
#X connect 35 0 32 0;
#X connect 36 0 38 1;
#X connect 38 0 10 0;
