#N canvas 0 49 1920 1009 12;
#X obj -30 -30 preset_hub k12 1 %hidden%;
#X obj 100 231 symbol \$2;
#X obj 170 339 get egui__breakpoint starttime duration;
#X obj 170 368 +;
#X text 10 110 \$2 must be the name of the array (attack or release).
, f 84;
#X text 10 90 \$1 must be \$0 of the envelope generator ui., f 84
;
#X text 10 140 A bang on the inlet starts the processing., f 84;
#X text 10 160 The outlet will return the starttime offset for display
of the array., f 84;
#X obj 100 200 inlet;
#X obj 100 260 select attack release;
#X obj 100 420 outlet;
#X msg 100 310 0;
#X text 10 10 Internal abstraction used by th [egui-recalc-breakpoints-xxx]
abstractions to calculate the starttime offset for the attack or release
array on the GOP canvas. This has been split into its own file \, as
the same calculation is needed to recalculate the x/y and value/duration
pairs., f 84;
#X obj 170 310 ./egui-get-breakpoint \$1 attack -1;
#X connect 1 0 9 0;
#X connect 2 0 3 0;
#X connect 2 1 3 1;
#X connect 3 0 10 0;
#X connect 8 0 1 0;
#X connect 9 0 11 0;
#X connect 9 1 13 0;
#X connect 11 0 10 0;
#X connect 13 0 2 0;
