#N canvas 0 49 1920 1009 12;
#X obj -30 -30 preset_hub k12 1 %hidden%;
#X obj 100 320 inlet;
#X text 10 10 Recalculation of all transient breakpoint values after
a change of the underlying data. Updates the following fields:, f
69;
#X text 10 220 Send a bang to the inlet to trigger the recalculation.
, f 69;
#X obj 100 1601 outlet;
#X text 10 120 - vd = Recalculate value/duration from x/y values,
f 69;
#X text 10 100 - xy = Recalculate x/y values from value/duration,
f 69;
#X text 10 150 With x and y dependent on "view ms" \, GOP width and
GOP height., f 69;
#X text 10 180 In any case will be starttime be recalculated as the
sum of all previous durations., f 69;
#X obj 100 1571 trigger b;
#X text 110 1551 ---- Confirm execution ----;
#X msg 560 810 0;
#X obj 100 390 trigger b b;
#X obj 140 720 ./egui-get-breakpoint attack 0;
#X obj 130 1000 route xy vd;
#X obj 220 1001 print Unknown message;
#X obj 100 910 trigger b b;
#X text 10 240 Sends a bang on its outlet when finished processing.
, f 69;
#X obj 130 940 symbol \$2;
#X text 10 80 Argument \$2 defines the type of calculation:, f 69
;
#X text 10 50 Argument \$1 must be \$0 of the calling [envgen-gui]
instance., f 69;
#X text 110 890 ---- Recalculate breakpoint data ----;
#X text 170 1041 ---- x/y needs updated start time ----;
#X text 610 1141 ---- Now we can recalc the start time ----;
#X text 170 1141 ---- Now we can recalc x/y ----;
#X obj 160 1061 ./egui-recalc-breakpoints-starttime attack;
#X obj 160 1091 ./egui-recalc-breakpoints-starttime release;
#X obj 600 1161 ./egui-recalc-breakpoints-starttime attack;
#X obj 600 1191 ./egui-recalc-breakpoints-starttime release;
#X obj 160 1161 ./egui-recalc-breakpoints-xy \$0 attack;
#X obj 160 1191 ./egui-recalc-breakpoints-xy \$0 release;
#X obj 600 1051 ./egui-recalc-breakpoints-vd \$0 attack;
#X obj 600 1081 ./egui-recalc-breakpoints-vd \$0 release;
#X text 610 1031 ---- duration affects start time ----;
#X obj 400 1601 outlet;
#X text 400 1551 ---- Data has been changed ----;
#X obj 400 1571 r \$0-data-changed;
#X obj 890 1050 s \$0-data-changed;
#X obj 890 1080 s \$0-data-changed;
#X obj 130 970 list trim 1;
#X text 360 720 Attack: Zero values \, but x y moved out of the GOP
;
#X text 110 370 ---- Set fixed values for dummy attack breakpoint ----
, f 70;
#X text 110 1240 ---- Set fixed values for dummy release breakpoint
----;
#X obj 100 1260 trigger b b;
#X obj 130 1380 ./egui-get-breakpoint attack -1;
#X obj 130 1290 ./egui-get-breakpoint release 0;
#X obj 140 420 trigger b b;
#X obj 140 520 trigger b b;
#X msg 170 450 -20;
#X obj 170 480 value _\$0_dummy_x;
#X obj 310 480 value _\$0_dummy_y;
#X obj 170 550 ./egui-get-breakpoint attack 1;
#X obj 170 580 spigot;
#X obj 140 750 spigot;
#X obj 130 1410 spigot;
#X obj 130 1320 spigot;
#X obj 170 610 get egui__breakpoint x y;
#X obj 170 640 expr ($f2 / \\$f1) * _\$0_dummy_x;
#X obj 170 670 value _\$0_dummy_y;
#X obj 140 840 set egui__breakpoint x prev_x y prev_y value duration
starttime enabled selected, f 82;
#X obj 140 810 value _\$0_dummy_x;
#X obj 420 810 value _\$0_dummy_y;
#X obj 280 810 value _\$0_dummy_x;
#X obj 140 780 trigger b b p, f 82;
#X obj 130 1350 trigger b p, f 81;
#X text 400 640 Place outside GOP with the line going through 0 \,
0;
#X obj 130 1470 get egui_breakpoint x prev_x y prev_y value duration
enabled, f 61;
#X text 400 1280 Must happend after the recalculation above \, because
the dummy release breakpoint could have been moved with the mouse and
this change first must be reflected in the last attack breakpoint in
[egui-recalc-breakpoints-vd]., f 82;
#X obj 130 1500 set egui_breakpoint x prev_x y prev_y value duration
enabled starttime, f 81;
#X msg 620 1470 0;
#X obj 130 1440 trigger p b;
#X connect 1 0 12 0;
#X connect 9 0 4 0;
#X connect 11 0 59 5;
#X connect 11 0 59 6;
#X connect 11 0 59 7;
#X connect 11 0 59 8;
#X connect 11 0 59 4;
#X connect 12 0 16 0;
#X connect 12 1 46 0;
#X connect 13 0 53 0;
#X connect 13 1 53 1;
#X connect 14 0 25 0;
#X connect 14 1 31 0;
#X connect 14 2 15 0;
#X connect 16 0 43 0;
#X connect 16 1 18 0;
#X connect 18 0 39 0;
#X connect 25 0 26 0;
#X connect 26 0 29 0;
#X connect 27 0 28 0;
#X connect 29 0 30 0;
#X connect 31 0 32 0;
#X connect 31 1 37 0;
#X connect 32 0 27 0;
#X connect 32 1 38 0;
#X connect 36 0 34 0;
#X connect 39 0 14 0;
#X connect 43 0 9 0;
#X connect 43 1 45 0;
#X connect 44 0 54 0;
#X connect 44 1 54 1;
#X connect 45 0 55 0;
#X connect 45 1 55 1;
#X connect 46 0 47 0;
#X connect 46 1 48 0;
#X connect 47 0 13 0;
#X connect 47 1 51 0;
#X connect 48 0 49 0;
#X connect 48 0 50 0;
#X connect 51 0 52 0;
#X connect 51 1 52 1;
#X connect 52 0 56 0;
#X connect 53 0 63 0;
#X connect 54 0 70 0;
#X connect 55 0 64 0;
#X connect 56 0 57 0;
#X connect 56 1 57 1;
#X connect 57 0 58 0;
#X connect 60 0 59 0;
#X connect 61 0 59 2;
#X connect 61 0 59 3;
#X connect 62 0 59 1;
#X connect 63 0 60 0;
#X connect 63 1 62 0;
#X connect 63 1 61 0;
#X connect 63 2 59 9;
#X connect 64 0 44 0;
#X connect 64 1 68 8;
#X connect 66 0 68 0;
#X connect 66 1 68 1;
#X connect 66 2 68 2;
#X connect 66 3 68 3;
#X connect 66 4 68 4;
#X connect 66 5 68 5;
#X connect 66 6 68 6;
#X connect 69 0 68 7;
#X connect 70 0 66 0;
#X connect 70 1 69 0;
