#N canvas 0 49 1920 798 12;
#X obj -30 -30 preset_hub k12 1 %hidden%;
#X obj 340 390 list append;
#X obj 300 420 trigger b l;
#X obj 300 240 inlet;
#X obj 300 480 outlet;
#X text 300 100 Splittet eine Liste in Teillisten mit \$1 einträgen
und gibt diese nacheinander am outlet aus.;
#X obj 300 360 list split;
#X obj 300 300 trigger l b;
#X obj 370 330 f \$1;
#X connect 1 0 6 0;
#X connect 2 0 1 0;
#X connect 2 1 4 0;
#X connect 3 0 7 0;
#X connect 6 0 2 0;
#X connect 6 1 1 1;
#X connect 7 0 6 0;
#X connect 7 1 8 0;
#X connect 8 0 6 1;
