#N canvas 0 49 1920 1009 12;
#X obj -30 -30 preset_hub k12 1 %hidden%;
#X obj 300 290 expr sqrt(($f1 + 1) / 2);
#X obj 300 260 * -1;
#X obj 530 290 expr sqrt(($f1 + 1) / 2);
#X floatatom 300 320 5 0 0 0 - - - 0 0 1, f 5;
#X floatatom 530 320 5 0 0 0 - - - 0 0 1, f 5;
#X obj 300 200 inlet;
#X obj 100 200 inlet~;
#X obj 100 420 outlet~;
#X obj 200 420 outlet~;
#X obj 100 370 *~;
#X obj 200 370 *~;
#X obj 300 230 trigger f f;
#X obj 200 200 inlet~;
#X text 10 10 Simple stereo balance using equal-power pan law., f
69;
#X text 10 110 The balancevalue must be between [-1...1] with 0 = center.
, f 69;
#X text 10 30 Mathematicaly this is the same as [pan-stereo] but with
split input channels. As the name says \, only the balance between
both channels (meaning their individual volumes) is adjusted \, but
the channels do not feed back into each other. This is the default
on most mixers., f 69;
#X connect 1 0 4 0;
#X connect 2 0 1 0;
#X connect 3 0 5 0;
#X connect 4 0 10 1;
#X connect 5 0 11 1;
#X connect 6 0 12 0;
#X connect 7 0 10 0;
#X connect 10 0 8 0;
#X connect 11 0 9 0;
#X connect 12 0 2 0;
#X connect 12 1 3 0;
#X connect 13 0 11 0;
