#N canvas 0 49 960 1009 12;
#X obj -30 -30 preset_hub k12 1 %hidden%;
#X obj 100 500 until;
#X obj 100 550 f;
#X obj 140 550 + 1;
#X obj 100 100 inlet;
#X obj 100 440 trigger b b;
#X obj 100 600 outlet;
#X text 10 10 Simple FOR \$1 to \$2 counting loop. Started with a bang
\, outputs the counted numbers in sequence. Start and end index can
either be given via two arguments or as a list to the inlet., f 69
;
#X obj 130 180 route symbol;
#X obj 130 210 list trim 1;
#X obj 130 240 route list;
#X obj 130 310 unpack f f;
#X floatatom 130 360 5 0 0 0 - - - 0 0 1, f 5;
#X floatatom 280 360 5 0 0 0 - - - 0 0 1, f 5;
#X obj 130 388 value _\$0_from;
#X obj 280 388 value _\$0_to;
#X obj 310 470 value _\$0_from;
#X obj 100 150 trigger b a;
#X obj 260 280 trigger b b;
#X obj 260 310 f \$1;
#X obj 320 310 f \$2;
#X obj 100 470 expr _\$0_to - _\$0_from + 1;
#X connect 1 0 2 0;
#X connect 2 0 3 0;
#X connect 2 0 6 0;
#X connect 3 0 2 1;
#X connect 4 0 17 0;
#X connect 5 0 21 0;
#X connect 5 1 16 0;
#X connect 8 0 9 0;
#X connect 8 1 10 0;
#X connect 9 0 10 0;
#X connect 10 0 11 0;
#X connect 10 1 18 0;
#X connect 11 0 12 0;
#X connect 11 1 13 0;
#X connect 12 0 14 0;
#X connect 13 0 15 0;
#X connect 16 0 2 1;
#X connect 17 0 5 0;
#X connect 17 1 8 0;
#X connect 18 0 19 0;
#X connect 18 1 20 0;
#X connect 19 0 12 0;
#X connect 20 0 13 0;
#X connect 21 0 1 0;
