#N canvas 0 49 1920 1009 12;
#X obj -30 -30 preset_hub k12 1 %hidden%;
#X obj 270 390 lop~;
#X obj 450 390 hip~;
#X obj 630 390 bp~;
#X obj 270 310 *~;
#X obj 450 310 *~;
#X obj 630 310 *~;
#X obj 100 200 inlet~;
#X obj 100 310 *~;
#X obj 100 580 outlet~;
#X floatatom 1300 320 5 0 0 0 - - - 0 0 1, f 5;
#X floatatom 1440 320 5 0 0 0 - - - 0 0 1, f 5;
#X obj 680 390 r \$0-frequency;
#X obj 490 390 r \$0-frequency;
#X obj 310 390 r \$0-frequency;
#X floatatom 1200 320 5 0 0 0 - - - 0 0 1, f 5;
#X obj 1200 348 s \$0-type;
#X obj 140 280 r \$0-type;
#X obj 310 280 r \$0-type;
#X obj 490 280 r \$0-type;
#X obj 670 280 r \$0-type;
#X obj 1200 200 r \$1-type;
#X obj 1440 200 r \$1-qfactor;
#X obj 1440 350 s \$0-qfactor;
#X obj 800 390 r \$0-qfactor;
#X text 10 60 Parameters:, f 74;
#X text 10 10 Filter for a single oscilator. Simply wraps a few basic
PD opcodes to provide NONE \, LP \, HP \, BP filters whose frequency
follow the played note., f 74;
#X text 10 150 Inlets: 1) Audio Signal \, 2) Frequency, f 74;
#X obj 1300 230 ./utils/declick;
#X obj 1440 230 ./utils/declick;
#X obj 1300 200 r \$1-cutoff;
#X obj 1300 350 s \$0-cutoff;
#X text 10 80 \$1 Prefix to receive configuration values …-type \,
…-cutoff \, …-qfactor, f 74;
#X obj 1000 200 inlet;
#X obj 1000 290 *;
#X obj 1040 230 r \$0-cutoff;
#X floatatom 1000 319 5 0 0 1 Frequency_Hz - - 0 0 1, f 5;
#X obj 1000 347 s \$0-frequency;
#X text 1000 170 ==== Played Note ====;
#X text 1200 170 ==== Parameters ====;
#X text 1200 390 0 = NONE;
#X text 1200 410 1 = Low-Pass;
#X text 1200 430 2 = High-Pass;
#X text 1200 450 3 = Band-Pass;
#X text 10 100 The cutoff value is multiplied with the played note's
frequency., f 74;
#X text 10 120 The Q factor is only relevant for the band-pass filter.
, f 74;
#X obj 1040 260 t b f;
#X obj 270 430 lop~;
#X obj 450 430 hip~;
#X obj 630 430 bp~;
#X obj 680 430 r \$0-frequency;
#X obj 490 430 r \$0-frequency;
#X obj 310 430 r \$0-frequency;
#X obj 800 430 r \$0-qfactor;
#X obj 270 470 lop~;
#X obj 450 470 hip~;
#X obj 630 470 bp~;
#X obj 680 470 r \$0-frequency;
#X obj 490 470 r \$0-frequency;
#X obj 310 470 r \$0-frequency;
#X obj 800 470 r \$0-qfactor;
#X obj 140 310 expr \\$i1 == 0;
#X obj 490 310 expr \\$i1 == 2;
#X obj 670 310 expr \\$i1 == 3;
#X obj 310 310 expr \\$i1 == 1;
#X obj 630 350 /~ 6;
#X obj 450 350 /~ 1;
#X obj 270 350 *~ 1;
#X connect 1 0 47 0;
#X connect 2 0 48 0;
#X connect 3 0 49 0;
#X connect 4 0 67 0;
#X connect 5 0 66 0;
#X connect 6 0 65 0;
#X connect 7 0 4 0;
#X connect 7 0 5 0;
#X connect 7 0 6 0;
#X connect 7 0 8 0;
#X connect 8 0 9 0;
#X connect 10 0 31 0;
#X connect 11 0 23 0;
#X connect 12 0 3 1;
#X connect 13 0 2 1;
#X connect 14 0 1 1;
#X connect 15 0 16 0;
#X connect 17 0 61 0;
#X connect 18 0 64 0;
#X connect 19 0 62 0;
#X connect 20 0 63 0;
#X connect 21 0 15 0;
#X connect 22 0 29 0;
#X connect 24 0 3 2;
#X connect 28 0 10 0;
#X connect 29 0 11 0;
#X connect 30 0 28 0;
#X connect 33 0 34 0;
#X connect 34 0 36 0;
#X connect 35 0 46 0;
#X connect 36 0 37 0;
#X connect 46 0 34 0;
#X connect 46 1 34 1;
#X connect 47 0 54 0;
#X connect 48 0 55 0;
#X connect 49 0 56 0;
#X connect 50 0 49 1;
#X connect 51 0 48 1;
#X connect 52 0 47 1;
#X connect 53 0 49 2;
#X connect 54 0 9 0;
#X connect 55 0 9 0;
#X connect 56 0 9 0;
#X connect 57 0 56 1;
#X connect 58 0 55 1;
#X connect 59 0 54 1;
#X connect 60 0 56 2;
#X connect 61 0 8 1;
#X connect 62 0 5 1;
#X connect 63 0 6 1;
#X connect 64 0 4 1;
#X connect 65 0 3 0;
#X connect 66 0 2 0;
#X connect 67 0 1 0;
