#N canvas 0 49 1920 1009 12;
#X obj -30 -30 preset_hub k12 1 %hidden%;
#X obj 100 100 inlet;
#X obj 100 130 trigger b b;
#X obj 100 580 outlet;
#X text 10 10 Initialize global parameters;
#X msg 130 160 \; p-out-mastervolume 0 \; \; p-glb-volume 1 \; p-glb-balance
0 \; p-glb-pbrange 2 \; \; in-expression 1 \; in-pitchbend 0 \; in-modulation
0 \; in-sustain 0 \; in-sustenuto 0 \; \; p-cho-frequency 1.5 \; p-cho-delay
30 \; p-cho-width 1.8 \; p-cho-feedback 0 \; p-cho-drywet 0.75 \; p-cho-enabled
1 \; \; p-rev-length 33 \; p-rev-crossover 3000 \; p-rev-hfdamping
0 \; p-rev-drywet 0.75 \; p-rev-enabled 1;
#X connect 1 0 2 0;
#X connect 2 0 3 0;
#X connect 2 1 5 0;
