#N canvas 0 49 1920 1009 12;
#X obj -30 -30 preset_hub k12 1 %hidden%;
#X obj 100 100 inlet;
#X obj 400 160 ./init-oscilator \$1 car 1 1;
#X obj 400 190 ./init-oscilator \$1 car 2 0;
#X text 10 10 Initialize partial with default parameters.;
#X text 10 30 \$1 must be the partial number starting from zero.;
#X text 10 50 \$2 must be the value for the "enabled" parameter.;
#X obj 100 290 outlet;
#X obj 400 220 ./init-oscilator \$1 car 3 0;
#X obj 400 250 ./init-oscilator \$1 car 4 0;
#X obj 400 280 ./init-oscilator \$1 car 5 0;
#X obj 400 310 ./init-oscilator \$1 car 6 0;
#X obj 400 340 ./init-oscilator \$1 car 7 0;
#X obj 400 370 ./init-oscilator \$1 car 8 0;
#X obj 400 400 ./init-oscilator \$1 car 9 0;
#X obj 400 430 ./init-oscilator \$1 car 10 0;
#X obj 400 460 ./init-oscilator \$1 car 11 0;
#X obj 400 490 ./init-oscilator \$1 car 12 0;
#X obj 400 520 ./init-oscilator \$1 car 13 0;
#X obj 400 550 ./init-oscilator \$1 car 14 0;
#X obj 400 580 ./init-oscilator \$1 car 15 0;
#X obj 400 610 ./init-oscilator \$1 car 16 0;
#X obj 100 130 trigger b b b;
#X obj 700 160 ./init-oscilator \$1 mod 1 1;
#X obj 700 190 ./init-oscilator \$1 mod 2 0;
#X obj 700 220 ./init-oscilator \$1 mod 3 0;
#X obj 700 250 ./init-oscilator \$1 mod 4 0;
#X obj 700 280 ./init-oscilator \$1 mod 5 0;
#X obj 700 310 ./init-oscilator \$1 mod 6 0;
#X obj 700 340 ./init-oscilator \$1 mod 7 0;
#X obj 700 370 ./init-oscilator \$1 mod 8 0;
#X obj 130 160 list append \$1 \$2;
#X msg 130 190 \; p-p\$1-enabled \$2 \; p-p\$1-volume 1 \; p-p\$1-balance
0 \;;
#X connect 1 0 22 0;
#X connect 2 0 3 0;
#X connect 3 0 8 0;
#X connect 8 0 9 0;
#X connect 9 0 10 0;
#X connect 10 0 11 0;
#X connect 11 0 12 0;
#X connect 12 0 13 0;
#X connect 13 0 14 0;
#X connect 14 0 15 0;
#X connect 15 0 16 0;
#X connect 16 0 17 0;
#X connect 17 0 18 0;
#X connect 18 0 19 0;
#X connect 19 0 20 0;
#X connect 20 0 21 0;
#X connect 22 0 7 0;
#X connect 22 1 31 0;
#X connect 22 2 2 0;
#X connect 22 2 23 0;
#X connect 23 0 24 0;
#X connect 24 0 25 0;
#X connect 25 0 26 0;
#X connect 26 0 27 0;
#X connect 27 0 28 0;
#X connect 28 0 29 0;
#X connect 29 0 30 0;
#X connect 31 0 32 0;
