#N struct vac__voice float x float y float voice float note float velocity
float active float time float sustain float sustenuto float bg_color
float sustain_color float sustenuto_color;
#N struct vac__main float polyphony array voices vac__voice;
#N canvas 0 49 1920 1009 12;
#X obj -30 -30 preset_hub k12 1 %hidden%;
#X obj 10 120 ./main2;
#X obj 0 0 cnv 15 500 30 empty empty MiniClavier:\ Headless\ with\ Preset\ Handling
10 12 0 14 #e0e0e0 #404040 0;
#X text 10 40 This is basically the MiniClavier synthesizer without
the GUI (to save CPU cycles or where the GUI cannot be used anyway).
Technically it wraps the synth enginge (main2.pd) and adds a mechanism
to save and load presets., f 68;
#X obj 100 230 ./preset/preset-manager pm;
#X obj 400 200 r cmd-load-preset;
#X msg 400 230 load-file;
#X obj 600 200 r cmd-save-preset;
#X msg 600 229 save-file;
#X text 710 230 <---- Click messages to load or save preset files;
#X obj 100 430 ./preset/preset-value pm float p-glb-volume;
#X obj 100 460 ./preset/preset-value pm float p-glb-panorama;
#X obj 100 490 ./preset/preset-value pm float p-glb-pbrange;
#X obj 490 430 ./preset/preset-value pm float p-cho-frequency;
#X obj 490 460 ./preset/preset-value pm float p-cho-delay;
#X obj 490 490 ./preset/preset-value pm float p-cho-width;
#X obj 490 520 ./preset/preset-value pm float p-cho-feedback;
#X obj 490 550 ./preset/preset-value pm float p-cho-drywet;
#X obj 490 580 ./preset/preset-value pm float p-cho-enabled;
#X obj 890 430 ./preset/preset-value pm float p-rev-length;
#X obj 890 460 ./preset/preset-value pm float p-rev-crossover;
#X obj 890 490 ./preset/preset-value pm float p-rev-hfdamping;
#X obj 890 520 ./preset/preset-value pm float p-rev-drywet;
#X obj 890 550 ./preset/preset-value pm float p-rev-enabled;
#X text 100 400 ---- Global Parameters ----;
#X text 490 400 ---- Chorus ----;
#X text 890 400 ---- Reverb ----;
#X obj 400 320 s reinit;
#X obj 400 260 trigger b a;
#X obj 600 260 s \$0-preset-manager;
#X obj 100 200 r \$0-preset-manager;
#X obj 420 290 s \$0-preset-manager;
#X connect 5 0 6 0;
#X connect 6 0 28 0;
#X connect 7 0 8 0;
#X connect 8 0 29 0;
#X connect 28 0 27 0;
#X connect 28 1 31 0;
#X connect 30 0 4 0;
