#N canvas 0 49 1920 1009 12;
#X obj -30 -30 preset_hub k12 1 %hidden%;
#X obj 100 300 inlet;
#X obj 100 1060 phasor~;
#X obj 100 1100 +~;
#X obj 100 1260 tabread4~;
#X obj 0 30 cnv 15 600 200 empty empty empty 20 12 0 14 #f5f5f5 #404040
0;
#X text 10 80 \$3 must be the number of wavetables (e.g. 11 for 1/octave)
\, starting with one., f 82;
#X obj 0 0 cnv 15 600 30 empty empty Single\ carrier/modulator\ oscillator
12 12 0 14 #e0e0e0 #404040 0;
#X obj 0 230 cnv 10 600 10 empty empty empty 20 12 0 14 #e0e0e0 #404040
0;
#X text 10 60 \$2 must be the prefix of the wavetable arrays \, e.g.
"p1-carrier-L", f 82;
#X text 10 130 The first inlet takes list of [frequency \, velocity(
pairs., f 82;
#X text 10 150 The second inlet takes an optional modulator audio signal
for FM., f 82;
#X text 10 180 For this to work \, the synthesizer must have calcualted
the carrier and modulator wavetables with the wanted harmonics., f
82;
#X obj 200 1060 inlet~;
#X text 200 1030 Modulator Signal;
#X obj 200 1471 noise~;
#X text 10 40 \$1 must be the prefix to receive parameters \, e.g.
"p-p1-car", f 82;
#X obj 200 1511 *~ 0;
#X floatatom 280 1400 5 0 0 1 Noise_Volume - - 0 0 1, f 5;
#X text 280 1280 Noise Level;
#X floatatom 200 450 5 0 0 1 Frequency_Factor - - 0 0 1, f 5;
#X floatatom 200 600 5 0 0 1 Cents - - 0 0 1, f 5;
#X text 200 510 Detune;
#X obj 200 540 r \$1-detune;
#X text 200 360 Frequency Scaling;
#X obj 100 1602 outlet~;
#X obj 100 1552 +~;
#X obj 100 490 *;
#X obj 100 640 expr \\$f1 * pow(2 \, \\$f2/1200);
#X text 300 640 See: https://en.wikipedia.org/wiki/Cent_(music)#Use
;
#X msg 200 1220 set \$1;
#X obj 200 1190 r \$0-wavetable;
#X text 200 1160 Selected Wavetable;
#X msg 200 1250;
#X floatatom 100 670 5 0 0 1 Hz - - 0 0 1, f 5;
#X obj 100 740 trigger f f;
#X text 100 270 Frequency;
#X obj 620 20 loadbang;
#X obj 620 80 expr ceil(float(128) / 12 / \$3);
#X floatatom 620 109 5 0 0 1 Octaves/Wavetable - - 0 0 1, f 5;
#X obj 620 50 bng 20 250 50 0 empty empty empty 17 7 0 10 #fcfcfc #000000
#000000 1;
#X obj 130 770 ftom;
#X obj 130 860 symbol \$2;
#X obj 130 830 trigger b f, f 14;
#X obj 130 890 pack s f, f 14;
#X obj 130 949 s \$0-wavetable;
#X text 110 720 ---- Select wavetable ----;
#X text 110 330 ---- Calculate frequency ----;
#X text 110 1000 ---- Generate audio signal ----;
#X obj 620 140 value _\$0_octaves_per_wavetable;
#X obj 200 390 r \$1-frequency;
#X obj 280 1310 r \$1-noise-volume;
#X floatatom 420 1400 5 0 0 1 Noise_Enabled - - 0 0 1, f 5;
#X obj 420 1340 r \$1-noise-enabled;
#X obj 420 1431 trigger b f;
#X text 10 100 \$4 must be L or R \, so that the noise panorama can
be calculated accordingly., f 82;
#X obj 920 80 symbol \$4;
#X obj 920 110 select L R;
#X msg 920 140 -1;
#X msg 960 140 1;
#X obj 920 200 value _\$0_noise_pan;
#X obj 570 1280 r \$1-noise-panorama;
#X obj 610 1340 r \$0-noise-pan;
#X obj 570 1340 *;
#X obj 570 1370 expr sqrt(($f1 + 1) / 2);
#X floatatom 570 1401 5 0 0 1 Noise_Panorama - - 0 0 1, f 5;
#X obj 570 1431 trigger b f;
#X obj 280 1471 expr \\$f1 * \\$f2 * \\$f3;
#X obj 200 420 ./utils/declick;
#X obj 200 570 ./utils/declick;
#X obj 280 1340 ./utils/declick;
#X obj 420 1370 ./utils/declick;
#X obj 570 1310 ./utils/declick;
#X obj 280 1370 expr sqrt($f1);
#X floatatom 920 170 5 0 0 1 Pan_Factor - - 0 0 1, f 5;
#X obj 130 800 expr max(1 \, ceil($f1 / 12 / _\$0_octaves_per_wavetable))
;
#X msg 130 920 symbol \$1-\$2;
#X obj 300 1060 r \$0-wavetable;
#X obj 300 1089 expr max(size("$s1") - 3 \, 1);
#X obj 100 1130 expr~ modf($v1) * \\$f2 + 1;
#X connect 1 0 27 0;
#X connect 2 0 3 0;
#X connect 3 0 79 0;
#X connect 4 0 26 0;
#X connect 13 0 3 1;
#X connect 15 0 17 0;
#X connect 17 0 26 0;
#X connect 18 0 67 0;
#X connect 20 0 27 1;
#X connect 21 0 28 1;
#X connect 23 0 69 0;
#X connect 26 0 25 0;
#X connect 27 0 28 0;
#X connect 28 0 34 0;
#X connect 30 0 4 0;
#X connect 30 0 33 0;
#X connect 31 0 30 0;
#X connect 34 0 35 0;
#X connect 35 0 2 0;
#X connect 35 1 41 0;
#X connect 37 0 40 0;
#X connect 38 0 39 0;
#X connect 39 0 49 0;
#X connect 40 0 38 0;
#X connect 40 0 56 0;
#X connect 41 0 75 0;
#X connect 42 0 44 0;
#X connect 43 0 42 0;
#X connect 43 1 44 1;
#X connect 44 0 76 0;
#X connect 50 0 68 0;
#X connect 51 0 70 0;
#X connect 52 0 54 0;
#X connect 53 0 71 0;
#X connect 54 0 67 0;
#X connect 54 1 67 1;
#X connect 56 0 57 0;
#X connect 57 0 58 0;
#X connect 57 1 59 0;
#X connect 58 0 74 0;
#X connect 61 0 72 0;
#X connect 62 0 63 1;
#X connect 63 0 64 0;
#X connect 64 0 65 0;
#X connect 65 0 66 0;
#X connect 66 0 67 0;
#X connect 66 1 67 2;
#X connect 67 0 17 1;
#X connect 68 0 20 0;
#X connect 69 0 21 0;
#X connect 70 0 73 0;
#X connect 71 0 52 0;
#X connect 72 0 63 0;
#X connect 73 0 18 0;
#X connect 74 0 60 0;
#X connect 75 0 43 0;
#X connect 76 0 45 0;
#X connect 77 0 78 0;
#X connect 78 0 79 1;
#X connect 79 0 4 0;
