#N canvas 0 49 1920 1009 12;
#X obj -30 -30 preset_hub k12 1 %hidden%;
#X text 10 10 A single oscilator inside a partial, f 69;
#X text 10 30 \$1 must be the prefix used to receive its parameters
\, e.g p-p0-car1 for partial 0 \, carrier 1 oscilator, f 69;
#X obj 100 130 inlet;
#X floatatom 100 160 5 0 0 1 Frequency_Hz - - 0 0 1, f 5;
#X text 100 100 ==== Inlets: Frequency \, Modulators ====;
#X obj 300 130 inlet~;
#X obj 400 130 inlet~;
#X floatatom 1000 190 5 0 0 1 Frequency - - 0 0 1, f 5;
#X obj 1000 160 ./utils/declick;
#X floatatom 1200 190 5 0 0 1 Volume - - 0 0 1, f 5;
#X obj 1200 160 ./utils/declick;
#X floatatom 1400 190 5 0 0 1 Panorama - - 0 0 1, f 5;
#X obj 1400 160 ./utils/declick;
#X floatatom 600 190 5 0 0 1 Enabled - - 0 0 1, f 5;
#X obj 600 160 ./utils/declick;
#X text 600 100 ==== Oscilator Parameters ====;
#X obj 600 130 r \$1-enabled;
#X obj 800 130 r \$1-waveform;
#X obj 1000 130 r \$1-frequency;
#X obj 1200 130 r \$1-volume;
#X obj 1400 130 r \$1-panorama;
#X obj 600 220 s \$0-enabled;
#X obj 800 220 s \$0-waveform;
#X obj 1200 220 s \$0-volume;
#X obj 1400 220 s \$0-panorama;
#X obj 100 930 outlet~;
#X obj 180 930 outlet~;
#X obj 100 800 *~;
#X obj 100 830 *~;
#X obj 140 800 r \$0-enabled;
#X obj 140 830 r \$0-volume;
#X obj 270 880 r \$0-panorama;
#X obj 100 880 ./utils/balance-stereo;
#X obj 400 800 *~;
#X obj 400 830 *~;
#X obj 440 800 r \$0-enabled;
#X obj 440 830 r \$0-volume;
#X obj 1000 220 s \$0-frequency2;
#X obj 100 188 s \$0-frequency1;
#X obj 100 520 ./oscilator-tabosc4~;
#X floatatom 800 190 5 0 0 1 Waveform - - 0 0 1, f 5;
#X obj 100 400 r \$0-frequency1;
#X obj 130 430 r \$0-frequency2;
#X obj 160 460 r \$0-waveform;
#X obj 400 520 ./oscilator-tabosc4~;
#X obj 400 400 r \$0-frequency1;
#X obj 430 430 r \$0-frequency2;
#X obj 460 460 r \$0-waveform;
#X connect 3 0 4 0;
#X connect 4 0 39 0;
#X connect 8 0 38 0;
#X connect 9 0 8 0;
#X connect 10 0 24 0;
#X connect 11 0 10 0;
#X connect 12 0 25 0;
#X connect 13 0 12 0;
#X connect 14 0 22 0;
#X connect 15 0 14 0;
#X connect 17 0 15 0;
#X connect 18 0 41 0;
#X connect 19 0 9 0;
#X connect 20 0 11 0;
#X connect 21 0 13 0;
#X connect 28 0 29 0;
#X connect 29 0 33 0;
#X connect 30 0 28 1;
#X connect 31 0 29 1;
#X connect 32 0 33 2;
#X connect 33 0 26 0;
#X connect 33 1 27 0;
#X connect 34 0 35 0;
#X connect 35 0 33 1;
#X connect 36 0 34 1;
#X connect 37 0 35 1;
#X connect 40 0 28 0;
#X connect 41 0 23 0;
#X connect 42 0 40 0;
#X connect 43 0 40 1;
#X connect 44 0 40 2;
#X connect 45 0 34 0;
#X connect 46 0 45 0;
#X connect 47 0 45 1;
#X connect 48 0 45 2;
