#N canvas 0 49 1920 1009 12;
#X obj -30 -30 preset_hub k12 1 %hidden%;
#X obj 100 198 inlet;
#X obj 250 198 inlet;
#X obj 420 208 inlet;
#X floatatom 100 230 5 0 0 1 Frequency_Hz - - 0 0 1, f 5;
#X floatatom 250 230 5 0 0 1 Frequency_Hz - - 0 0 1, f 5;
#X floatatom 420 240 5 0 0 1 Waveform - - 0 0 1, f 5;
#X obj 700 200 inlet~;
#X obj 100 610 tabosc4~ osc-sine;
#X obj 250 610 tabosc4~ osc-saw;
#X obj 100 660 outlet~;
#X text 10 10 Wavetable synthesis inside a oscilator (generates the
wanted waveform), f 84;
#X obj 390 610 tabosc4~ osc-square;
#X obj 560 580 noise~;
#X obj 560 610 *~;
#X text 10 40 At the top-most level of the synthesizer three tables
with the actual waveforms must be created and pre-filled: osc-sine
\, osc-saw \, osc-square. The only exception to this rule is the noise
generator \, for which PD's [noise~] is used., f 84;
#X obj 100 280 *;
#X obj 100 330 swap;
#X obj 100 360 pack f f;
#X obj 100 390 route 0 1 2 3;
#X obj 620 520 select 0;
#X msg 620 549 0;
#X msg 692 552 1;
#X floatatom 100 490 5 0 0 0 - - - 0 0 1, f 5;
#X floatatom 250 490 5 0 0 0 - - - 0 0 1, f 5;
#X floatatom 390 490 5 0 0 0 - - - 0 0 1, f 5;
#X floatatom 620 490 5 0 0 0 - - - 0 0 1, f 5;
#X floatatom 620 580 5 0 0 0 - - - 0 0 1, f 5;
#X msg 100 420 \$1 0 0 0;
#X msg 200 420 0 \$1 0 0;
#X msg 300 420 0 0 \$1 0;
#X msg 400 420 0 0 0 \$1;
#X msg 500 420 0 0 0 0;
#X obj 100 450 unpack f f f f;
#X text 570 420 <--- Send frequency to selected table \, disable others
;
#X connect 1 0 4 0;
#X connect 2 0 5 0;
#X connect 3 0 6 0;
#X connect 4 0 16 0;
#X connect 5 0 16 1;
#X connect 6 0 17 1;
#X connect 8 0 10 0;
#X connect 9 0 10 0;
#X connect 12 0 10 0;
#X connect 13 0 14 0;
#X connect 14 0 10 0;
#X connect 16 0 17 0;
#X connect 17 0 18 0;
#X connect 17 1 18 1;
#X connect 18 0 19 0;
#X connect 19 0 28 0;
#X connect 19 1 29 0;
#X connect 19 2 30 0;
#X connect 19 3 31 0;
#X connect 19 4 32 0;
#X connect 20 0 21 0;
#X connect 20 1 22 0;
#X connect 21 0 27 0;
#X connect 22 0 27 0;
#X connect 23 0 8 0;
#X connect 24 0 9 0;
#X connect 25 0 12 0;
#X connect 26 0 20 0;
#X connect 27 0 14 1;
#X connect 28 0 33 0;
#X connect 29 0 33 0;
#X connect 30 0 33 0;
#X connect 31 0 33 0;
#X connect 32 0 33 0;
#X connect 33 0 23 0;
#X connect 33 1 24 0;
#X connect 33 2 25 0;
#X connect 33 3 26 0;
