#N canvas 0 49 1920 1009 12;
#X obj -30 -30 preset_hub k12 1 %hidden%;
#X obj 100 580 outlet~;
#X obj 100 100 inlet;
#X obj 300 100 inlet;
#X obj 100 390 osc~;
#X obj 100 470 *~;
#X floatatom 100 130 5 0 0 1 Frequency_Hz - - 0 0 1, f 5;
#X floatatom 300 130 5 0 0 1 Velocity - - 0 0 1, f 5;
#X floatatom 500 160 5 0 0 1 Enabled - - 0 0 1, f 5;
#X floatatom 700 160 5 0 0 1 Harmonic - - 0 0 1, f 5;
#X obj 500 130 ./utils/declick;
#X obj 700 130 ./utils/declick;
#X obj 100 360 *;
#X obj 500 199 s \$0-enabled;
#X obj 100 530 *~;
#X obj 300 169 ./utils/declick;
#X obj 140 500 r \$0-enabled;
#X obj 100 158 s \$0-frequency;
#X obj 300 198 s \$0-velocity;
#X text 100 70 ==== Inlets: Frequency \, Velocity ====;
#X text 500 70 ==== Partial Parameters ====;
#X obj 100 300 r \$0-frequency;
#X obj 140 440 r \$0-velocity;
#X text 100 270 ==== Tone Generation ====;
#X obj 700 200 s \$0-osc1-f;
#X obj 140 330 r \$0-osc1-f;
#X obj 500 100 r p-p\$1-enabled;
#X obj 700 100 r p-p\$1-osc1-f;
#X connect 2 0 6 0;
#X connect 3 0 7 0;
#X connect 4 0 5 0;
#X connect 5 0 14 0;
#X connect 6 0 17 0;
#X connect 7 0 15 0;
#X connect 8 0 13 0;
#X connect 9 0 24 0;
#X connect 10 0 8 0;
#X connect 11 0 9 0;
#X connect 12 0 4 0;
#X connect 14 0 1 0;
#X connect 15 0 18 0;
#X connect 16 0 14 1;
#X connect 21 0 12 0;
#X connect 22 0 5 1;
#X connect 25 0 12 1;
#X connect 26 0 10 0;
#X connect 27 0 11 0;
