#N canvas 0 49 1920 1009 12;
#X obj -30 -30 preset_hub k12 1 %hidden%;
#X obj 100 1000 outlet~;
#X obj 100 100 inlet;
#X obj 100 970 *~;
#X floatatom 100 160 5 0 0 1 Frequency_Hz - - 0 0 1, f 5;
#X floatatom 300 160 5 0 0 1 Velocity - - 0 0 1, f 5;
#X floatatom 600 160 5 0 0 1 Enabled - - 0 0 1, f 5;
#X obj 600 130 ./utils/declick;
#X obj 600 191 s \$0-enabled;
#X obj 300 190 ./utils/declick;
#X obj 100 188 s \$0-frequency;
#X obj 300 220 s \$0-velocity;
#X text 100 70 ==== Inlets: Frequency \, Velocity ====;
#X obj 100 320 r \$0-frequency;
#X obj 600 100 r p-p\$1-enabled;
#X floatatom 1000 160 5 0 0 1 Balance - - 0 0 1, f 5;
#X obj 1000 130 ./utils/declick;
#X obj 300 1000 outlet~;
#X obj 300 970 *~;
#X floatatom 800 190 5 0 0 1 Volume - - 0 0 1, f 5;
#X obj 800 130 ./utils/declick;
#X obj 800 100 r p-p\$1-volume;
#X obj 800 222 s \$0-volume;
#X text 600 70 ==== General Partial Parameters ====;
#X text 410 190 TODO: Remove;
#X obj 1000 100 r p-p\$1-balance;
#X obj 1000 190 s \$0-balance;
#X obj 100 900 ./utils/balance-stereo;
#X obj 270 900 r \$0-balance;
#X obj 800 160 expr sqrt($f1);
#X text 10 10 A single partial inside a voice;
#X obj 100 350 ./oscilator p-p\$1-car1;
#X obj 500 350 ./oscilator p-p\$1-car2;
#X obj 500 320 r \$0-frequency;
#X obj 900 320 r \$0-frequency;
#X obj 1300 320 r \$0-frequency;
#X obj 900 350 ./oscilator p-p\$1-car3;
#X obj 1300 350 ./oscilator p-p\$1-car4;
#X obj 100 450 r \$0-frequency;
#X obj 500 450 r \$0-frequency;
#X obj 900 450 r \$0-frequency;
#X obj 1300 450 r \$0-frequency;
#X obj 100 480 ./oscilator p-p\$1-car5;
#X obj 500 480 ./oscilator p-p\$1-car6;
#X obj 900 480 ./oscilator p-p\$1-car7;
#X obj 1300 480 ./oscilator p-p\$1-car8;
#X obj 100 380 throw~ \$0-carrier_l;
#X obj 100 510 throw~ \$0-carrier_l;
#X obj 250 380 throw~ \$0-carrier_r;
#X obj 250 510 throw~ \$0-carrier_r;
#X obj 500 510 throw~ \$0-carrier_l;
#X obj 500 380 throw~ \$0-carrier_l;
#X obj 650 380 throw~ \$0-carrier_r;
#X obj 650 510 throw~ \$0-carrier_r;
#X obj 900 380 throw~ \$0-carrier_l;
#X obj 900 510 throw~ \$0-carrier_l;
#X obj 1050 510 throw~ \$0-carrier_r;
#X obj 1050 380 throw~ \$0-carrier_r;
#X obj 1300 380 throw~ \$0-carrier_l;
#X obj 1300 510 throw~ \$0-carrier_l;
#X obj 1450 510 throw~ \$0-carrier_r;
#X obj 1450 380 throw~ \$0-carrier_r;
#X obj 250 870 catch~ \$0-carrier_r;
#X obj 100 870 catch~ \$0-carrier_l;
#X obj 430 930 *;
#X obj 540 900 trigger b f;
#X obj 540 870 r \$0-enabled;
#X obj 430 870 r \$0-velocity;
#X text 100 300 ==== Carrier Stage ====;
#X text 100 850 ==== Output Stage ====;
#X obj 100 130 unpack f f;
#X connect 2 0 70 0;
#X connect 3 0 1 0;
#X connect 4 0 10 0;
#X connect 5 0 9 0;
#X connect 6 0 8 0;
#X connect 7 0 6 0;
#X connect 9 0 11 0;
#X connect 13 0 31 0;
#X connect 14 0 7 0;
#X connect 15 0 26 0;
#X connect 16 0 15 0;
#X connect 18 0 17 0;
#X connect 19 0 22 0;
#X connect 20 0 29 0;
#X connect 21 0 20 0;
#X connect 25 0 16 0;
#X connect 27 0 3 0;
#X connect 27 1 18 0;
#X connect 28 0 27 2;
#X connect 29 0 19 0;
#X connect 31 0 46 0;
#X connect 31 1 48 0;
#X connect 32 0 51 0;
#X connect 32 1 52 0;
#X connect 33 0 32 0;
#X connect 34 0 36 0;
#X connect 35 0 37 0;
#X connect 36 0 54 0;
#X connect 36 1 57 0;
#X connect 37 0 58 0;
#X connect 37 1 61 0;
#X connect 38 0 42 0;
#X connect 39 0 43 0;
#X connect 40 0 44 0;
#X connect 41 0 45 0;
#X connect 42 0 47 0;
#X connect 42 1 49 0;
#X connect 43 0 50 0;
#X connect 43 1 53 0;
#X connect 44 0 55 0;
#X connect 44 1 56 0;
#X connect 45 0 59 0;
#X connect 45 1 60 0;
#X connect 62 0 27 1;
#X connect 63 0 27 0;
#X connect 64 0 3 1;
#X connect 64 0 18 1;
#X connect 65 0 64 0;
#X connect 65 1 64 1;
#X connect 66 0 65 0;
#X connect 67 0 64 0;
#X connect 70 0 4 0;
#X connect 70 1 5 0;
