#N canvas 0 49 1920 1009 12;
#X obj -30 -30 preset_hub k12 1 %hidden%;
#X obj 100 810 outlet~;
#X obj 100 100 inlet;
#X obj 300 100 inlet;
#X obj 100 750 *~;
#X floatatom 100 130 5 0 0 1 Frequency_Hz - - 0 0 1, f 5;
#X floatatom 300 130 5 0 0 1 Velocity - - 0 0 1, f 5;
#X floatatom 600 160 5 0 0 1 Enabled - - 0 0 1, f 5;
#X obj 600 130 ./utils/declick;
#X obj 600 191 s \$0-enabled;
#X obj 100 780 *~;
#X obj 300 160 ./utils/declick;
#X obj 100 158 s \$0-frequency;
#X obj 300 190 s \$0-velocity;
#X text 100 70 ==== Inlets: Frequency \, Velocity ====;
#X obj 100 400 r \$0-frequency;
#X text 100 370 ==== Tone Generation ====;
#X obj 600 100 r p-p\$1-enabled;
#X floatatom 1000 160 5 0 0 1 Balance - - 0 0 1, f 5;
#X obj 1000 130 ./utils/declick;
#X obj 300 810 outlet~;
#X obj 300 750 *~;
#X obj 300 780 *~;
#X floatatom 800 190 5 0 0 1 Volume - - 0 0 1, f 5;
#X obj 800 130 ./utils/declick;
#X obj 800 100 r p-p\$1-volume;
#X obj 800 222 s \$0-volume;
#X text 600 70 ==== General Partial Parameters ====;
#X obj 140 750 r \$0-enabled;
#X obj 140 780 r \$0-velocity;
#X obj 340 750 r \$0-enabled;
#X obj 340 780 r \$0-velocity;
#X text 410 160 TODO: Remove;
#X obj 1000 100 r p-p\$1-balance;
#X obj 1000 190 s \$0-balance;
#X obj 100 700 ./utils/balance-stereo;
#X obj 270 700 r \$0-balance;
#X obj 800 160 expr sqrt($f1);
#X text 10 10 A single partial inside a voice;
#X obj 100 500 ./oscilator p-p\$1-car1;
#X connect 2 0 5 0;
#X connect 3 0 6 0;
#X connect 4 0 10 0;
#X connect 5 0 12 0;
#X connect 6 0 11 0;
#X connect 7 0 9 0;
#X connect 8 0 7 0;
#X connect 10 0 1 0;
#X connect 11 0 13 0;
#X connect 15 0 39 0;
#X connect 17 0 8 0;
#X connect 18 0 34 0;
#X connect 19 0 18 0;
#X connect 21 0 22 0;
#X connect 22 0 20 0;
#X connect 23 0 26 0;
#X connect 24 0 37 0;
#X connect 25 0 24 0;
#X connect 28 0 4 1;
#X connect 29 0 10 1;
#X connect 30 0 21 1;
#X connect 31 0 22 1;
#X connect 33 0 19 0;
#X connect 35 0 4 0;
#X connect 35 1 21 0;
#X connect 36 0 35 2;
#X connect 37 0 23 0;
#X connect 39 0 35 0;
#X connect 39 1 35 1;
