#N canvas 0 49 1920 1009 12;
#X obj -30 -30 preset_hub k12 1 %hidden%;
#X obj 0 30 cnv 15 600 110 empty empty empty 20 12 0 14 #f5f5f5 #404040
0;
#X obj 0 0 cnv 15 600 30 empty empty Clear\ carrier\ or\ modulator\ wavetables
12 12 0 14 #e0e0e0 #404040 0;
#X obj 0 140 cnv 10 600 10 empty empty empty 20 12 0 14 #e0e0e0 #404040
0;
#X obj 100 200 inlet;
#X obj 100 470 outlet;
#X obj 270 350 expr size("$s1");
#X text 430 320 Reference for wavetable size;
#X text 10 40 \$1 must be the prefix of the wavetable arrays, f 82
;
#X text 10 60 \$2 must be the number of wavetables, f 82;
#X text 10 90 A bang on the inlet will clear the wavetables., f 82
;
#X text 10 110 A bang on the oulet signals the end of processing.,
f 82;
#X text 290 260 Wavetable number;
#X obj 100 230 trigger b b;
#X obj 150 350 symbol \$1;
#X obj 130 260 ./utils/for-loop 1 \$2;
#X msg 270 320 symbol wavetable-sin1;
#X text 280 380 Prefix \, Index \, Length;
#X msg 150 410 \; \$1-\$2 const 0 \; \$1-\$2 resize \$3;
#X obj 150 380 pack s f f, f 17;
#X obj 150 290 trigger b f b;
#X connect 4 0 13 0;
#X connect 6 0 19 2;
#X connect 13 0 5 0;
#X connect 13 1 15 0;
#X connect 14 0 19 0;
#X connect 15 0 20 0;
#X connect 16 0 6 0;
#X connect 19 0 18 0;
#X connect 20 0 14 0;
#X connect 20 1 19 1;
#X connect 20 2 16 0;
