#N canvas 0 49 1920 1009 12;
#X obj -30 -30 preset_hub k12 1 %hidden%;
#X obj 0 30 cnv 15 600 110 empty empty empty 20 12 0 14 #f5f5f5 #404040
0;
#X obj 0 0 cnv 15 600 30 empty empty Clear\ carrier\ or\ modulator\ wavetables
12 12 0 14 #e0e0e0 #404040 0;
#X obj 0 140 cnv 10 600 10 empty empty empty 20 12 0 14 #e0e0e0 #404040
0;
#X obj 100 200 inlet;
#X obj 100 580 outlet;
#X obj 560 410 expr size("$s1");
#X text 720 380 Reference for wavetable size;
#X text 10 40 \$1 must be the prefix of the wavetable arrays, f 82
;
#X text 10 60 \$2 must be the number of wavetables, f 82;
#X text 10 90 A bang on the inlet will clear the wavetables., f 82
;
#X text 10 110 A bang on the oulet signals the end of processing.,
f 82;
#X obj 160 320 ./utils/for-loop 1 2;
#X obj 280 380 select 1 2;
#X obj 160 290 trigger b f;
#X text 290 260 Wavetable number;
#X text 310 320 Left/Right;
#X msg 280 410 symbol L;
#X msg 350 410 symbol R;
#X obj 100 230 trigger b b;
#X obj 190 410 symbol \$1;
#X msg 190 520 \; \$1-\$2-\$3 const 0 \; \$1-\$2-\$3 resize \$4;
#X obj 130 260 ./utils/for-loop 1 \$2;
#X obj 250 290 value _\$0_index;
#X obj 430 410 value _\$0_index;
#X msg 560 380 symbol wavetable-sin1;
#X text 320 490 Prefix \, L/R \, Index \, Length;
#X obj 190 350 trigger b f b b;
#X obj 190 490 pack s s f f, f 17;
#X connect 4 0 19 0;
#X connect 6 0 28 3;
#X connect 12 0 27 0;
#X connect 13 0 17 0;
#X connect 13 1 18 0;
#X connect 14 0 12 0;
#X connect 14 1 23 0;
#X connect 17 0 28 1;
#X connect 18 0 28 1;
#X connect 19 0 5 0;
#X connect 19 1 22 0;
#X connect 20 0 28 0;
#X connect 22 0 14 0;
#X connect 24 0 28 2;
#X connect 25 0 6 0;
#X connect 27 0 20 0;
#X connect 27 1 13 0;
#X connect 27 2 24 0;
#X connect 27 3 25 0;
#X connect 28 0 21 0;
