#N canvas 0 49 1920 1009 12;
#X obj -30 -30 preset_hub k12 1 %hidden%;
#X obj 100 810 outlet~;
#X obj 100 100 inlet;
#X obj 300 100 inlet;
#X obj 100 530 osc~;
#X obj 100 750 *~;
#X floatatom 100 130 5 0 0 1 Frequency_Hz - - 0 0 1, f 5;
#X floatatom 300 130 5 0 0 1 Velocity - - 0 0 1, f 5;
#X floatatom 600 160 5 0 0 1 Enabled - - 0 0 1, f 5;
#X floatatom 1000 460 5 0 0 1 Frequency - - 0 0 1, f 5;
#X obj 600 130 ./utils/declick;
#X obj 1000 430 ./utils/declick;
#X obj 100 500 *;
#X obj 600 191 s \$0-enabled;
#X obj 100 780 *~;
#X obj 300 160 ./utils/declick;
#X obj 100 158 s \$0-frequency;
#X obj 300 190 s \$0-velocity;
#X text 100 70 ==== Inlets: Frequency \, Velocity ====;
#X obj 100 400 r \$0-frequency;
#X text 100 370 ==== Tone Generation ====;
#X obj 600 100 r p-p\$1-enabled;
#X floatatom 1200 460 5 0 0 1 Volume - - 0 0 1, f 5;
#X obj 1200 430 ./utils/declick;
#X floatatom 1000 160 5 0 0 1 Balance - - 0 0 1, f 5;
#X obj 1000 130 ./utils/declick;
#X obj 100 620 ./utils/pan-mono;
#X obj 300 810 outlet~;
#X obj 300 750 *~;
#X obj 300 780 *~;
#X floatatom 800 190 5 0 0 1 Volume - - 0 0 1, f 5;
#X obj 800 130 ./utils/declick;
#X obj 800 100 r p-p\$1-volume;
#X obj 800 222 s \$0-volume;
#X text 600 70 ==== General Partial Parameters ====;
#X floatatom 1400 460 5 0 0 1 Panorama - - 0 0 1, f 5;
#X obj 1400 430 ./utils/declick;
#X floatatom 600 460 5 0 0 1 Enabled - - 0 0 1, f 5;
#X obj 600 430 ./utils/declick;
#X obj 600 400 r p-p\$1-car1-enabled;
#X obj 600 490 s \$0-car1-enabled;
#X obj 1000 400 r p-p\$1-car1-frequency;
#X obj 1000 490 s \$0-car1-frequency;
#X obj 1200 400 r p-p\$1-car1-volume;
#X obj 1200 490 s \$0-car1-volume;
#X obj 1400 400 r p-p\$1-car1-panorama;
#X obj 1400 490 s \$0-car1-panorama;
#X obj 800 400 r p-p\$1-car1-waveform;
#X obj 800 490 s \$0-car1-waveform;
#X msg 830 430 set \$1;
#X msg 830 460 0;
#X text 600 370 ==== Carrier Oscilator Bank Parameters ====;
#X obj 140 500 r \$0-car1-frequency;
#X obj 230 620 r \$0-car1-panorama;
#X obj 100 560 *~;
#X obj 100 590 *~;
#X obj 140 590 r \$0-car1-volume;
#X obj 140 560 r \$0-car1-enabled;
#X obj 140 750 r \$0-enabled;
#X obj 140 780 r \$0-velocity;
#X obj 340 750 r \$0-enabled;
#X obj 340 780 r \$0-velocity;
#X text 410 160 TODO: Remove;
#X obj 1000 100 r p-p\$1-balance;
#X obj 1000 190 s \$0-balance;
#X obj 100 700 ./utils/balance-stereo;
#X obj 270 700 r \$0-balance;
#X obj 800 160 expr sqrt($f1);
#X connect 2 0 6 0;
#X connect 3 0 7 0;
#X connect 4 0 54 0;
#X connect 5 0 14 0;
#X connect 6 0 16 0;
#X connect 7 0 15 0;
#X connect 8 0 13 0;
#X connect 9 0 42 0;
#X connect 10 0 8 0;
#X connect 11 0 9 0;
#X connect 12 0 4 0;
#X connect 14 0 1 0;
#X connect 15 0 17 0;
#X connect 19 0 12 0;
#X connect 21 0 10 0;
#X connect 22 0 44 0;
#X connect 23 0 22 0;
#X connect 24 0 64 0;
#X connect 25 0 24 0;
#X connect 26 0 65 0;
#X connect 26 1 65 1;
#X connect 28 0 29 0;
#X connect 29 0 27 0;
#X connect 30 0 33 0;
#X connect 31 0 67 0;
#X connect 32 0 31 0;
#X connect 35 0 46 0;
#X connect 36 0 35 0;
#X connect 37 0 40 0;
#X connect 38 0 37 0;
#X connect 39 0 38 0;
#X connect 41 0 11 0;
#X connect 43 0 23 0;
#X connect 45 0 36 0;
#X connect 47 0 49 0;
#X connect 47 0 48 0;
#X connect 49 0 50 0;
#X connect 52 0 12 1;
#X connect 53 0 26 1;
#X connect 54 0 55 0;
#X connect 55 0 26 0;
#X connect 56 0 55 1;
#X connect 57 0 54 1;
#X connect 58 0 5 1;
#X connect 59 0 14 1;
#X connect 60 0 28 1;
#X connect 61 0 29 1;
#X connect 63 0 25 0;
#X connect 65 0 5 0;
#X connect 65 1 28 0;
#X connect 66 0 65 2;
#X connect 67 0 30 0;
