#N canvas 0 49 1920 1009 12;
#X obj -30 -30 preset_hub k12 1 %hidden%;
#X obj 100 880 outlet~;
#X obj 100 110 inlet;
#X obj 100 850 *~;
#X floatatom 100 170 5 0 0 1 Note - - 0 0 1, f 5;
#X floatatom 460 170 5 0 0 1 Velocity - - 0 0 1, f 5;
#X floatatom 800 170 5 0 0 1 Enabled - - 0 0 1, f 5;
#X obj 800 140 ./utils/declick;
#X obj 800 200 s \$0-enabled;
#X obj 460 200 ./utils/declick;
#X obj 460 230 s \$0-velocity;
#X text 100 80 ==== Inlets: Frequency \, Velocity ====;
#X obj 800 110 r p-p\$1-enabled;
#X floatatom 1200 170 5 0 0 1 Balance - - 0 0 1, f 5;
#X obj 1200 140 ./utils/declick;
#X obj 200 880 outlet~;
#X obj 200 850 *~;
#X floatatom 1000 200 5 0 0 1 Volume - - 0 0 1, f 5;
#X obj 1000 140 ./utils/declick;
#X obj 1000 110 r p-p\$1-volume;
#X obj 1000 230 s \$0-volume;
#X text 800 80 ==== General Partial Parameters ====;
#X text 580 200 TODO: Remove;
#X obj 1200 110 r p-p\$1-balance;
#X obj 1200 200 s \$0-balance;
#X obj 100 700 ./utils/balance-stereo;
#X obj 270 700 r \$0-balance;
#X obj 1000 170 expr sqrt($f1);
#X obj 300 810 *;
#X obj 410 780 trigger b f;
#X obj 410 750 r \$0-enabled;
#X obj 300 750 r \$0-velocity;
#X obj 100 140 unpack f f;
#X text 10 30 \$1 must be the partial number starting at zero., f
55;
#X text 10 10 A single partial inside a voice., f 55;
#X text 100 480 ==== Oscillators ====;
#X obj 100 510 r \$0-frequency;
#X obj 100 539 trigger f f;
#X obj 500 510 r \$0-frequency;
#X obj 500 540 trigger f f;
#X text 580 400 TODO: A.Env + F.Env;
#X obj 130 569 ./oscillator p-p\$1-mod p\$1-modulator-L 11 L;
#X obj 100 651 ./oscillator p-p\$1-car p\$1-carrier-L 11 L;
#X obj 530 570 ./oscillator p-p\$1-mod p\$1-modulator-R 11 R;
#X obj 500 650 ./oscillator p-p\$1-car p\$1-carrier-R 11 R;
#X floatatom 1400 200 5 0 0 1 Modulator_Volume - - 0 0 1, f 5;
#X obj 1400 140 ./utils/declick;
#X obj 1400 170 expr sqrt($f1);
#X obj 1400 110 r p-p\$1-mod-volume;
#X obj 1400 230 s \$0-mod-volume;
#X obj 130 600 *~;
#X obj 530 600 *~;
#X obj 170 600 r \$0-mod-volume;
#X obj 570 600 r \$0-mod-volume;
#X obj 100 380 s \$0-frequency;
#X obj 140 200 r p-p\$1-transpose;
#X obj 290 200 r p-p\$1-detune;
#X obj 290 260 trigger b f;
#X floatatom 290 230 5 0 0 1 Detune_Cents - - 0 0 1, f 5;
#X floatatom 140 230 5 0 0 1 Transpose - - 0 0 1, f 5;
#X obj 100 290 expr \\$f1 + \\$f2 + ($f3 / 100);
#X obj 140 260 trigger b f;
#X obj 100 320 mtof;
#X floatatom 100 350 5 0 0 1 Frequency_Hz - - 0 0 1, f 5;
#X connect 2 0 32 0;
#X connect 3 0 1 0;
#X connect 4 0 60 0;
#X connect 5 0 9 0;
#X connect 6 0 8 0;
#X connect 7 0 6 0;
#X connect 9 0 10 0;
#X connect 12 0 7 0;
#X connect 13 0 24 0;
#X connect 14 0 13 0;
#X connect 16 0 15 0;
#X connect 17 0 20 0;
#X connect 18 0 27 0;
#X connect 19 0 18 0;
#X connect 23 0 14 0;
#X connect 25 0 3 0;
#X connect 25 1 16 0;
#X connect 26 0 25 2;
#X connect 27 0 17 0;
#X connect 28 0 3 1;
#X connect 28 0 16 1;
#X connect 29 0 28 0;
#X connect 29 1 28 1;
#X connect 30 0 29 0;
#X connect 31 0 28 0;
#X connect 32 0 4 0;
#X connect 32 1 5 0;
#X connect 36 0 37 0;
#X connect 37 0 42 0;
#X connect 37 1 41 0;
#X connect 38 0 39 0;
#X connect 39 0 44 0;
#X connect 39 1 43 0;
#X connect 41 0 50 0;
#X connect 42 0 25 0;
#X connect 43 0 51 0;
#X connect 44 0 25 1;
#X connect 45 0 49 0;
#X connect 46 0 47 0;
#X connect 47 0 45 0;
#X connect 48 0 46 0;
#X connect 50 0 42 1;
#X connect 51 0 44 1;
#X connect 52 0 50 1;
#X connect 53 0 51 1;
#X connect 55 0 59 0;
#X connect 56 0 58 0;
#X connect 57 0 60 0;
#X connect 57 1 60 2;
#X connect 58 0 57 0;
#X connect 59 0 61 0;
#X connect 60 0 62 0;
#X connect 61 0 60 0;
#X connect 61 1 60 1;
#X connect 62 0 63 0;
#X connect 63 0 54 0;
