#N canvas 0 49 1920 1009 12;
#X obj -30 -30 preset_hub k12 1 %hidden%;
#X obj 100 1250 outlet~;
#X obj 100 110 inlet;
#X obj 100 1220 *~;
#X floatatom 100 170 5 0 0 1 Note - - 0 0 1, f 5;
#X floatatom 460 170 5 0 0 1 Velocity - - 0 0 1, f 5;
#X floatatom 800 140 5 0 0 1 Enabled - - 0 0 1, f 5;
#X obj 490 240 s \$0-velocity;
#X text 100 80 ==== Inlets: Frequency \, Velocity ====;
#X obj 800 110 r p-p\$1-enabled;
#X floatatom 1200 170 5 0 0 1 Panorama - - 0 0 1, f 5;
#X obj 1200 140 ./utils/declick;
#X obj 200 1250 outlet~;
#X obj 200 1220 *~;
#X floatatom 1000 200 5 0 0 1 Volume - - 0 0 1, f 5;
#X obj 1000 140 ./utils/declick;
#X obj 1000 110 r p-p\$1-volume;
#X obj 1000 230 s \$0-volume;
#X text 800 80 ==== General Partial Parameters ====;
#X obj 1000 170 expr sqrt($f1);
#X obj 300 1110 r \$0-velocity;
#X obj 100 140 unpack f f;
#X text 10 30 \$1 must be the partial number starting at zero., f
55;
#X text 10 10 A single partial inside a voice., f 55;
#X text 100 540 ==== Oscillators ====;
#X obj 100 570 r \$0-frequency;
#X floatatom 1400 200 5 0 0 1 Modulator_Volume - - 0 0 1, f 5;
#X obj 1400 140 ./utils/declick;
#X obj 1400 170 expr sqrt($f1);
#X obj 1400 110 r p-p\$1-mod-volume;
#X obj 1400 230 s \$0-mod-volume;
#X obj 130 800 *~;
#X obj 170 800 r \$0-mod-volume;
#X obj 100 380 s \$0-frequency;
#X obj 140 200 r p-p\$1-transpose;
#X obj 290 200 r p-p\$1-detune;
#X obj 290 260 trigger b f;
#X floatatom 290 230 5 0 0 1 Detune_Cents - - 0 0 1, f 5;
#X floatatom 140 230 5 0 0 1 Transpose - - 0 0 1, f 5;
#X obj 100 290 expr \\$f1 + \\$f2 + ($f3 / 100);
#X obj 140 260 trigger b f;
#X obj 100 320 mtof;
#X floatatom 100 350 5 0 0 1 Frequency_Hz - - 0 0 1, f 5;
#X obj 800 170 switch~;
#X obj 130 630 ./oscillator p-p\$1-mod p\$1-modulator 11;
#X obj 100 880 ./oscillator p-p\$1-car p\$1-carrier 11;
#X obj 100 1090 ./utils/pan-mono;
#X obj 230 1090 r \$0-panorama;
#X obj 1200 200 s \$0-panorama;
#X obj 1200 110 r p-p\$1-panorama;
#X obj 1300 320 r in-modulation;
#X floatatom 1300 349 5 0 0 0 - - - 0 0 1, f 5;
#X text 1300 380 TODO: Mod Wheel;
#X obj 400 1110 r \$0-volume;
#X obj 300 1170 *;
#X obj 400 1139 trigger b f;
#X text 370 880 Carrier;
#X text 410 630 Modulator;
#X obj 100 1010 filter p-p\$1-car-flt, f 77;
#X obj 130 770 filter p-p\$1-mod-flt, f 67;
#X obj 100 599 trigger f f f f, f 77;
#X obj 140 950 ./envgen/envgen~;
#X obj 270 950 s p-p\$1-car-aenv2;
#X obj 140 920 r p-p\$1-car-aenv1;
#X obj 690 892 ./envgen/envgen~;
#X obj 690 862 r p-p\$1-car-fenv1;
#X obj 820 892 s p-p\$1-car-fenv2;
#X obj 460 290 moses 1;
#X msg 460 320 release;
#X msg 530 320 attack;
#X obj 460 200 trigger f f;
#X obj 460 350 trigger a a a a;
#X obj 850 380 s p-p\$1-car-aenv1;
#X obj 720 380 s p-p\$1-car-fenv1;
#X obj 590 380 s p-p\$1-mod-aenv1;
#X obj 460 380 s p-p\$1-mod-fenv1;
#X obj 690 642 ./envgen/envgen~;
#X obj 690 612 r p-p\$1-mod-fenv1;
#X obj 820 642 s p-p\$1-nod-fenv2;
#X obj 100 980 *~;
#X obj 640 980 *;
#X obj 690 921 snapshot~;
#X obj 660 831 metro 10;
#X obj 660 801 r reinit;
#X obj 170 710 ./envgen/envgen~;
#X obj 130 740 *~;
#X obj 170 680 r p-p\$1-mod-aenv1;
#X obj 300 710 s p-p\$1-mod-aenv2;
#X obj 590 730 *;
#X obj 690 671 snapshot~;
#X obj 660 582 metro 10;
#X obj 660 552 r reinit;
#X obj 690 700 trigger b f;
#X obj 690 950 trigger b f;
#X connect 2 0 21 0;
#X connect 3 0 1 0;
#X connect 4 0 39 0;
#X connect 5 0 70 0;
#X connect 6 0 43 0;
#X connect 9 0 6 0;
#X connect 10 0 48 0;
#X connect 11 0 10 0;
#X connect 13 0 12 0;
#X connect 14 0 17 0;
#X connect 15 0 19 0;
#X connect 16 0 15 0;
#X connect 19 0 14 0;
#X connect 20 0 54 0;
#X connect 21 0 4 0;
#X connect 21 1 5 0;
#X connect 25 0 60 0;
#X connect 26 0 30 0;
#X connect 27 0 28 0;
#X connect 28 0 26 0;
#X connect 29 0 27 0;
#X connect 31 0 45 1;
#X connect 32 0 31 1;
#X connect 34 0 38 0;
#X connect 35 0 37 0;
#X connect 36 0 39 0;
#X connect 36 1 39 2;
#X connect 37 0 36 0;
#X connect 38 0 40 0;
#X connect 39 0 41 0;
#X connect 40 0 39 0;
#X connect 40 1 39 1;
#X connect 41 0 42 0;
#X connect 42 0 33 0;
#X connect 44 0 85 0;
#X connect 45 0 79 0;
#X connect 46 0 3 0;
#X connect 46 1 13 0;
#X connect 47 0 46 1;
#X connect 49 0 11 0;
#X connect 50 0 51 0;
#X connect 53 0 55 0;
#X connect 54 0 3 1;
#X connect 54 0 13 1;
#X connect 55 0 54 0;
#X connect 55 1 54 1;
#X connect 58 0 46 0;
#X connect 59 0 31 0;
#X connect 60 0 45 0;
#X connect 60 1 44 0;
#X connect 60 2 88 0;
#X connect 60 3 80 0;
#X connect 61 0 79 1;
#X connect 61 2 62 0;
#X connect 63 0 61 0;
#X connect 64 0 81 0;
#X connect 64 2 66 0;
#X connect 65 0 64 0;
#X connect 67 0 68 0;
#X connect 67 1 69 0;
#X connect 68 0 71 0;
#X connect 69 0 71 0;
#X connect 70 0 67 0;
#X connect 70 1 7 0;
#X connect 71 0 75 0;
#X connect 71 1 74 0;
#X connect 71 2 73 0;
#X connect 71 3 72 0;
#X connect 76 0 89 0;
#X connect 76 2 78 0;
#X connect 77 0 76 0;
#X connect 79 0 58 0;
#X connect 80 0 58 1;
#X connect 81 0 93 0;
#X connect 82 0 81 0;
#X connect 83 0 82 0;
#X connect 84 0 85 1;
#X connect 84 2 87 0;
#X connect 85 0 59 0;
#X connect 86 0 84 0;
#X connect 88 0 59 1;
#X connect 89 0 92 0;
#X connect 90 0 89 0;
#X connect 91 0 90 0;
#X connect 92 0 88 0;
#X connect 92 1 88 1;
#X connect 93 0 80 0;
#X connect 93 1 80 1;
