#N canvas 0 49 1920 1009 12;
#X obj -30 -30 preset_hub k12 1 %hidden%;
#X text 10 30 \$1 must be the partial number starting at zero., f
69;
#X text 10 10 Pre-calculation of the carrier/modulator wavetables of
a partial., f 69;
#X obj 100 229 delay 100;
#X obj 100 200 r p\$1-carrier-recalc;
#N canvas 0 49 1920 1009 (subpatch) 0;
#X array p\$1-carrier-L-1 515 float 0 black black;
#X coords 0 1 514 -1 200 100 1;
#X scroll 1;
#X restore 600 200 graph;
#N canvas 0 0 450 300 (subpatch) 0;
#X array p\$1-carrier-R-1 515 float 0 black black;
#X coords 0 1 514 -1 200 100 1;
#X restore 810 200 graph;
#N canvas 0 49 1920 1009 (subpatch) 0;
#X array p\$1-carrier-L-2 515 float 0 black black;
#X coords 0 1 514 -1 200 100 1;
#X scroll 1;
#X restore 1040 200 graph;
#N canvas 0 0 450 300 (subpatch) 0;
#X array p\$1-carrier-R-2 515 float 0 black black;
#X coords 0 1 514 -1 200 100 1;
#X restore 1250 200 graph;
#N canvas 0 49 1920 1009 (subpatch) 0;
#X array p\$1-carrier-L-4 515 float 0 black black;
#X coords 0 1 514 -1 200 100 1;
#X scroll 1;
#X restore 600 330 graph;
#N canvas 0 0 450 300 (subpatch) 0;
#X array p\$1-carrier-R-4 515 float 0 black black;
#X coords 0 1 514 -1 200 100 1;
#X restore 810 330 graph;
#N canvas 0 49 1920 1009 (subpatch) 0;
#X array p\$1-carrier-L-5 515 float 0 black black;
#X coords 0 1 514 -1 200 100 1;
#X scroll 1;
#X restore 1040 330 graph;
#N canvas 0 0 450 300 (subpatch) 0;
#X array p\$1-carrier-R-5 515 float 0 black black;
#X coords 0 1 514 -1 200 100 1;
#X restore 1250 330 graph;
#N canvas 0 49 1920 1009 (subpatch) 0;
#X array p\$1-carrier-L-3 515 float 0 black black;
#X coords 0 1 514 -1 200 100 1;
#X scroll 1;
#X restore 1480 200 graph;
#N canvas 0 0 450 300 (subpatch) 0;
#X array p\$1-carrier-R-3 515 float 0 black black;
#X coords 0 1 514 -1 200 100 1;
#X restore 1690 200 graph;
#N canvas 0 49 1920 1009 (subpatch) 0;
#X array p\$1-carrier-L-6 515 float 0 black black;
#X coords 0 1 514 -1 200 100 1;
#X scroll 1;
#X restore 1480 330 graph;
#N canvas 0 0 450 300 (subpatch) 0;
#X array p\$1-carrier-R-6 515 float 0 black black;
#X coords 0 1 514 -1 200 100 1;
#X restore 1690 330 graph;
#N canvas 0 49 1920 1009 (subpatch) 0;
#X array p\$1-carrier-L-7 515 float 0 black black;
#X coords 0 1 514 -1 200 100 1;
#X scroll 1;
#X restore 600 460 graph;
#N canvas 0 0 450 300 (subpatch) 0;
#X array p\$1-carrier-R-7 515 float 0 black black;
#X coords 0 1 514 -1 200 100 1;
#X restore 810 460 graph;
#N canvas 0 49 1920 1009 (subpatch) 0;
#X array p\$1-carrier-L-8 515 float 0 black black;
#X coords 0 1 514 -1 200 100 1;
#X scroll 1;
#X restore 1040 460 graph;
#N canvas 0 0 450 300 (subpatch) 0;
#X array p\$1-carrier-R-8 515 float 0 black black;
#X coords 0 1 514 -1 200 100 1;
#X restore 1250 460 graph;
#N canvas 0 49 1920 1009 (subpatch) 0;
#X array p\$1-carrier-L-10 515 float 0 black black;
#X coords 0 1 514 -1 200 100 1;
#X scroll 1;
#X restore 600 590 graph;
#N canvas 0 0 450 300 (subpatch) 0;
#X array p\$1-carrier-R-10 515 float 0 black black;
#X coords 0 1 514 -1 200 100 1;
#X restore 810 590 graph;
#N canvas 0 49 1920 1009 (subpatch) 0;
#X array p\$1-carrier-L-11 515 float 0 black black;
#X coords 0 1 514 -1 200 100 1;
#X scroll 1;
#X restore 1040 590 graph;
#N canvas 0 0 450 300 (subpatch) 0;
#X array p\$1-carrier-R-11 515 float 0 black black;
#X coords 0 1 514 -1 200 100 1;
#X restore 1250 590 graph;
#N canvas 0 49 1920 1009 (subpatch) 0;
#X array p\$1-carrier-L-9 515 float 0 black black;
#X coords 0 1 514 -1 200 100 1;
#X scroll 1;
#X restore 1480 460 graph;
#N canvas 0 0 450 300 (subpatch) 0;
#X array p\$1-carrier-R-9 515 float 0 black black;
#X coords 0 1 514 -1 200 100 1;
#X restore 1690 460 graph;
#X obj 100 330 ./partial-add-harmonic p-p\$1-car1 p\$1-carrier 11 1
8;
#X obj 100 360 ./partial-add-harmonic p-p\$1-car2 p\$1-carrier 11 2
8;
#X obj 100 390 ./partial-add-harmonic p-p\$1-car3 p\$1-carrier 11 3
8;
#X obj 100 420 ./partial-add-harmonic p-p\$1-car4 p\$1-carrier 11 4
8;
#X obj 100 450 ./partial-add-harmonic p-p\$1-car5 p\$1-carrier 11 5
8;
#X obj 100 480 ./partial-add-harmonic p-p\$1-car6 p\$1-carrier 11 6
8;
#X obj 100 510 ./partial-add-harmonic p-p\$1-car7 p\$1-carrier 11 7
8;
#X obj 100 540 ./partial-add-harmonic p-p\$1-car8 p\$1-carrier 11 8
8;
#X obj 100 280 ./partial-clear-wavetables p\$1-carrier 11;
#X obj 100 769 delay 100;
#N canvas 0 49 1920 1009 (subpatch) 0;
#X array p\$1-modulator-L-1 515 float 0 black black;
#X coords 0 1 514 -1 200 100 1;
#X scroll 1;
#X restore 600 740 graph;
#N canvas 0 0 450 300 (subpatch) 0;
#X array p\$1-modulator-R-1 515 float 0 black black;
#X coords 0 1 514 -1 200 100 1;
#X restore 810 740 graph;
#X obj 100 740 r p\$1-modulator-recalc;
#N canvas 0 49 1920 1009 (subpatch) 0;
#X array p\$1-modulator-L-2 515 float 0 black black;
#X coords 0 1 514 -1 200 100 1;
#X scroll 1;
#X restore 1040 740 graph;
#N canvas 0 0 450 300 (subpatch) 0;
#X array p\$1-modulator-R-2 515 float 0 black black;
#X coords 0 1 514 -1 200 100 1;
#X restore 1250 740 graph;
#N canvas 0 49 1920 1009 (subpatch) 0;
#X array p\$1-modulator-L-4 515 float 0 black black;
#X coords 0 1 514 -1 200 100 1;
#X scroll 1;
#X restore 600 870 graph;
#N canvas 0 0 450 300 (subpatch) 0;
#X array p\$1-modulator-R-4 515 float 0 black black;
#X coords 0 1 514 -1 200 100 1;
#X restore 810 870 graph;
#N canvas 0 49 1920 1009 (subpatch) 0;
#X array p\$1-modulator-L-5 515 float 0 black black;
#X coords 0 1 514 -1 200 100 1;
#X scroll 1;
#X restore 1040 870 graph;
#N canvas 0 0 450 300 (subpatch) 0;
#X array p\$1-modulator-R-5 515 float 0 black black;
#X coords 0 1 514 -1 200 100 1;
#X restore 1250 870 graph;
#N canvas 0 49 1920 1009 (subpatch) 0;
#X array p\$1-modulator-L-3 515 float 0 black black;
#X coords 0 1 514 -1 200 100 1;
#X scroll 1;
#X restore 1480 740 graph;
#N canvas 0 0 450 300 (subpatch) 0;
#X array p\$1-modulator-R-3 515 float 0 black black;
#X coords 0 1 514 -1 200 100 1;
#X restore 1690 740 graph;
#N canvas 0 49 1920 1009 (subpatch) 0;
#X array p\$1-modulator-L-6 515 float 0 black black;
#X coords 0 1 514 -1 200 100 1;
#X scroll 1;
#X restore 1480 870 graph;
#N canvas 0 0 450 300 (subpatch) 0;
#X array p\$1-modulator-R-6 515 float 0 black black;
#X coords 0 1 514 -1 200 100 1;
#X restore 1690 870 graph;
#N canvas 0 49 1920 1009 (subpatch) 0;
#X array p\$1-modulator-L-7 515 float 0 black black;
#X coords 0 1 514 -1 200 100 1;
#X scroll 1;
#X restore 600 1000 graph;
#N canvas 0 0 450 300 (subpatch) 0;
#X array p\$1-modulator-R-7 515 float 0 black black;
#X coords 0 1 514 -1 200 100 1;
#X restore 810 1000 graph;
#N canvas 0 49 1920 1009 (subpatch) 0;
#X array p\$1-modulator-L-8 515 float 0 black black;
#X coords 0 1 514 -1 200 100 1;
#X scroll 1;
#X restore 1040 1000 graph;
#N canvas 0 0 450 300 (subpatch) 0;
#X array p\$1-modulator-R-8 515 float 0 black black;
#X coords 0 1 514 -1 200 100 1;
#X restore 1250 1000 graph;
#N canvas 0 49 1920 1009 (subpatch) 0;
#X array p\$1-modulator-L-10 515 float 0 black black;
#X coords 0 1 514 -1 200 100 1;
#X scroll 1;
#X restore 600 1130 graph;
#N canvas 0 0 450 300 (subpatch) 0;
#X array p\$1-modulator-R-10 515 float 0 black black;
#X coords 0 1 514 -1 200 100 1;
#X restore 810 1130 graph;
#N canvas 0 49 1920 1009 (subpatch) 0;
#X array p\$1-modulator-L-11 515 float 0 black black;
#X coords 0 1 514 -1 200 100 1;
#X scroll 1;
#X restore 1040 1130 graph;
#N canvas 0 0 450 300 (subpatch) 0;
#X array p\$1-modulator-R-11 515 float 0 black black;
#X coords 0 1 514 -1 200 100 1;
#X restore 1250 1130 graph;
#N canvas 0 49 1920 1009 (subpatch) 0;
#X array p\$1-modulator-L-9 515 float 0 black black;
#X coords 0 1 514 -1 200 100 1;
#X scroll 1;
#X restore 1480 1000 graph;
#N canvas 0 0 450 300 (subpatch) 0;
#X array p\$1-modulator-R-9 515 float 0 black black;
#X coords 0 1 514 -1 200 100 1;
#X restore 1690 1000 graph;
#X obj 100 870 ./partial-add-harmonic p-p\$1-mod1 p\$1-modulator 11
1 4;
#X obj 100 900 ./partial-add-harmonic p-p\$1-mod2 p\$1-modulator 11
2 4;
#X obj 100 930 ./partial-add-harmonic p-p\$1-mod3 p\$1-modulator 11
3 4;
#X obj 100 960 ./partial-add-harmonic p-p\$1-mod4 p\$1-modulator 11
4 4;
#X obj 100 820 ./partial-clear-wavetables p\$1-modulator 11;
#X obj 100 100 inlet;
#X obj 100 129 outlet;
#X connect 3 0 35 0;
#X connect 4 0 3 0;
#X connect 27 0 28 0;
#X connect 28 0 29 0;
#X connect 29 0 30 0;
#X connect 30 0 31 0;
#X connect 31 0 32 0;
#X connect 32 0 33 0;
#X connect 33 0 34 0;
#X connect 35 0 27 0;
#X connect 36 0 64 0;
#X connect 39 0 36 0;
#X connect 60 0 61 0;
#X connect 61 0 62 0;
#X connect 62 0 63 0;
#X connect 64 0 60 0;
#X connect 65 0 66 0;
