#N canvas 0 49 1920 1009 12;
#X obj -30 -30 preset_hub k12 1 %hidden%;
#X text 10 30 \$1 must be the partial number starting from zero.;
#X text 10 10 Declaration of preset values for a voice partial.;
#X obj 100 130 ./preset/preset-value pm float p-p\$1-enabled;
#X obj 100 160 ./preset/preset-value pm float p-p\$1-volume;
#X obj 600 130 ./preset-values-oscilator \$1 car1;
#X obj 600 160 ./preset-values-oscilator \$1 car2;
#X obj 600 190 ./preset-values-oscilator \$1 car3;
#X obj 600 220 ./preset-values-oscilator \$1 car4;
#X obj 600 250 ./preset-values-oscilator \$1 car5;
#X obj 600 280 ./preset-values-oscilator \$1 car6;
#X obj 600 310 ./preset-values-oscilator \$1 car7;
#X obj 600 340 ./preset-values-oscilator \$1 car8;
#X obj 600 370 ./preset-values-oscilator \$1 car9;
#X obj 600 400 ./preset-values-oscilator \$1 car10;
#X obj 600 430 ./preset-values-oscilator \$1 car11;
#X obj 600 460 ./preset-values-oscilator \$1 car12;
#X obj 600 490 ./preset-values-oscilator \$1 car13;
#X obj 600 520 ./preset-values-oscilator \$1 car14;
#X obj 600 550 ./preset-values-oscilator \$1 car15;
#X obj 600 580 ./preset-values-oscilator \$1 car16;
#X obj 1000 130 ./preset-values-oscilator \$1 mod1;
#X obj 1000 160 ./preset-values-oscilator \$1 mod2;
#X obj 1000 190 ./preset-values-oscilator \$1 mod3;
#X obj 1000 220 ./preset-values-oscilator \$1 mod4;
#X obj 1000 250 ./preset-values-oscilator \$1 mod5;
#X obj 1000 280 ./preset-values-oscilator \$1 mod6;
#X obj 1000 310 ./preset-values-oscilator \$1 mod7;
#X obj 1000 340 ./preset-values-oscilator \$1 mod8;
#X text 100 100 ---- General Parameters ----;
#X text 1000 100 ---- Modulator Parameters ----;
#X text 600 100 ---- Carrier Parameters ----;
#X obj 100 190 ./preset/preset-value pm float p-p\$1-balance;
