#N canvas 0 49 1920 1009 12;
#X obj -30 -30 preset_hub k12 1 %hidden%;
#X obj 600 110 ./preset/preset-value partial\$1 \$2 p-p\$1-\$3;
#X obj 1200 210 r p-p\$1-\$3;
#X obj 1200 370 spigot;
#X obj 1230 720 s p-px-\$3;
#X obj 1260 340 expr \\$f1 == \$1;
#X obj 1200 560 trigger a b;
#X obj 1230 620 value \$0-prevent-endless-loop;
#X obj 1200 440 trigger a b;
#X obj 1230 470 value \$0-prevent-endless-loop;
#X obj 1200 530 spigot;
#X text 1210 420 ---- Prevent endless loop by receiving our own value
----;
#X obj 1200 280 trigger a;
#X text 1210 260 ---- Check currently selected partial ----;
#X obj 1200 690 trigger b a;
#X text 1210 670 ---- Forward value ----;
#X text 1200 180 ==== Forward value from preset-value object to UI
====, f 55;
#X text 600 80 ==== Preset value object to store the value ====;
#X text 600 180 ==== Forward value from UI to preset-value and synth
====;
#X obj 600 370 spigot;
#X obj 660 340 expr \\$f1 == \$1;
#X obj 600 560 trigger a b;
#X obj 630 620 value \$0-prevent-endless-loop;
#X obj 600 440 trigger a b;
#X obj 630 470 value \$0-prevent-endless-loop;
#X obj 600 530 spigot;
#X text 610 420 ---- Prevent endless loop by receiving our own value
----;
#X obj 600 280 trigger a;
#X text 610 260 ---- Check currently selected partial ----;
#X obj 600 690 trigger b a;
#X text 610 670 ---- Forward value ----;
#X obj 600 210 r p-px-\$3;
#X obj 630 720 s p-p\$1-\$3;
#X msg 630 590 1;
#X msg 600 750 0;
#X msg 1230 590 1;
#X msg 1200 750 0;
#X obj 2 10 cnv 15 500 30 empty empty UI\ Partial\ Value 10 12 0 14
#e0e0e0 #404040 0;
#X obj 0 130 cnv 15 500 15 empty empty Arguments 10 5 0 12 #e0e0e0
#404040 0;
#X obj -2 330 cnv 15 500 15 empty empty Usage 10 5 0 12 #e0e0e0 #404040
0;
#X text 12 50 This is a small wrapper around [./preset/preset-value]
to use the preset manager mechanism to switch the currently visible/edited
partial in the UI. An instance of this abstraction manages a single
parameter value for a single partial., f 68;
#X text 10 180 \$2 - Type of the parameter value: float \, symbol \,
list, f 68;
#X text 10 200 \$3 - Name of the partial parameter without prefix (e.g.
enabled), f 68;
#X text 8 230 Based on these values a [preset-value] object and the
right [send] and [receive] objects to exchange data between the synth
engine \, the preset manager \, preset values and the UI widgets will
be created. Therefor \, unlike most other parts of the synth \, respecting
the naming scheme of the parameter send/receive objects in the synth.
, f 68;
#X text 8 350 For each partial a [preset-manager] object must be created
in somewhere in the synth patch. Then for each partial and each parameter
a [ui-partial-value] must be added \, that communicated with the UI
widgets and the synth., f 68;
#X text 10 160 \$1 - Partial number (e.g. 0), f 68;
#X obj 630 500 expr \\$f1 == 0;
#X obj 1230 500 expr \\$f1 == 0;
#X obj 660 311 r ui-selected-partial;
#X obj 1260 311 r ui-selected-partial;
#X obj 600 780 value \$0-prevent-endless-loop;
#X obj 1200 780 value \$0-prevent-endless-loop;
#X connect 2 0 12 0;
#X connect 3 0 8 0;
#X connect 5 0 3 1;
#X connect 6 0 14 0;
#X connect 6 1 35 0;
#X connect 8 0 10 0;
#X connect 8 1 9 0;
#X connect 9 0 47 0;
#X connect 10 0 6 0;
#X connect 12 0 3 0;
#X connect 14 0 36 0;
#X connect 14 1 4 0;
#X connect 19 0 23 0;
#X connect 20 0 19 1;
#X connect 21 0 29 0;
#X connect 21 1 33 0;
#X connect 23 0 25 0;
#X connect 23 1 24 0;
#X connect 24 0 46 0;
#X connect 25 0 21 0;
#X connect 27 0 19 0;
#X connect 29 0 34 0;
#X connect 29 1 32 0;
#X connect 31 0 27 0;
#X connect 33 0 22 0;
#X connect 34 0 50 0;
#X connect 35 0 7 0;
#X connect 36 0 51 0;
#X connect 46 0 25 1;
#X connect 47 0 10 1;
#X connect 48 0 20 0;
#X connect 49 0 5 0;
