#N canvas 0 49 1920 1009 12;
#X obj -30 -30 preset_hub k12 1 %hidden%;
#X obj 250 660 outlet~;
#X obj 100 100 inlet;
#X obj 100 150 unpack f f;
#X floatatom 250 220 5 0 0 1 Note - - 0 0 1, f 5;
#X floatatom 100 220 5 0 0 1 Velocity - - 0 0 1, f 5;
#X floatatom 350 220 5 0 0 1 Pitchbend - - 0 0 1, f 5;
#X floatatom 510 220 5 0 0 1 Pitchbend_Range - - 0 0 1, f 5;
#X obj 350 280 *;
#X obj 250 390 +;
#X obj 350 340 trigger b f;
#X obj 250 530 osc~;
#X obj 250 630 *~;
#X text 300 530 TODO: Replace with real oscillator;
#X obj 100 180 swap;
#X obj 250 430 mtof;
#X obj 350 180 r in-pitchbend;
#X obj 510 180 r p-glb-pbrange;
#X obj 100 290 s \$1-voc-velocity;
#X obj 270 590 r \$1-voc-velocity;
#X text 10 10 Single synthesizer voice to play a note;
#X obj 100 260 ./utils/declick;
#X obj 350 310 ./utils/declick;
#X connect 2 0 3 0;
#X connect 3 0 14 0;
#X connect 3 1 14 1;
#X connect 4 0 9 0;
#X connect 5 0 21 0;
#X connect 6 0 8 0;
#X connect 7 0 8 1;
#X connect 8 0 22 0;
#X connect 9 0 15 0;
#X connect 10 0 9 0;
#X connect 10 1 9 1;
#X connect 11 0 12 0;
#X connect 12 0 1 0;
#X connect 14 0 5 0;
#X connect 14 1 4 0;
#X connect 15 0 11 0;
#X connect 16 0 6 0;
#X connect 17 0 7 0;
#X connect 19 0 12 1;
#X connect 21 0 18 0;
#X connect 22 0 10 0;
