#N canvas 0 49 1920 1009 12;
#X obj -30 -30 preset_hub k12 1 %hidden%;
#X obj 100 680 outlet~;
#X obj 100 100 inlet;
#X obj 100 150 unpack f f;
#X floatatom 100 240 5 0 0 1 Note - - 0 0 1, f 5;
#X floatatom 570 240 5 0 0 1 Velocity - - 0 0 1, f 5;
#X floatatom 200 240 5 0 0 1 Pitchbend - - 0 0 1, f 5;
#X floatatom 360 240 5 0 0 1 Pitchbend_Range - - 0 0 1, f 5;
#X obj 200 300 *;
#X obj 100 410 +;
#X obj 200 360 trigger b f;
#X obj 100 440 mtof;
#X obj 200 200 r in-pitchbend;
#X obj 360 200 r p-glb-pbrange;
#X text 10 10 Single synthesizer voice to play a note;
#X obj 200 330 ./utils/declick;
#X obj 100 480 ./partial 0;
#X obj 400 480 ./partial 1;
#X obj 700 480 ./partial 2;
#X obj 1000 480 ./partial 3;
#X obj 400 680 outlet~;
#X obj 570 270 s \$0-velocity;
#X obj 1090 480 r \$0-velocity;
#X obj 790 480 r \$0-velocity;
#X obj 490 480 r \$0-velocity;
#X obj 190 480 r \$0-velocity;
#X obj 570 200 expr sqrt($f1);
#X connect 2 0 3 0;
#X connect 3 0 4 0;
#X connect 3 1 26 0;
#X connect 4 0 9 0;
#X connect 5 0 21 0;
#X connect 6 0 8 0;
#X connect 7 0 8 1;
#X connect 8 0 15 0;
#X connect 9 0 11 0;
#X connect 10 0 9 0;
#X connect 10 1 9 1;
#X connect 11 0 16 0;
#X connect 11 0 17 0;
#X connect 11 0 18 0;
#X connect 11 0 19 0;
#X connect 12 0 6 0;
#X connect 13 0 7 0;
#X connect 15 0 10 0;
#X connect 16 0 1 0;
#X connect 16 1 20 0;
#X connect 17 0 1 0;
#X connect 17 1 20 0;
#X connect 18 0 1 0;
#X connect 18 1 20 0;
#X connect 19 0 1 0;
#X connect 19 1 20 0;
#X connect 22 0 19 1;
#X connect 23 0 18 1;
#X connect 24 0 17 1;
#X connect 25 0 16 1;
#X connect 26 0 5 0;
