#N canvas 0 49 1920 1009 12;
#X obj -30 -30 preset_hub k12 1 %hidden%;
#X obj 130 500 list append;
#X obj 100 530 trigger b l;
#X obj 100 200 inlet;
#X obj 100 810 outlet;
#X obj 100 460 list split;
#X obj 100 400 trigger l b;
#X obj 130 430 f \$1;
#X text 10 10 Split a list into equaly sized smaller lists;
#X text 10 40 \$1 must be the length of the smaller lists. The lists
will be output one after another on the left outlet. The right outlet
will output a counter \, starting from zero.;
#X obj 130 780 outlet;
#X text 190 780 Counter;
#X text 160 810 Lists;
#X obj 100 270 trigger l b;
#X msg 130 300 -1;
#X obj 130 329 value _\$0_counter;
#X text 110 250 ---- Reset counter ----;
#X text 110 380 ---- Iterate over sub-lists ----;
#X obj 130 670 expr _\$0_counter + 1;
#X obj 130 730 value _\$0_counter;
#X obj 130 700 trigger b f;
#X obj 100 640 trigger l b;
#X text 110 620 ---- Increment counter and output list ----;
#X text 220 500 Remaining list entries;
#X obj 100 570 trigger l;
#X connect 1 0 5 0;
#X connect 2 0 1 0;
#X connect 2 1 24 0;
#X connect 3 0 13 0;
#X connect 5 0 2 0;
#X connect 5 1 1 1;
#X connect 6 0 5 0;
#X connect 6 1 7 0;
#X connect 7 0 5 1;
#X connect 13 0 6 0;
#X connect 13 1 14 0;
#X connect 14 0 15 0;
#X connect 18 0 20 0;
#X connect 19 0 10 0;
#X connect 20 0 19 0;
#X connect 20 1 19 0;
#X connect 21 0 4 0;
#X connect 21 1 18 0;
#X connect 24 0 21 0;
