#N canvas 0 49 1920 1009 12;
#X obj -30 -30 preset_hub k12 1 %hidden%;
#X text 10 30 Converts a mono signal to stereo., f 69;
#X text 10 10 Simple mono panner using equal-power pan law., f 69
;
#X text 10 50 The panorama value must be between [-1...1] with 0 =
center., f 69;
#X obj 300 290 expr sqrt(($f1 + 1) / 2);
#X obj 300 260 * -1;
#X obj 530 290 expr sqrt(($f1 + 1) / 2);
#X floatatom 300 320 5 0 0 0 - - - 0 0 1, f 5;
#X floatatom 530 320 5 0 0 0 - - - 0 0 1, f 5;
#X obj 300 200 inlet;
#X obj 100 200 inlet~;
#X obj 100 420 outlet~;
#X obj 200 420 outlet~;
#X obj 100 370 *~;
#X obj 200 370 *~;
#X obj 300 230 trigger f f;
#X connect 4 0 7 0;
#X connect 5 0 4 0;
#X connect 6 0 8 0;
#X connect 7 0 13 1;
#X connect 8 0 14 1;
#X connect 9 0 15 0;
#X connect 10 0 13 0;
#X connect 10 0 14 0;
#X connect 13 0 11 0;
#X connect 14 0 12 0;
#X connect 15 0 5 0;
#X connect 15 1 6 0;
