#N canvas 0 49 1920 1009 12;
#X obj -30 -30 preset_hub k12 1 %hidden%;
#X obj 200 80 bng 20 250 50 0 empty empty empty 17 7 0 10 #fcfcfc #000000
#000000 1;
#X obj 200 139 print;
#X obj 400 81 bng 20 250 50 0 empty empty empty 17 7 0 10 #fcfcfc #000000
#000000 1;
#X obj 400 141 ./for-loop 1 15;
#X obj 400 170 print;
#X obj 600 81 bng 20 250 50 0 empty empty empty 17 7 0 10 #fcfcfc #000000
#000000 1;
#X obj 600 141 ./for-loop 1 15;
#X obj 600 170 print;
#X obj 200 110 ./for-loop 1 3;
#X msg 400 110 4 6;
#X msg 600 110 list 7 9;
#X connect 1 0 9 0;
#X connect 3 0 10 0;
#X connect 4 0 5 0;
#X connect 6 0 11 0;
#X connect 7 0 8 0;
#X connect 9 0 2 0;
#X connect 10 0 4 0;
#X connect 11 0 7 0;
