#N canvas 0 49 1920 1009 12;
#X obj -30 -30 preset_hub k12 1 %hidden%;
#X obj 100 198 inlet;
#X obj 250 198 inlet;
#X obj 420 198 inlet;
#X floatatom 100 230 5 0 0 1 Frequency_Hz - - 0 0 1, f 5;
#X floatatom 250 230 5 0 0 1 Frequency_Hz - - 0 0 1, f 5;
#X floatatom 420 230 5 0 0 1 Waveform - - 0 0 1, f 5;
#X obj 600 200 inlet~;
#X obj 100 580 outlet~;
#X text 10 10 Wavetable synthesis inside a oscillator (generates the
wanted waveform), f 84;
#X text 10 40 At the top-most level of the synthesizer three tables
with the actual waveforms must be created and pre-filled: osc-sine
\, osc-saw \, osc-square. The only exception to this rule is the noise
generator \, for which PD's [noise~] is used., f 84;
#X obj 100 280 *;
#X obj 100 330 swap;
#X obj 100 360 pack f f;
#X obj 100 390 route 0 1 2 3;
#X floatatom 100 500 5 0 0 0 - - - 0 0 1, f 5;
#X floatatom 180 500 5 0 0 0 - - - 0 0 1, f 5;
#X floatatom 260 500 5 0 0 0 - - - 0 0 1, f 5;
#X floatatom 360 500 5 0 0 0 - - - 0 0 1, f 5;
#X msg 100 420 \$1 0 0 0;
#X msg 200 420 0 \$1 0 0;
#X msg 300 420 0 0 \$1 0;
#X msg 400 420 0 0 0 \$1;
#X msg 500 420 0 0 0 0;
#X obj 100 450 unpack f f f f;
#X text 570 420 <--- Send frequency to selected table \, disable others
;
#X obj 600 229 s~ \$0-modulator;
#N canvas 0 49 1920 1009 sine 0;
#X text 10 10 Sine wave;
#X obj 100 100 inlet;
#X obj 100 260 outlet~;
#X obj 100 210 tabosc4~ osc-sine;
#X obj 100 150 phasor~;
#X obj 100 180 +~;
#X obj 170 150 r~ \$0-modulator;
#X connect 1 0 4 0;
#X connect 3 0 2 0;
#X connect 4 0 5 0;
#X connect 5 0 3 0;
#X connect 6 0 5 1;
#X restore 100 530 pd sine;
#N canvas 0 49 1920 1009 saw 0;
#X text 10 10 Saw wave;
#X obj 100 100 inlet;
#X obj 100 260 outlet~;
#X obj 100 150 phasor~;
#X obj 100 180 +~;
#X obj 170 150 r~ \$0-modulator;
#X obj 100 210 tabosc4~ osc-saw;
#X connect 1 0 3 0;
#X connect 3 0 4 0;
#X connect 4 0 6 0;
#X connect 5 0 4 1;
#X connect 6 0 2 0;
#X restore 180 530 pd saw;
#N canvas 0 49 1920 1009 square 0;
#X text 10 10 Square wave;
#X obj 100 100 inlet;
#X obj 100 260 outlet~;
#X obj 100 150 phasor~;
#X obj 100 180 +~;
#X obj 170 150 r~ \$0-modulator;
#X obj 100 210 tabosc4~ osc-square;
#X connect 1 0 3 0;
#X connect 3 0 4 0;
#X connect 4 0 6 0;
#X connect 5 0 4 1;
#X connect 6 0 2 0;
#X restore 260 530 pd square;
#N canvas 0 49 1920 1009 noise 1;
#X obj 220 100 inlet;
#X obj 100 250 outlet~;
#X text 10 10 Noise;
#X obj 100 190 noise~;
#X obj 100 220 *~;
#X obj 220 130 select 0;
#X msg 220 159 0;
#X msg 260 160 1;
#X floatatom 220 190 5 0 0 0 - - - 0 0 1, f 5;
#X connect 0 0 5 0;
#X connect 3 0 4 0;
#X connect 4 0 1 0;
#X connect 5 0 6 0;
#X connect 5 1 7 0;
#X connect 6 0 8 0;
#X connect 7 0 8 0;
#X connect 8 0 4 1;
#X restore 360 530 pd noise;
#X connect 1 0 4 0;
#X connect 2 0 5 0;
#X connect 3 0 6 0;
#X connect 4 0 11 0;
#X connect 5 0 11 1;
#X connect 6 0 12 1;
#X connect 7 0 26 0;
#X connect 11 0 12 0;
#X connect 12 0 13 0;
#X connect 12 1 13 1;
#X connect 13 0 14 0;
#X connect 14 0 19 0;
#X connect 14 1 20 0;
#X connect 14 2 21 0;
#X connect 14 3 22 0;
#X connect 14 4 23 0;
#X connect 15 0 27 0;
#X connect 16 0 28 0;
#X connect 17 0 29 0;
#X connect 18 0 30 0;
#X connect 19 0 24 0;
#X connect 20 0 24 0;
#X connect 21 0 24 0;
#X connect 22 0 24 0;
#X connect 23 0 24 0;
#X connect 24 0 15 0;
#X connect 24 1 16 0;
#X connect 24 2 17 0;
#X connect 24 3 18 0;
#X connect 27 0 8 0;
#X connect 28 0 8 0;
#X connect 29 0 8 0;
#X connect 30 0 8 0;
