#N canvas 0 49 1920 1009 12;
#X obj -30 -30 preset_hub k12 1 %hidden%;
#X obj 100 320 inlet;
#X text 10 10 Recalculation of all transient breakpoint values after
a change of the underlying data. Updates the following fields:, f
69;
#X text 10 220 Send a bang to the inlet to trigger the recalculation.
, f 69;
#X obj 100 2170 outlet;
#X text 10 120 - vd = Recalculate value/duration from x/y values,
f 69;
#X text 10 100 - xy = Recalculate x/y values from value/duration,
f 69;
#X text 10 150 With x and y dependent on "view ms" \, GOP width and
GOP height., f 69;
#X text 10 180 In any case will be starttime be recalculated as the
sum of all previous durations., f 69;
#X text 110 2081 ---- Confirm execution ----;
#X msg 560 1340 0;
#X obj 100 390 trigger b b;
#X obj 130 1530 route xy vd;
#X obj 220 1531 print Unknown message;
#X obj 100 1440 trigger b b;
#X obj 130 1470 symbol \$2;
#X text 10 80 Argument \$2 defines the type of calculation:, f 69
;
#X text 10 50 Argument \$1 must be \$0 of the calling [envgen-gui]
instance., f 69;
#X text 110 1420 ---- Recalculate breakpoint data ----;
#X text 170 1571 ---- x/y needs updated start time ----;
#X text 610 1671 ---- Now we can recalc the start time ----;
#X text 170 1671 ---- Now we can recalc x/y ----;
#X obj 200 2170 outlet;
#X text 390 1250 Attack: Zero values \, but x y moved out of the GOP
;
#X text 110 370 ---- Set fixed values for dummy attack breakpoint ----
, f 70;
#X text 110 1770 ---- Set fixed values for dummy release breakpoint
----;
#X obj 100 1790 trigger b b;
#X obj 140 420 trigger b b;
#X obj 140 520 trigger b b;
#X msg 170 450 -20;
#X obj 170 480 value _\$0_dummy_x;
#X obj 310 480 value _\$0_dummy_y;
#X obj 170 580 spigot;
#X obj 140 1280 spigot;
#X obj 130 1940 spigot;
#X obj 130 1850 spigot;
#X obj 170 650 get egui__breakpoint x y;
#X obj 140 1370 set egui__breakpoint x prev_x y prev_y value duration
starttime enabled selected, f 82;
#X obj 140 1340 value _\$0_dummy_x;
#X obj 420 1340 value _\$0_dummy_y;
#X obj 280 1340 value _\$0_dummy_x;
#X obj 140 1310 trigger b b p, f 82;
#X obj 130 1880 trigger b p, f 90;
#X msg 690 2000 0;
#X obj 130 1970 trigger p b;
#X text 10 240 Sends a bang on its left outlet when finished processing.
, f 69;
#X obj 130 2000 get egui__breakpoint x prev_x y prev_y value duration
enabled selected, f 70;
#X obj 130 2030 set egui__breakpoint x prev_x y prev_y value duration
enabled selected starttime, f 90;
#X obj 100 2100 trigger b b;
#X text 10 260 Sends 1/0 on the right outlet \, depending on data has
been changed., f 69;
#X text 390 1800 Must happen after the recalculation above \, because
the dummy release breakpoint could have been moved with the mouse and
this change first must be reflected in the last attack breakpoint in
[egui-recalc-breakpoints-vd]., f 82;
#X obj 830 480 value _\$0_plot_padding;
#X obj 830 450 value _\$1_plot_padding;
#X text 830 500 expr only understands \$0;
#X obj 170 1170 expr (_\$0_m * _\$0_dummy_x) + _\$0_c;
#X obj 170 1200 value _\$0_dummy_y;
#X obj 200 1000 value _\$0_m;
#X obj 200 1100 value _\$0_c;
#X obj 200 770 expr \\$f1 + _\$0_plot_padding;
#X obj 200 800 value _\$0_delta_x;
#X obj 430 799 value _\$0_delta_y;
#X obj 200 970 expr _\$0_delta_y / _\$0_delta_x;
#X obj 170 680 pack f f;
#X obj 200 740 unpack f f;
#X obj 170 710 trigger b l;
#X obj 170 940 trigger b b;
#X obj 170 1040 trigger b b;
#X obj 170 900 spigot;
#X obj 170 840 trigger b b;
#X obj 200 870 value _\$0_delta_x;
#X text 180 630 ---- Find line from GOP corner to breakbpoint (y =
mx + c) ----, f 64;
#X text 180 1150 ---- Move start point along the line outside of GOP
----;
#X text 700 630 Keep in mind \, that the coordinate system starts at
the top-left corner in PD. To make up for this \, the plots are moved
to the bottom of the GOP \, but the Y-coordinate must be flipped.,
f 67;
#X obj 430 770 expr \\$f2 - _\$0_plot_padding;
#X obj 200 1070 expr (_\$0_m * _\$0_plot_padding) + _\$0_plot_padding
;
#X obj 160 1691 ./egui-recalc-breakpoints-xy \$1 attack;
#X obj 160 1721 ./egui-recalc-breakpoints-xy \$1 release;
#X obj 600 1581 ./egui-recalc-breakpoints-vd \$1 attack;
#X obj 600 1611 ./egui-recalc-breakpoints-vd \$1 release;
#X msg 450 450 0;
#X obj 890 1580 value _\$0_data_changed1;
#X obj 890 1610 value _\$0_data_changed2;
#X obj 450 479 value _\$0_data_changed1;
#X obj 640 480 value _\$0_data_changed2;
#X obj 200 2140 expr _\$0_data_changed1 || _\$0_data_changed2;
#X obj 130 1500 list trim;
#X text 610 1561 ---- duration affects next start time ----;
#X obj 170 550 ./egui-get-breakpoint \$1 attack 1;
#X obj 140 1250 ./egui-get-breakpoint \$1 attack 0;
#X obj 160 1591 ./egui-recalc-breakpoints-starttime \$1 attack;
#X obj 160 1621 ./egui-recalc-breakpoints-starttime \$1 release;
#X obj 600 1691 ./egui-recalc-breakpoints-starttime \$1 attack;
#X obj 600 1720 ./egui-recalc-breakpoints-starttime \$1 release;
#X obj 130 1820 ./egui-get-breakpoint \$1 release 0;
#X obj 130 1910 ./egui-get-breakpoint \$1 attack -1;
#X connect 1 0 11 0;
#X connect 10 0 37 5;
#X connect 10 0 37 6;
#X connect 10 0 37 7;
#X connect 10 0 37 8;
#X connect 10 0 37 4;
#X connect 11 0 14 0;
#X connect 11 1 27 0;
#X connect 12 0 89 0;
#X connect 12 1 77 0;
#X connect 12 2 13 0;
#X connect 14 0 26 0;
#X connect 14 1 15 0;
#X connect 15 0 85 0;
#X connect 26 0 48 0;
#X connect 26 1 93 0;
#X connect 27 0 28 0;
#X connect 27 1 29 0;
#X connect 27 1 52 0;
#X connect 27 1 79 0;
#X connect 28 0 88 0;
#X connect 28 1 87 0;
#X connect 29 0 30 0;
#X connect 29 0 31 0;
#X connect 32 0 36 0;
#X connect 33 0 41 0;
#X connect 34 0 44 0;
#X connect 35 0 42 0;
#X connect 36 0 62 0;
#X connect 36 1 62 1;
#X connect 38 0 37 0;
#X connect 39 0 37 2;
#X connect 39 0 37 3;
#X connect 40 0 37 1;
#X connect 41 0 38 0;
#X connect 41 1 40 0;
#X connect 41 1 39 0;
#X connect 41 2 37 9;
#X connect 42 0 94 0;
#X connect 42 1 47 9;
#X connect 43 0 47 8;
#X connect 44 0 46 0;
#X connect 44 1 43 0;
#X connect 46 0 47 0;
#X connect 46 1 47 1;
#X connect 46 2 47 2;
#X connect 46 3 47 3;
#X connect 46 4 47 4;
#X connect 46 5 47 5;
#X connect 46 6 47 6;
#X connect 46 7 47 7;
#X connect 48 0 4 0;
#X connect 48 1 84 0;
#X connect 52 0 51 0;
#X connect 54 0 55 0;
#X connect 58 0 59 0;
#X connect 61 0 56 0;
#X connect 62 0 64 0;
#X connect 63 0 58 0;
#X connect 63 0 73 0;
#X connect 63 1 73 1;
#X connect 64 0 68 0;
#X connect 64 1 63 0;
#X connect 65 0 66 0;
#X connect 65 1 61 0;
#X connect 66 0 54 0;
#X connect 66 1 74 0;
#X connect 67 0 65 0;
#X connect 68 0 67 0;
#X connect 68 1 69 0;
#X connect 69 0 67 1;
#X connect 73 0 60 0;
#X connect 74 0 57 0;
#X connect 75 0 76 0;
#X connect 77 0 78 0;
#X connect 77 1 80 0;
#X connect 78 0 91 0;
#X connect 78 1 81 0;
#X connect 79 0 82 0;
#X connect 79 0 83 0;
#X connect 84 0 22 0;
#X connect 85 0 12 0;
#X connect 87 0 32 0;
#X connect 87 1 32 1;
#X connect 88 0 33 0;
#X connect 88 1 33 1;
#X connect 89 0 90 0;
#X connect 90 0 75 0;
#X connect 91 0 92 0;
#X connect 93 0 35 0;
#X connect 93 1 35 1;
#X connect 94 0 34 0;
#X connect 94 1 34 1;
