#N canvas 0 49 1920 1009 12;
#X obj -30 -30 preset_hub k12 1 %hidden%;
#X obj 100 200 inlet;
#X text 10 120 Send a bang to the inlet to trigger the sending., f
69;
#X obj 100 1000 outlet;
#X obj 100 970 trigger b;
#X text 110 950 ---- Confirm execution ----;
#X text 10 140 Sends a bang on its outlet when finished processing.
, f 69;
#X text 10 10 Send current values to the controlled [envgen~] object.
Befor this [egui-recalc-breakpoints] should have been called to update
the breakpoint arrays., f 69;
#X text 10 70 Argument \$1 must be \$0 of the calling [envgen-gui]
instance., f 69;
#X obj 100 270 trigger b b;
#X obj 130 300 delay 500;
#X obj 200 400 s \$1-send-receive-lock;
#X obj 160 340 trigger b b;
#X text 170 320 ---- Prevent receiving our own values ----;
#X msg 200 370 1;
#X obj 200 900 s \$1-send-receive-lock;
#X obj 160 840 trigger b b;
#X text 170 820 ---- Release send/receive lock ----;
#X msg 200 870 0;
#X text 170 450 ---- Send attack breakpoints ----;
#X text 170 630 ---- Send release breackpoints ----;
#X text 110 250 ---- Schedule debounced data transfer to envelope generator
----, f 66;
#X text 10 90 \$2 must be the name of the generator's receiver: [r
...]-->[envgen~], f 69;
#X obj 190 590 s \$2;
#X obj 160 470 trigger b b;
#X obj 190 500 ./egui-get-breakpoint-list \$1 attack;
#X obj 160 650 trigger b b;
#X obj 190 770 s \$2;
#X obj 190 680 ./egui-get-breakpoint-list \$1 release;
#X obj 190 560 list trim;
#X obj 190 530 list prepend set attack;
#X obj 190 740 list trim;
#X obj 190 710 list prepend set release;
#X connect 1 0 9 0;
#X connect 4 0 3 0;
#X connect 9 0 4 0;
#X connect 9 1 10 0;
#X connect 10 0 12 0;
#X connect 12 0 24 0;
#X connect 12 1 14 0;
#X connect 14 0 11 0;
#X connect 16 1 18 0;
#X connect 18 0 15 0;
#X connect 24 0 26 0;
#X connect 24 1 25 0;
#X connect 25 0 30 0;
#X connect 26 0 16 0;
#X connect 26 1 28 0;
#X connect 28 0 32 0;
#X connect 29 0 23 0;
#X connect 30 0 29 0;
#X connect 31 0 27 0;
#X connect 32 0 31 0;
