#N struct egui__main float x2 float y2 float dx float dy float view
array attack egui__breakpoint array release egui__breakpoint;
#N struct egui__breakpoint float x float y float prev_x float prev_y
float enabled float selected float value float duration float starttime
;
#N canvas 0 49 1920 1009 12;
#X obj 700 280 cnv 15 300 70 empty empty empty 20 12 0 14 #e2eaf4 #404040
0;
#X obj 700 100 cnv 15 300 40 empty \$0-ui-label Volume 10 17 0 12 #e0e0e0
#404040 0;
#X obj -30 -30 preset_hub k12 1 %hidden%;
#X floatatom 940 110 5 0 0 0 View - #0-ui-view 0 0 1, f 5;
#X msg 940 60 set \$1;
#X obj 700 280 hradio 15 0 0 20 \$0-ui-radios-out empty empty 0 -8
0 10 #fcfcfc #000000 #000000 0 0;
#X floatatom 870 306 5 0 1 3 Value - #0-ui-value 0 0 0, f 5;
#X floatatom 930 306 5 0 99999 3 Duration - #0-ui-duration 0 0 0,
f 5;
#X obj 830 420 r \$0-ui-value;
#X msg 830 450 set \$1;
#X obj 970 420 r \$0-ui-duration;
#X msg 970 449 set \$1;
#X obj 940 30 r \$0-ui-view;
#X obj 710 306 bng 15 250 50 0 \$0-ui-add-button-out \$0-ui-add-button-in
Add 20 6 0 12 #fcfcfc #9b5050 #000000 1;
#X obj 770 306 bng 15 250 50 0 \$0-ui-remove-button-out \$0-ui-remove-button-in
Remove 20 6 0 12 #fcfcfc #9b5050 #000000 0;
#X text 970 306 ms;
#X text 980 110 ms;
#X obj 560 250 r \$0-ui-radios-in;
#X msg 1660 290 20;
#X text 1660 340 Limited by the width of the hradios;
#X text 1230 340 Must match the GOP size of the array plots;
#X obj 1200 260 trigger b b;
#X text 1210 240 ---- Set global variables ----;
#X text 1210 670 ---- Initialize data structures ----;
#X obj 0 0 cnv 15 500 30 empty empty User\ Interface\ for\ the\ [envgen~]\ envelope\ generator
10 12 0 14 #e0e0e0 #404040 0;
#X obj 0 140 cnv 15 500 15 empty empty Creation\ Arguments 10 5 0 12
#e0e0e0 #404040 0;
#X text 10 160 \$1 symbol: Label, f 68;
#X text 10 180 \$2 symbol: Name of the generator's receiver: [r ...]-->[envgen~]
, f 68;
#X text 10 200 \$3 symbol: Name of the generator's echo sender: [envgen~]-->[s
...], f 68;
#X text 10 40 Provides a GUI to visualy edit the envelope breakpoints.
Communication with the [envgen~] is two-way with two distinct send/receive
pairs. This allows to program the envelope generator from the GUI \,
but also to update the GUI when the envelope generator recieves messages
from other sources., f 68;
#X obj 0 230 cnv 15 500 15 empty empty Isolation\ from\ other\ patches
10 5 0 12 #e0e0e0 #404040 0;
#N canvas 0 49 1920 1009 egui__init 0;
#X obj 100 369 pointer;
#X obj 100 200 trigger b b;
#X obj 100 130 bng 15 250 50 0 empty empty empty 17 7 0 10 #fcfcfc
#000000 #000000 1;
#X obj 100 100 inlet;
#X text 10 10 Initialization of the main structure;
#X text 110 320 ---- Create main instance ----;
#X text 880 490 Output: main pointer;
#X text 110 180 ---- Clear data ----;
#X text 110 640 ---- Initialiaze UI widgets ----;
#X obj 130 591 set egui__main view, f 21;
#X obj 170 561 r \$0-ui-view;
#X obj 130 560 f;
#X obj 100 400 trigger b b p, f 110;
#X msg 130 230 clear;
#X text 880 430 Placing the background corners outside the GOP area
\,;
#X text 880 450 to that they cannot be changed accidently with the
mouse;
#X obj 100 460 expr _\$0_plot_w + 20;
#X obj 260 460 expr _\$0_plot_h + 20;
#X obj 100 490 append egui__main x2 y2 dx dy, f 110;
#X obj 420 460 value _\$0_plot_padding;
#X obj 590 460 expr _\$0_plot_h - _\$0_plot_padding;
#X text 10 40 Initialization of the main data structure;
#X obj 100 660 ./egui-refresh-breakpoint-ui \$0;
#X obj 100 520 trigger b b p, f 26;
#X obj 130 260 send pd-\$0_egui__ui;
#X msg 100 340 traverse pd-\$0_egui__ui \, bang;
#X connect 0 0 12 0;
#X connect 1 0 25 0;
#X connect 1 1 13 0;
#X connect 2 0 1 0;
#X connect 3 0 2 0;
#X connect 10 0 11 1;
#X connect 11 0 9 0;
#X connect 12 0 16 0;
#X connect 12 1 17 0;
#X connect 12 1 19 0;
#X connect 12 1 20 0;
#X connect 12 2 18 4;
#X connect 13 0 24 0;
#X connect 16 0 18 0;
#X connect 17 0 18 1;
#X connect 18 0 23 0;
#X connect 19 0 18 2;
#X connect 20 0 18 3;
#X connect 23 0 22 0;
#X connect 23 1 11 0;
#X connect 23 2 9 1;
#X connect 25 0 0 0;
#X restore 1230 720 pd egui__init;
#N canvas 0 49 1920 1009 egui__handle_external_parameter_change 0;
#X text 20 20 Update the breakpoints when new values are sent to the
[envgen~] object from someone else. This establishes a two-way binding
between UI and [envgen~] where the UI will follow when the [envgen~]
receives new values from somewhere else., f 72;
#X obj 100 300 route symbol, f 19;
#X obj 100 330 list trim 1;
#X obj 100 360 route list;
#X obj 130 780 route attack release;
#X obj 130 750 route set;
#X obj 100 390 trigger a;
#X obj 210 1070 unpack f f;
#X obj 180 1010 ./foreach-list-split 2;
#X text 110 440 ---- Get main instance ----;
#X obj 140 520 s \$0-parchg-main-pointer;
#X obj 100 460 trigger a b;
#X text 100 2040 ----- Redraw breakpoints ----;
#X obj 100 720 trigger b a;
#X obj 90 1990 spigot;
#X obj 100 590 trigger a b;
#X msg 130 620 0;
#X obj 180 910 setsize egui__main attack;
#X obj 180 850 list length;
#X obj 750 850 list length;
#X obj 750 911 setsize egui__main release;
#X obj 100 230 spigot;
#X obj 170 170 r \$0-init-done;
#X obj 950 910 r \$0-parchg-main-pointer;
#X obj 370 910 r \$0-parchg-main-pointer;
#X msg 150 1960 1;
#X obj 150 1930 trigger b;
#X obj 150 820 trigger a a;
#X obj 720 820 trigger a a;
#X text 160 800 ---- Resize array ----;
#X text 730 800 ---- Resize array ----;
#X obj 190 1960 r \$0-parchg-no-redraw;
#X obj 130 650 s \$0-parchg-no-redraw;
#X msg 210 1330 0;
#X obj 150 1430 trigger a b;
#X text 160 1220 ---- Reset selected/enabled flags ----;
#X obj 210 1360 set egui__breakpoint selected enabled;
#X obj 210 1300 trigger b b p;
#X msg 260 1330 1;
#X text 160 1910 ---- Release no-redraw lock ----;
#X obj 150 1170 trigger a;
#X text 160 960 ---- Set new breakpoint values ----;
#X text 730 960 ---- Set new breakpoint values ----;
#X obj 720 980 trigger a a;
#X text 110 700 ---- Handle received message ----;
#X text 110 570 ---- Prevent redrawing unless the message is relevant
----;
#X obj 100 170 r \$3;
#X obj 310 1070 element egui__main attack;
#X obj 500 1070 r \$0-parchg-main-pointer;
#X obj 780 1070 unpack f f;
#X obj 750 1010 ./foreach-list-split 2;
#X obj 1080 1070 r \$0-parchg-main-pointer;
#X obj 880 1070 element egui__main release;
#X obj 720 1140 trigger a;
#X obj 150 1140 trigger a;
#X obj 210 1100 set egui__breakpoint value duration;
#X obj 780 1100 set egui__breakpoint value duration;
#X obj 180 880 expr imodf($f1 / 2) + 1;
#X obj 310 1040 + 1;
#X obj 150 980 trigger a a;
#X obj 190 1550 set egui__breakpoint enabled;
#X obj 190 1490 trigger b p;
#X msg 190 1520 0;
#X obj 210 1800 trigger b p;
#X obj 210 1860 set egui__breakpoint selected;
#X msg 210 1840 1;
#X obj 90 2060 ./egui-recalc-breakpoints \$0 xy;
#X text 110 280 ---- Remove symbol/list prefix ----;
#X obj 300 170 r \$0-send-receive-lock;
#X obj 300 200 expr \\$f1 == 0;
#X obj 90 2090 ./egui-refresh-breakpoint-ui \$0;
#X text 160 1600 ---- Pre-select first real breakpoint ----;
#X obj 750 880 expr imodf($f1 / 2 + 1);
#X obj 880 1040 + 1;
#X obj 500 1800 trigger b p;
#X obj 500 1860 set egui__breakpoint selected;
#X msg 500 1830 1;
#X obj 180 1740 select 1, f 25;
#X obj 470 1740 select 1, f 26;
#X obj 180 1680 getsize egui__main attack;
#X obj 470 1680 getsize egui__main release;
#X obj 180 1650 pointer;
#X obj 240 1650 r \$0-parchg-main-pointer;
#X obj 150 1620 trigger a b;
#X obj 470 1650 pointer;
#X obj 530 1650 r \$0-parchg-main-pointer;
#X obj 470 1710 expr \\$f1 > 1;
#X obj 180 1710 expr \\$f1 > 1;
#X text 920 1040 Skip dummy breakpoint;
#X text 930 880 dummy + (list length / 2);
#X text 360 880 dummy + (list length / 2);
#X text 350 1040 Skip dummy breakpoint;
#X obj 150 1240 trigger a b;
#X obj 580 1360 set egui__breakpoint selected enabled;
#X obj 580 1300 trigger b b p;
#X msg 630 1330 1;
#X msg 579 1331 0;
#X text 160 1410 ---- Disable dummy breakpoints at the beginning (attack
only) ----, f 67;
#X obj 140 490 ./egui-get-main \$0;
#X obj 180 1270 ./egui-foreach-breakpoint \$0 attack;
#X obj 550 1270 ./egui-foreach-breakpoint \$0 release;
#X obj 190 1460 ./egui-get-breakpoint \$0 attack 0;
#X obj 210 1770 ./egui-get-breakpoint \$0 attack 1;
#X obj 500 1770 ./egui-get-breakpoint \$0 release 1;
#X connect 1 0 2 0;
#X connect 1 1 3 0;
#X connect 2 0 3 0;
#X connect 3 1 6 0;
#X connect 4 0 27 0;
#X connect 4 1 28 0;
#X connect 5 0 4 0;
#X connect 6 0 11 0;
#X connect 7 0 55 0;
#X connect 7 1 55 1;
#X connect 8 0 7 0;
#X connect 8 1 58 0;
#X connect 11 0 15 0;
#X connect 11 1 98 0;
#X connect 13 0 14 0;
#X connect 13 1 5 0;
#X connect 14 0 66 0;
#X connect 15 0 13 0;
#X connect 15 1 16 0;
#X connect 16 0 32 0;
#X connect 18 0 57 0;
#X connect 19 0 72 0;
#X connect 21 0 1 0;
#X connect 22 0 21 1;
#X connect 23 0 20 1;
#X connect 24 0 17 1;
#X connect 25 0 14 1;
#X connect 26 0 25 0;
#X connect 27 0 59 0;
#X connect 27 1 18 0;
#X connect 28 0 43 0;
#X connect 28 1 19 0;
#X connect 31 0 14 1;
#X connect 33 0 36 0;
#X connect 34 0 83 0;
#X connect 34 1 101 0;
#X connect 37 0 33 0;
#X connect 37 1 38 0;
#X connect 37 2 36 2;
#X connect 38 0 36 1;
#X connect 40 0 92 0;
#X connect 43 0 53 0;
#X connect 43 1 50 0;
#X connect 46 0 21 0;
#X connect 47 0 55 2;
#X connect 48 0 47 1;
#X connect 49 0 56 0;
#X connect 49 1 56 1;
#X connect 50 0 49 0;
#X connect 50 1 73 0;
#X connect 51 0 52 1;
#X connect 52 0 56 2;
#X connect 53 0 40 0;
#X connect 54 0 40 0;
#X connect 57 0 17 0;
#X connect 58 0 47 0;
#X connect 59 0 54 0;
#X connect 59 1 8 0;
#X connect 61 0 62 0;
#X connect 61 1 60 1;
#X connect 62 0 60 0;
#X connect 63 0 65 0;
#X connect 63 1 64 1;
#X connect 65 0 64 0;
#X connect 66 0 70 0;
#X connect 68 0 69 0;
#X connect 69 0 21 1;
#X connect 72 0 20 0;
#X connect 73 0 52 0;
#X connect 74 0 76 0;
#X connect 74 1 75 1;
#X connect 76 0 75 0;
#X connect 77 0 102 0;
#X connect 77 1 84 0;
#X connect 78 0 103 0;
#X connect 79 0 87 0;
#X connect 80 0 86 0;
#X connect 81 0 79 0;
#X connect 82 0 81 1;
#X connect 83 0 26 0;
#X connect 83 1 81 0;
#X connect 84 0 80 0;
#X connect 85 0 84 1;
#X connect 86 0 78 0;
#X connect 87 0 77 0;
#X connect 92 0 34 0;
#X connect 92 1 99 0;
#X connect 92 1 100 0;
#X connect 94 0 96 0;
#X connect 94 1 95 0;
#X connect 94 2 93 2;
#X connect 95 0 93 1;
#X connect 96 0 93 0;
#X connect 98 0 10 0;
#X connect 99 0 37 0;
#X connect 100 0 94 0;
#X connect 101 0 61 0;
#X connect 102 0 63 0;
#X connect 103 0 74 0;
#X restore 100 600 pd egui__handle_external_parameter_change;
#X obj 1200 530 trigger b b;
#X obj 1350 570 symbol \$1;
#X obj 1240 600 s \$0-ui-view;
#X text 1210 510 ---- Initialize UI header ----;
#X msg 1350 600 \; \$0-ui-label label \$1;
#N canvas 0 49 1920 1009 egui__handle_plot_interaction 0;
#X text 10 10 Handle mouse interaction with the plotted breakpoints
, f 69;
#X obj 100 390 ./egui-recalc-breakpoints \$0 vd;
#X obj 100 200 r \$0-init-done;
#X text 10 40 This starts a periodic timer that checks multiple times
per second \, if the x/y value of a breakpoint has changed. Unfortunately
we need to use this active polling \, as PD doesn't send a change message
for struct array elements. Only for atomic struct values., f 69;
#X obj 100 230 select 1;
#X obj 150 310 value _\$0_poll_plot_ms;
#X obj 100 280 trigger b b;
#X obj 100 420 select 1;
#X obj 100 340 metro;
#X obj 100 530 ./egui-send-values \$0 \$2;
#X obj 100 470 ./egui-recalc-breakpoints \$0 xy;
#X text 330 470 Because min/max-clipping might have occured;
#X obj 100 500 ./egui-refresh-breakpoint-ui \$0;
#X connect 1 1 7 0;
#X connect 2 0 4 0;
#X connect 4 0 6 0;
#X connect 5 0 8 1;
#X connect 6 0 8 0;
#X connect 6 1 5 0;
#X connect 7 0 10 0;
#X connect 8 0 1 0;
#X connect 10 0 12 0;
#X connect 12 0 9 0;
#X restore 100 680 pd egui__handle_plot_interaction;
#X msg 1230 290 300;
#X obj 1660 320 value _\$0_max_breakpoints;
#X msg 1360 290 140;
#X obj 1490 319 value _\$0_plot_padding;
#X obj 1230 320 value _\$0_plot_w;
#X obj 1360 320 value _\$0_plot_h;
#X text 10 260 This abstraction should be fairly well isolated from
the pure data environment. We use a egui__ prefix for sub-patches and
struct templates. To be sure \, avoid the egui__ prefix to not mess-up
the envelope generator UI., f 68;
#N canvas 0 49 1920 1009 egui__handle_plot_view_change 0;
#X text 10 10 Handle new value in the "field" number box (view window)
;
#X obj 100 100 r \$0-ui-view;
#X obj 130 230 trigger f b;
#X text 110 180 ---- Update main.view field ----;
#X obj 130 290 set egui__main view;
#X obj 100 200 trigger b f;
#X text 110 340 ---- Redraw breakpoints ----;
#X obj 100 129 spigot;
#X obj 160 130 r \$0-init-done;
#X obj 100 360 ./egui-recalc-breakpoints \$0 xy;
#X obj 160 260 ./egui-get-main \$0;
#X connect 1 0 7 0;
#X connect 2 0 4 0;
#X connect 2 1 10 0;
#X connect 5 0 9 0;
#X connect 5 1 2 0;
#X connect 7 0 5 0;
#X connect 8 0 7 1;
#X connect 10 0 4 1;
#X restore 100 650 pd egui__handle_plot_view_change;
#N canvas 0 49 1920 1009 egui__handle_hradio_selection_change 0;
#X obj 100 100 r \$0-ui-radios-out;
#X text 10 10 Handle changed selection in the breakpoint [hradio],
f 69;
#X obj 100 1320 ./egui-refresh-breakpoint-ui \$0;
#X obj 360 230 value _\$0_hrsc_selected_index;
#X obj 100 300 trigger b b;
#X text 110 280 ---- Update selection flag in attack breakpoints;
#X obj 100 810 trigger b b;
#X text 110 790 ---- Update selection flag in release breakpoints ----
;
#X text 110 1300 ---- Reflect new values in in data entry fields ----
;
#X text 110 150 ---- Initialize variables ----;
#X obj 100 170 trigger b b f;
#X msg 130 200 0;
#X obj 130 230 value _\$0_hrsc_current_index;
#X obj 160 510 expr _\$0_hrsc_current_index + 1;
#X obj 160 539 value _\$0_hrsc_current_index;
#X obj 190 450 expr _\$0_hrsc_current_index == _\$0_hrsc_selected_index
;
#X obj 190 480 set egui__breakpoint selected, f 57;
#X obj 160 1020 expr _\$0_hrsc_current_index + 1;
#X obj 160 1049 value _\$0_hrsc_current_index;
#X obj 190 960 expr _\$0_hrsc_current_index == _\$0_hrsc_selected_index
;
#X obj 190 990 set egui__breakpoint selected, f 58;
#X obj 190 420 trigger b p, f 57;
#X obj 190 930 trigger b p, f 58;
#X obj 160 390 trigger b p;
#X obj 160 900 trigger b p;
#X obj 160 360 spigot;
#X obj 160 870 spigot;
#X text 220 360 Skip dummy breakpoint;
#X text 220 870 Skip dummy breakpoint;
#X obj 100 1100 trigger b b;
#X obj 130 1160 spigot;
#X obj 130 1190 trigger b p;
#X msg 130 1220 0;
#X obj 130 1249 set egui__breakpoint selected;
#X obj 100 590 trigger b b;
#X obj 130 650 spigot;
#X obj 130 680 trigger b p;
#X msg 130 710 0;
#X obj 130 739 set egui__breakpoint selected;
#X obj 130 330 ./egui-foreach-breakpoint \$0 attack;
#X obj 130 620 ./egui-get-breakpoint \$0 attack 0;
#X obj 130 840 ./egui-foreach-breakpoint \$0 release;
#X obj 130 1130 ./egui-get-breakpoint \$0 release 0;
#X connect 0 0 10 0;
#X connect 4 0 34 0;
#X connect 4 1 39 0;
#X connect 6 0 29 0;
#X connect 6 1 41 0;
#X connect 10 0 4 0;
#X connect 10 1 11 0;
#X connect 10 2 3 0;
#X connect 11 0 12 0;
#X connect 13 0 14 0;
#X connect 15 0 16 0;
#X connect 17 0 18 0;
#X connect 19 0 20 0;
#X connect 21 0 15 0;
#X connect 21 1 16 1;
#X connect 22 0 19 0;
#X connect 22 1 20 1;
#X connect 23 0 13 0;
#X connect 23 1 21 0;
#X connect 24 0 17 0;
#X connect 24 1 22 0;
#X connect 25 0 23 0;
#X connect 26 0 24 0;
#X connect 29 0 2 0;
#X connect 29 1 42 0;
#X connect 30 0 31 0;
#X connect 31 0 32 0;
#X connect 31 1 33 1;
#X connect 32 0 33 0;
#X connect 34 0 6 0;
#X connect 34 1 40 0;
#X connect 35 0 36 0;
#X connect 36 0 37 0;
#X connect 36 1 38 1;
#X connect 37 0 38 0;
#X connect 39 0 25 0;
#X connect 39 1 25 1;
#X connect 40 0 35 0;
#X connect 40 1 35 1;
#X connect 41 0 26 0;
#X connect 41 1 26 1;
#X connect 42 0 30 0;
#X connect 42 1 30 1;
#X restore 100 730 pd egui__handle_hradio_selection_change;
#N canvas 0 49 1920 1009 egui__handle_data_entry_fields 0;
#X text 10 10 Handle changed values in the UI fields for the current
breakpoint, f 69;
#X obj 100 550 ./egui-recalc-breakpoints \$0 xy;
#X text 110 530 ---- Redraw breakpoints and send values to [envgen~]
----;
#X obj 700 120 r \$0-ui-duration;
#X text 100 100 ---- New value for selected breakpoint ----;
#X text 700 100 ---- New duration for selected breakpoint ----;
#X obj 700 200 spigot;
#X obj 840 120 r \$0-init-done;
#X obj 960 120 r \$0-update-ui-lock;
#X obj 960 150 expr \\$f1 == 0;
#X obj 100 200 spigot;
#X obj 240 120 r \$0-init-done;
#X obj 360 120 r \$0-update-ui-lock;
#X obj 360 150 expr \\$f1 == 0;
#X obj 100 120 r \$0-ui-value;
#X obj 100 230 trigger b f;
#X obj 130 260 value _\$0_hdef_new_value;
#X obj 700 230 trigger b f;
#X obj 100 330 trigger b b;
#X obj 700 330 trigger b b;
#X obj 700 550 ./egui-recalc-breakpoints \$0 xy;
#X text 710 530 ---- Redraw breakpoints and send values to [envgen~]
----;
#X obj 100 580 ./egui-refresh-breakpoint-ui \$0;
#X obj 700 580 ./egui-refresh-breakpoint-ui \$0;
#X obj 100 610 ./egui-send-values \$0 \$2;
#X obj 700 610 ./egui-send-values \$0 \$2;
#X obj 730 260 value _\$0_hdef_new_duration;
#X obj 130 390 trigger b p, f 30;
#X obj 130 420 value _\$0_hdef_new_value;
#X obj 130 480 set egui__breakpoint value, f 30;
#X obj 130 450 ./egui-clip-value;
#X text 110 310 ---- Update selected breakpoint ----;
#X text 710 310 ---- Update selected breakpoint ----;
#X obj 730 390 trigger b p, f 30;
#X obj 730 420 value _\$0_hdef_new_duration;
#X obj 730 480 set egui__breakpoint duration, f 30;
#X obj 730 450 ./egui-clip-duration;
#X obj 130 360 ./egui-get-selected-breakpoint \$0;
#X obj 730 360 ./egui-get-selected-breakpoint \$0;
#X connect 1 0 22 0;
#X connect 3 0 6 0;
#X connect 6 0 17 0;
#X connect 7 0 6 1;
#X connect 8 0 9 0;
#X connect 9 0 6 1;
#X connect 10 0 15 0;
#X connect 11 0 10 1;
#X connect 12 0 13 0;
#X connect 13 0 10 1;
#X connect 14 0 10 0;
#X connect 15 0 18 0;
#X connect 15 1 16 0;
#X connect 17 0 19 0;
#X connect 17 1 26 0;
#X connect 18 0 1 0;
#X connect 18 1 37 0;
#X connect 19 0 20 0;
#X connect 19 1 38 0;
#X connect 20 0 23 0;
#X connect 22 0 24 0;
#X connect 23 0 25 0;
#X connect 27 0 28 0;
#X connect 27 1 29 1;
#X connect 28 0 30 0;
#X connect 30 0 29 0;
#X connect 33 0 34 0;
#X connect 33 1 35 1;
#X connect 34 0 36 0;
#X connect 36 0 35 0;
#X connect 37 0 27 0;
#X connect 38 0 33 0;
#X restore 100 830 pd egui__handle_data_entry_fields;
#X obj 1200 160 trigger b b;
#X obj 1200 690 trigger b b;
#X msg 1240 190 \; \$0-init-done 0;
#X msg 1200 750 \; \$0-init-done 1;
#X obj 830 390 r \$0-ui--value;
#X obj 970 390 r \$0-ui--duration;
#X obj 1240 440 value _\$0_poll_plot_ms;
#X msg 1240 410 200;
#X obj 1200 380 trigger b b;
#X text 1240 460 Query interval for the mouse interactions;
#X msg 1490 290 3;
#X msg 1240 570 5000;
#N canvas 0 49 1920 1009 egui__handle_add_breakpoint_button 0;
#X text 260 530 Attack breakpoints;
#X text 840 530 Release breakpoints;
#X obj 100 460 trigger b s;
#X obj 220 530 bang;
#X obj 800 530 bang;
#X obj 100 420 ./egui-get-selected-breakpoint \$0;
#X obj 200 500 select attack release;
#X text 10 10 Handle click on the "Add Breakpoint" button, f 69;
#X obj 100 1280 ./egui-send-values \$0 \$2;
#X text 110 1230 ---- Send updated values to the [envgen~] ----;
#X obj 220 580 ./egui-get-breakpoint-list \$0 attack;
#X obj 370 460 value _\$0_habb_selected_index;
#X obj 220 650 trigger l b;
#X obj 220 710 list split;
#X text 230 560 ---- Get breakpoints as raw list data ----;
#X obj 250 740 list split 2, f 28;
#X text 230 630 ---- Duplicate selected breakpoint ----;
#X obj 250 680 expr (_\$0_habb_selected_index - 1) * 2;
#X msg 250 770 \$1 \$2 \$1 \$2;
#X obj 250 800 list append, f 14;
#X obj 220 830 list append;
#X obj 250 930 list prepend set attack;
#X obj 250 960 list trim;
#X text 230 880 ---- Send updated values to self for display ----;
#X obj 800 650 trigger l b;
#X obj 800 710 list split;
#X text 810 560 ---- Get breakpoints as raw list data ----;
#X obj 830 740 list split 2, f 28;
#X text 810 630 ---- Duplicate selected breakpoint ----;
#X obj 830 680 expr (_\$0_habb_selected_index - 1) * 2;
#X msg 830 770 \$1 \$2 \$1 \$2;
#X obj 830 800 list append, f 14;
#X obj 800 830 list append;
#X obj 830 960 list trim;
#X text 810 880 ---- Send updated values to self for display ----;
#X obj 800 580 ./egui-get-breakpoint-list \$0 release;
#X obj 830 930 list prepend set release;
#X obj 250 990 s \$3;
#X obj 830 990 s \$3;
#X text 230 1040 ---- Update selection flag ----;
#X obj 350 1090 value _\$0_habb_current_index;
#X obj 220 1150 expr _\$0_habb_current_index == (_\$0_habb_selected_index
+ 1);
#X obj 220 1180 set egui__breakpoint selected, f 64;
#X obj 220 1120 trigger b p, f 64;
#X text 810 1040 ---- Update selection flag ----;
#X obj 930 1090 value _\$0_habb_current_index;
#X obj 800 1150 expr _\$0_habb_current_index == (_\$0_habb_selected_index
+ 1);
#X obj 800 1180 set egui__breakpoint selected, f 64;
#X obj 800 1120 trigger b p, f 64;
#X obj 100 100 r \$0-ui-add-button-out;
#X obj 220 900 trigger b l;
#X obj 800 900 trigger b l;
#X obj 100 1250 ./egui-refresh-breakpoint-ui \$0;
#X text 110 150 ---- Prevent creation of more breakpoints than the
UI can handle ----, f 70;
#X obj 100 170 trigger b b;
#X obj 100 350 spigot;
#X text 110 400 ---- Create new breakpoint ----;
#X obj 130 230 ./egui-get-breakpoint-list \$0 attack;
#X obj 400 230 ./egui-get-breakpoint-list \$0 release;
#X obj 130 290 +;
#X obj 130 200 trigger b b;
#X obj 130 320 expr \\$f1 < (_\$0_max_breakpoints * 2);
#X obj 130 260 list length;
#X obj 400 260 list length;
#X obj 220 1060 ./egui-foreach-breakpoint \$0 attack;
#X obj 800 1060 ./egui-foreach-breakpoint \$0 release;
#X connect 2 0 52 0;
#X connect 2 1 6 0;
#X connect 3 0 10 0;
#X connect 4 0 35 0;
#X connect 5 1 2 0;
#X connect 5 2 11 0;
#X connect 6 0 3 0;
#X connect 6 1 4 0;
#X connect 10 0 12 0;
#X connect 12 0 13 0;
#X connect 12 1 17 0;
#X connect 13 0 20 0;
#X connect 13 1 15 0;
#X connect 15 0 18 0;
#X connect 15 1 19 1;
#X connect 17 0 13 1;
#X connect 18 0 19 0;
#X connect 19 0 20 1;
#X connect 20 0 50 0;
#X connect 21 0 22 0;
#X connect 22 0 37 0;
#X connect 24 0 25 0;
#X connect 24 1 29 0;
#X connect 25 0 32 0;
#X connect 25 1 27 0;
#X connect 27 0 30 0;
#X connect 27 1 31 1;
#X connect 29 0 25 1;
#X connect 30 0 31 0;
#X connect 31 0 32 1;
#X connect 32 0 51 0;
#X connect 33 0 38 0;
#X connect 35 0 24 0;
#X connect 36 0 33 0;
#X connect 41 0 42 0;
#X connect 43 0 41 0;
#X connect 43 1 42 1;
#X connect 46 0 47 0;
#X connect 48 0 46 0;
#X connect 48 1 47 1;
#X connect 49 0 54 0;
#X connect 50 0 64 0;
#X connect 50 1 21 0;
#X connect 51 0 65 0;
#X connect 51 1 36 0;
#X connect 52 0 8 0;
#X connect 54 0 55 0;
#X connect 54 1 60 0;
#X connect 55 0 5 0;
#X connect 57 0 62 0;
#X connect 58 0 63 0;
#X connect 59 0 61 0;
#X connect 60 0 57 0;
#X connect 60 1 58 0;
#X connect 61 0 55 1;
#X connect 62 0 59 0;
#X connect 63 0 59 1;
#X connect 64 0 43 0;
#X connect 64 1 40 0;
#X connect 65 0 48 0;
#X connect 65 1 45 0;
#X restore 100 760 pd egui__handle_add_breakpoint_button;
#N canvas 0 49 1920 1009 egui__handle_remove_breakpoint_button 0;
#X text 260 240 Attack breakpoints;
#X text 840 240 Release breakpoints;
#X obj 100 170 trigger b s;
#X obj 220 240 bang;
#X obj 800 240 bang;
#X obj 100 130 ./egui-get-selected-breakpoint \$0;
#X obj 200 210 select attack release;
#X obj 100 1660 ./egui-send-values \$0 \$2;
#X text 110 1610 ---- Send updated values to the [envgen~] ----;
#X obj 220 290 ./egui-get-breakpoint-list \$0 attack;
#X obj 220 540 trigger l b;
#X obj 220 600 list split;
#X text 230 270 ---- Get breakpoints as raw list data ----;
#X obj 250 630 list split 2, f 28;
#X obj 250 690 list append, f 14;
#X obj 220 720 list append;
#X obj 250 820 list prepend set attack;
#X obj 250 850 list trim;
#X text 230 770 ---- Send updated values to self for display ----;
#X obj 800 540 trigger l b;
#X obj 800 600 list split;
#X text 810 270 ---- Get breakpoints as raw list data ----;
#X obj 830 630 list split 2, f 28;
#X obj 830 690 list append, f 14;
#X obj 800 720 list append;
#X obj 830 850 list trim;
#X text 810 770 ---- Send updated values to self for display ----;
#X obj 800 290 ./egui-get-breakpoint-list \$0 release;
#X obj 830 820 list prepend set release;
#X obj 250 880 s \$3;
#X obj 830 880 s \$3;
#X text 230 930 ---- Update selection flag ----;
#X obj 280 1390 set egui__breakpoint selected, f 64;
#X obj 280 1330 trigger b p, f 64;
#X text 810 930 ---- Update selection flag ----;
#X obj 860 1390 set egui__breakpoint selected, f 64;
#X obj 860 1330 trigger b p, f 64;
#X obj 220 790 trigger b l;
#X obj 800 790 trigger b l;
#X obj 100 1630 ./egui-refresh-breakpoint-ui \$0;
#X text 10 10 Handle click on the "Remove Breakpoint" button, f 69
;
#X obj 370 170 value _\$0_hrbb_selected_index;
#X text 230 520 ---- Remove selected breakpoint ----;
#X text 810 520 ---- Remove selected breakpoint ----;
#X obj 830 570 expr (_\$0_hrbb_selected_index - 1) * 2;
#X obj 250 570 expr (_\$0_hrbb_selected_index - 1) * 2;
#X obj 390 1300 value _\$0_hrbb_current_index;
#X obj 970 1300 value _\$0_hrbb_current_index;
#X obj 250 660 bang;
#X obj 830 660 bang;
#X obj 280 1360 expr _\$0_hrbb_current_index == _\$0_hrbb_selected_index
;
#X obj 860 1360 expr _\$0_hrbb_current_index == _\$0_hrbb_selected_index
;
#X obj 250 1010 getsize egui__main attack;
#X obj 250 1130 select 1;
#X obj 220 950 trigger b b;
#X obj 800 950 trigger b b;
#X obj 830 1130 select 1;
#X obj 830 1010 getsize egui__main release;
#X obj 100 100 r \$0-ui-remove-button-out;
#X obj 250 390 list length;
#X obj 220 360 trigger l l;
#X text 230 340 ---- Prevent deleting all breakpoints ----;
#X obj 220 470 spigot;
#X obj 250 420 expr \\$f1 >= 4;
#X obj 830 390 list length;
#X obj 800 360 trigger l l;
#X text 810 340 ---- Prevent deleting all breakpoints ----;
#X obj 800 470 spigot;
#X obj 830 420 expr \\$f1 >= 4;
#X obj 220 1240 trigger b b;
#X obj 800 1240 trigger b b;
#X obj 220 1440 trigger b;
#X obj 800 1440 trigger b;
#X obj 280 1500 trigger b p;
#X msg 280 1530 0;
#X obj 280 1560 set egui__breakpoint selected;
#X obj 860 1500 trigger b p;
#X msg 860 1530 0;
#X obj 860 1560 set egui__breakpoint selected;
#X obj 250 1190 value _\$0_hrbb_selected_index;
#X obj 830 1190 value _\$0_hrbb_selected_index;
#X obj 830 1040 trigger f f;
#X obj 280 1070 value _\$0_hrbb_size;
#X obj 250 1040 trigger b f;
#X obj 250 1100 expr _\$0_hrbb_size == _\$0_hrbb_selected_index;
#X obj 250 1160 expr _\$0_hrbb_size - 1;
#X obj 830 1160 expr _\$0_hrbb_size - 1;
#X obj 860 1070 value _\$0_hrbb_size;
#X obj 830 1100 expr _\$0_hrbb_size == _\$0_hrbb_selected_index;
#X obj 250 980 ./egui-get-main \$0;
#X obj 830 980 ./egui-get-main \$0;
#X obj 250 1270 ./egui-foreach-breakpoint \$0 attack;
#X obj 830 1270 ./egui-foreach-breakpoint \$0 release;
#X obj 250 1470 ./egui-foreach-breakpoint \$0 release;
#X obj 830 1470 ./egui-foreach-breakpoint \$0 attack;
#X connect 2 0 39 0;
#X connect 2 1 6 0;
#X connect 3 0 9 0;
#X connect 4 0 27 0;
#X connect 5 1 2 0;
#X connect 5 2 41 0;
#X connect 6 0 3 0;
#X connect 6 1 4 0;
#X connect 9 0 60 0;
#X connect 10 0 11 0;
#X connect 10 1 45 0;
#X connect 11 0 15 0;
#X connect 11 1 13 0;
#X connect 13 0 48 0;
#X connect 13 1 14 1;
#X connect 14 0 15 1;
#X connect 15 0 37 0;
#X connect 16 0 17 0;
#X connect 17 0 29 0;
#X connect 19 0 20 0;
#X connect 19 1 44 0;
#X connect 20 0 24 0;
#X connect 20 1 22 0;
#X connect 22 0 49 0;
#X connect 22 1 23 1;
#X connect 23 0 24 1;
#X connect 24 0 38 0;
#X connect 25 0 30 0;
#X connect 27 0 65 0;
#X connect 28 0 25 0;
#X connect 33 0 50 0;
#X connect 33 1 32 1;
#X connect 36 0 51 0;
#X connect 36 1 35 1;
#X connect 37 0 54 0;
#X connect 37 1 16 0;
#X connect 38 0 55 0;
#X connect 38 1 28 0;
#X connect 39 0 7 0;
#X connect 44 0 20 1;
#X connect 45 0 11 1;
#X connect 48 0 14 0;
#X connect 49 0 23 0;
#X connect 50 0 32 0;
#X connect 51 0 35 0;
#X connect 52 0 83 0;
#X connect 53 0 85 0;
#X connect 54 0 69 0;
#X connect 54 1 89 0;
#X connect 55 0 70 0;
#X connect 55 1 90 0;
#X connect 56 0 86 0;
#X connect 57 0 81 0;
#X connect 58 0 5 0;
#X connect 59 0 63 0;
#X connect 60 0 62 0;
#X connect 60 1 59 0;
#X connect 62 0 10 0;
#X connect 63 0 62 1;
#X connect 64 0 68 0;
#X connect 65 0 67 0;
#X connect 65 1 64 0;
#X connect 67 0 19 0;
#X connect 68 0 67 1;
#X connect 69 0 71 0;
#X connect 69 1 91 0;
#X connect 70 0 72 0;
#X connect 70 1 92 0;
#X connect 71 0 93 0;
#X connect 72 0 94 0;
#X connect 73 0 74 0;
#X connect 73 1 75 1;
#X connect 74 0 75 0;
#X connect 76 0 77 0;
#X connect 76 1 78 1;
#X connect 77 0 78 0;
#X connect 81 0 88 0;
#X connect 81 1 87 0;
#X connect 83 0 84 0;
#X connect 83 1 82 0;
#X connect 84 0 53 0;
#X connect 85 0 79 0;
#X connect 86 0 80 0;
#X connect 88 0 56 0;
#X connect 89 0 52 0;
#X connect 90 0 57 0;
#X connect 91 0 33 0;
#X connect 91 1 46 0;
#X connect 92 0 36 0;
#X connect 92 1 47 0;
#X connect 93 0 73 0;
#X connect 94 0 76 0;
#X restore 100 790 pd egui__handle_remove_breakpoint_button;
#X obj 0 340 cnv 15 500 15 empty empty Usage 10 5 0 12 #e0e0e0 #404040
0;
#X text 10 370 Obviously you need an [envgen~] that will be controlled
by a corresponding [envgen-gui]. The [envgen~] must be connected to
[send] and [receive] objects whose names are given as arguments to
the [envgen-gui]. This must be repeated for each envelope generator.
Additionally \, you need exactly one [envgen-gui-structs] that defines
the PD structures used by all [envgen-gui] instances., f 68;
#N canvas 0 49 1920 1009 \$0_egui__ui 0;
#X scalar egui__main 320 160 3 137 5000 \; -20 -20 -20 -20 0 0 0 0
0 \; \; -20 -20 -20 -20 0 0 0 0 0 \; \;;
#X coords 0 -1 300 140 300 140 2 0 0;
#X restore 700 140 pd \$0_egui__ui;
#X obj 1200 100 r egui-initialize;
#X obj 1200 130 bng 15 250 50 0 empty empty empty 17 7 0 10 #fcfcfc
#000000 #000000 1;
#X text 10 480 To prevent PD from crashing when you are opening this
file without having envgen-gui-structs.pd open at the same time \,
the GUI does not initialize with [loadbang]. Instead \, send a bang
to [r egui-initialize] to kick-start the UI., f 68;
#X connect 4 0 3 0;
#X connect 8 0 9 0;
#X connect 9 0 6 0;
#X connect 10 0 11 0;
#X connect 11 0 7 0;
#X connect 12 0 4 0;
#X connect 17 0 5 0;
#X connect 18 0 40 0;
#X connect 21 0 57 0;
#X connect 21 1 39 0;
#X connect 21 1 41 0;
#X connect 21 1 18 0;
#X connect 21 1 59 0;
#X connect 33 0 50 0;
#X connect 33 1 60 0;
#X connect 33 1 34 0;
#X connect 34 0 37 0;
#X connect 39 0 43 0;
#X connect 41 0 44 0;
#X connect 49 0 21 0;
#X connect 49 1 51 0;
#X connect 50 0 52 0;
#X connect 50 1 31 0;
#X connect 53 0 6 0;
#X connect 54 0 7 0;
#X connect 56 0 55 0;
#X connect 57 0 33 0;
#X connect 57 1 56 0;
#X connect 59 0 42 0;
#X connect 60 0 35 0;
#X connect 66 0 67 0;
#X connect 67 0 49 0;
#X coords 0 -1 1 1 300 250 2 700 100;
