#N canvas 0 49 1920 1009 12;
#X obj -30 -30 preset_hub k12 1 %hidden%;
#N canvas 0 49 1920 1009 (subpatch) 0;
#X array wavetable-sin1 515 float 0 black black;
#X coords 0 1 514 -1 200 200 1;
#X scroll 1;
#X restore 500 100 graph;
#N canvas 0 0 450 300 (subpatch) 0;
#X array wavetable-sin2 515 float 0 black black;
#X coords 0 1 514 -1 200 200 1;
#X restore 710 100 graph;
#N canvas 0 0 450 300 (subpatch) 0;
#X array wavetable-sin3 515 float 0 black black;
#X coords 0 1 514 -1 200 200 1;
#X restore 920 100 graph;
#N canvas 0 0 450 300 (subpatch) 0;
#X array wavetable-sin4 515 float 0 black black;
#X coords 0 1 514 -1 200 200 1;
#X restore 1130 100 graph;
#N canvas 0 0 450 300 (subpatch) 0;
#X array wavetable-sin5 515 float 0 black black;
#X coords 0 1 514 -1 200 200 1;
#X restore 1340 100 graph;
#N canvas 0 0 450 300 (subpatch) 0;
#X array wavetable-sin6 515 float 0 black black;
#X coords 0 1 514 -1 200 200 1;
#X restore 1550 100 graph;
#N canvas 0 0 450 300 (subpatch) 0;
#X array wavetable-sin7 515 float 0 black black;
#X coords 0 1 514 -1 200 200 1;
#X restore 500 310 graph;
#N canvas 0 0 450 300 (subpatch) 0;
#X array wavetable-sin8 515 float 0 black black;
#X coords 0 1 514 -1 200 200 1;
#X restore 710 310 graph;
#N canvas 0 0 450 300 (subpatch) 0;
#X array wavetable-sin9 515 float 0 black black;
#X coords 0 1 514 -1 200 200 1;
#X restore 920 310 graph;
#N canvas 0 0 450 300 (subpatch) 0;
#X array wavetable-sin10 515 float 0 black black;
#X coords 0 1 514 -1 200 200 1;
#X restore 1130 310 graph;
#N canvas 0 0 450 300 (subpatch) 0;
#X array wavetable-sin11 515 float 0 black black;
#X coords 0 1 514 -1 200 200 1;
#X restore 1340 310 graph;
#X text 10 10 Sine wavetables (to eliminate a special case in the oscillator)
;
#X obj 130 380 soundfiler;
#X obj 100 131 bng 20 250 50 0 empty empty empty 17 7 0 10 #fcfcfc
#000000 #000000 1;
#X msg 130 190 read -resize sin1.wav wavetable-sin1 \, read -resize
sin2.wav wavetable-sin2 \, read -resize sin3.wav wavetable-sin3 \,
read -resize sin4.wav wavetable-sin4 \, read -resize sin5.wav wavetable-sin5
\, read -resize sin6.wav wavetable-sin6 \, read -resize sin7.wav wavetable-sin7
\, read -resize sin8.wav wavetable-sin8 \, read -resize sin9.wav wavetable-sin9
\, read -resize sin10.wav wavetable-sin10 \, read -resize sin11.wav
wavetable-sin11 \,, f 40;
#X obj 100 100 inlet;
#X obj 100 410 outlet;
#X obj 100 160 trigger b b;
#X connect 14 0 18 0;
#X connect 15 0 13 0;
#X connect 16 0 14 0;
#X connect 18 0 17 0;
#X connect 18 1 15 0;
