#N canvas 0 49 1920 1009 12;
#X obj 180 80 cnv 15 321 3 empty empty Note\ In/Out 20 12 0 14 #e0e0e0
#404040 0;
#X floatatom 200 180 5 0 0 1 Note - - 0 0 1, f 5;
#X floatatom 310 180 5 0 0 1 Velocity - - 0 0 1, f 5;
#X floatatom 970 230 5 0 0 1 Sustain - - 0 0 1, f 5;
#X floatatom 1430 210 5 0 0 1 Sustenuto - - 0 0 1, f 5;
#X obj 200 770 outlet;
#X obj 200 470 spigot;
#X obj 550 180 bag;
#X obj 200 220 pack f f;
#X obj 200 610 unpack f f;
#X obj 550 280 pack f f;
#X obj 580 250 float 0;
#X obj 550 220 trigger f b;
#X obj 800 680 == 0;
#X text 310 630 Voice Allocatorpoly 32 \, note stealing;
#X text 1580 180 TODO: Sustenuto;
#X obj 970 270 trigger b f;
#X obj 500 80 cnv 15 3 719 empty empty empty 20 12 0 14 #e0e0e0 #404040
0;
#X obj 520 80 cnv 15 230 3 empty empty Note-Off\ Bags 20 12 0 14 #e0e0e0
#404040 0;
#X obj 750 80 cnv 15 3 720 empty empty empty 20 12 0 14 #e0e0e0 #404040
0;
#X obj 770 80 cnv 15 430 3 empty empty Sustain\ Pedal 20 12 0 14 #e0e0e0
#404040 0;
#X obj 1200 80 cnv 15 3 720 empty empty empty 20 12 0 14 #e0e0e0 #404040
0;
#X obj 520 420 cnv 15 210 3 empty empty empty 20 12 0 14 #e0e0e0 #404040
0;
#X obj 780 570 cnv 15 410 3 empty empty empty 20 12 0 14 #e0e0e0 #404040
0;
#X obj 790 230 unpack f f;
#X obj 790 450 spigot;
#X floatatom 200 690 5 0 0 0 - - - 0 0 1, f 5;
#X floatatom 270 690 5 0 0 0 - - - 0 0 1, f 5;
#X floatatom 340 690 5 0 0 0 - - - 0 0 1, f 5;
#X floatatom 240 440 5 0 0 0 - - - 0 0 1, f 5;
#X floatatom 860 260 5 0 0 0 - - - 0 0 1, f 5;
#X floatatom 790 260 5 0 0 0 - - - 0 0 1, f 5;
#X obj 550 520 bag;
#X obj 550 620 pack f f;
#X obj 580 590 float 0;
#X obj 550 560 trigger f b;
#X floatatom 970 350 5 0 0 1 Let_Thru - - 0 0 1, f 5;
#X obj 970 320 expr ($f1 > 0) || ($f2 == 0);
#X obj 970 380 trigger f f;
#X obj 830 420 == 0;
#X obj 200 730 pack f f f;
#X text 310 730 (voice \, note \, velocity);
#X text 790 140 Collect note-offs while pedal pressed.Let thru if
note-on or pedal not pressed., f 50;
#X text 800 610 Flush note-offs when the pedal is released., f 52
;
#X obj 1240 690 == 0;
#X obj 1222 572 cnv 15 410 3 empty empty empty 20 12 0 14 #e0e0e0 #404040
0;
#X text 1240 610 Flush note-offs when the pedal is released., f 52
;
#X obj 240 410 r va-let_thru;
#X obj 200 150 r in-note;
#X obj 310 150 r in-velocity;
#X obj 550 140 r va-sustain_bag;
#X obj 550 320 s va-played_note;
#X obj 200 380 r va-received_note;
#X obj 200 500 s va-played_note;
#X obj 200 580 r va-played_note;
#X obj 550 660 s va-played_note;
#X obj 550 480 r va-sustenuto_bag;
#X obj 200 250 s va-received_note;
#X obj 790 200 r va-received_note;
#X obj 970 200 r in-sustain;
#X msg 790 480 \; va-sustain_bag \$1 1;
#X obj 1060 480 s va-let_thru;
#X obj 800 650 r in-sustain;
#X obj 1430 180 r in-sustenuto;
#X obj 1240 660 r in-sustenuto;
#X msg 1240 730 \; va-sustenuto_bag flush;
#X msg 800 720 \; va-sustain_bag flush;
#X obj 200 640 poly 32 1;
#X connect 1 0 8 0;
#X connect 2 0 8 1;
#X connect 3 0 16 0;
#X connect 6 0 53 0;
#X connect 7 0 12 0;
#X connect 8 0 57 0;
#X connect 9 0 67 0;
#X connect 9 1 67 1;
#X connect 10 0 51 0;
#X connect 11 0 10 1;
#X connect 12 0 10 0;
#X connect 12 1 11 0;
#X connect 13 0 66 0;
#X connect 16 0 37 0;
#X connect 16 1 37 1;
#X connect 24 0 31 0;
#X connect 24 1 30 0;
#X connect 25 0 60 0;
#X connect 26 0 40 0;
#X connect 27 0 40 1;
#X connect 28 0 40 2;
#X connect 29 0 6 1;
#X connect 30 0 37 0;
#X connect 31 0 25 0;
#X connect 32 0 35 0;
#X connect 33 0 55 0;
#X connect 34 0 33 1;
#X connect 35 0 33 0;
#X connect 35 1 34 0;
#X connect 36 0 38 0;
#X connect 37 0 36 0;
#X connect 38 0 39 0;
#X connect 38 1 61 0;
#X connect 39 0 25 1;
#X connect 40 0 5 0;
#X connect 44 0 65 0;
#X connect 47 0 29 0;
#X connect 48 0 1 0;
#X connect 49 0 2 0;
#X connect 50 0 7 0;
#X connect 52 0 6 0;
#X connect 54 0 9 0;
#X connect 56 0 32 0;
#X connect 58 0 24 0;
#X connect 59 0 3 0;
#X connect 62 0 13 0;
#X connect 63 0 4 0;
#X connect 64 0 44 0;
#X connect 67 0 26 0;
#X connect 67 1 27 0;
#X connect 67 2 28 0;
