#N canvas 0 49 1920 1009 12;
#X obj -30 -30 preset_hub k12 1 %hidden%;
#N canvas 0 49 1920 1009 (subpatch) 0;
#X array wavetable-square1 515 float 0 black black;
#X coords 0 1 514 -1 200 200 1;
#X scroll 1;
#X restore 500 100 graph;
#N canvas 0 0 450 300 (subpatch) 0;
#X array wavetable-square2 515 float 0 black black;
#X coords 0 1 514 -1 200 200 1;
#X restore 710 100 graph;
#N canvas 0 0 450 300 (subpatch) 0;
#X array wavetable-square3 515 float 0 black black;
#X coords 0 1 514 -1 200 200 1;
#X restore 920 100 graph;
#N canvas 0 0 450 300 (subpatch) 0;
#X array wavetable-square4 515 float 0 black black;
#X coords 0 1 514 -1 200 200 1;
#X restore 1130 100 graph;
#N canvas 0 0 450 300 (subpatch) 0;
#X array wavetable-square5 515 float 0 black black;
#X coords 0 1 514 -1 200 200 1;
#X restore 1340 100 graph;
#N canvas 0 0 450 300 (subpatch) 0;
#X array wavetable-square6 515 float 0 black black;
#X coords 0 1 514 -1 200 200 1;
#X restore 1550 100 graph;
#N canvas 0 0 450 300 (subpatch) 0;
#X array wavetable-square7 515 float 0 black black;
#X coords 0 1 514 -1 200 200 1;
#X restore 500 310 graph;
#N canvas 0 0 450 300 (subpatch) 0;
#X array wavetable-square8 515 float 0 black black;
#X coords 0 1 514 -1 200 200 1;
#X restore 710 310 graph;
#N canvas 0 0 450 300 (subpatch) 0;
#X array wavetable-square9 515 float 0 black black;
#X coords 0 1 514 -1 200 200 1;
#X restore 920 310 graph;
#N canvas 0 0 450 300 (subpatch) 0;
#X array wavetable-square10 515 float 0 black black;
#X coords 0 1 514 -1 200 200 1;
#X restore 1130 310 graph;
#N canvas 0 0 450 300 (subpatch) 0;
#X array wavetable-square11 515 float 0 black black;
#X coords 0 1 514 -1 200 200 1;
#X restore 1340 310 graph;
#X text 10 10 Square wavetables;
#X msg 130 190 read -resize square1.wav wavetable-square1 \, read -resize
square2.wav wavetable-square2 \, read -resize square3.wav wavetable-square3
\, read -resize square4.wav wavetable-square4 \, read -resize square5.wav
wavetable-square5 \, read -resize square6.wav wavetable-square6 \,
read -resize square7.wav wavetable-square7 \, read -resize square8.wav
wavetable-square8 \, read -resize square9.wav wavetable-square9 \,
read -resize square10.wav wavetable-square10 \, read -resize square11.wav
wavetable-square11 \,, f 46;
#X obj 130 380 soundfiler;
#X obj 100 131 bng 20 250 50 0 empty empty empty 17 7 0 10 #fcfcfc
#000000 #000000 1;
#X obj 100 100 inlet;
#X obj 100 410 outlet;
#X obj 100 160 trigger b b;
#X connect 13 0 14 0;
#X connect 15 0 18 0;
#X connect 16 0 15 0;
#X connect 18 0 17 0;
#X connect 18 1 13 0;
