#N canvas 0 49 1920 1009 12;
#X obj -30 -30 preset_hub k12 1 %hidden%;
#X obj 100 140 ./preset-manager pm;
#X obj 100 570 ./preset-value pm float float1;
#X obj 430 570 ./preset-value pm float float2;
#X obj 800 570 ./preset-value pm symbol symbol1;
#X obj 1250 570 ./preset-value pm list list1;
#X msg 100 100 load-file;
#X msg 230 100 save-file;
#X msg 340 100 store-values;
#X msg 470 100 restore-values;
#X text 600 100 <--- Click here to test;
#X floatatom 100 450 5 0 0 0 - - - 0 0 1, f 5;
#X obj 100 480 s float1;
#X obj 100 390 r float1;
#X msg 100 419 set \$1;
#X floatatom 430 450 5 0 0 0 - - - 0 0 1, f 5;
#X msg 430 419 set \$1;
#X obj 430 480 s float2;
#X obj 430 390 r float2;
#X obj 800 360 symbol;
#X obj 800 330 r symbol1;
#X obj 800 390 list prepend set;
#X obj 800 420 list trim 1;
#X msg 800 450 goodbye;
#X msg 800 240 hello;
#X msg 860 240 goodbye;
#X text 930 240 <--- Click the change symbol parameter;
#X obj 800 280 s symbol1;
#X text 150 450 Float parameter 1 (change here);
#X text 480 450 Float parameter 2 (change here);
#X text 870 450 Symbol parameter (change above);
#X msg 1250 240 1 2 3 4 5;
#X msg 1360 240 a b c d e;
#X obj 1360 270 trigger l;
#X obj 1250 300 s list1;
#X text 1440 240 <---- Click here to change list parameter;
#X obj 1250 360 r list1;
#X obj 1250 389 list prepend set;
#X obj 1250 418 list trim 1;
#X msg 1250 450 a b c d e;
#X text 1340 450 List parameter (change above);
#X obj 100 169 bng 15 250 50 0 empty empty empty 17 7 0 10 #fcfcfc
#000000 #000000 1;
#X connect 1 0 41 0;
#X connect 6 0 1 0;
#X connect 7 0 1 0;
#X connect 8 0 1 0;
#X connect 9 0 1 0;
#X connect 11 0 12 0;
#X connect 13 0 14 0;
#X connect 14 0 11 0;
#X connect 15 0 17 0;
#X connect 16 0 15 0;
#X connect 18 0 16 0;
#X connect 19 0 21 0;
#X connect 20 0 19 0;
#X connect 21 0 22 0;
#X connect 22 0 23 0;
#X connect 24 0 27 0;
#X connect 25 0 27 0;
#X connect 31 0 34 0;
#X connect 32 0 33 0;
#X connect 33 0 34 0;
#X connect 36 0 37 0;
#X connect 37 0 38 0;
#X connect 38 0 39 0;
